%TF.GenerationSoftware,KiCad,Pcbnew,(5.1.7)-1*%
%TF.CreationDate,2020-11-11T14:22:04+03:00*%
%TF.ProjectId,MT7628_USB_MODEM,4d543736-3238-45f5-9553-425f4d4f4445,rev?*%
%TF.SameCoordinates,Original*%
%TF.FileFunction,Soldermask,Bot*%
%TF.FilePolarity,Negative*%
%FSLAX46Y46*%
G04 Gerber Fmt 4.6, Leading zero omitted, Abs format (unit mm)*
G04 Created by KiCad (PCBNEW (5.1.7)-1) date 2020-11-11 14:22:04*
%MOMM*%
%LPD*%
G01*
G04 APERTURE LIST*
%ADD10O,1.700000X1.700000*%
%ADD11R,1.700000X1.700000*%
%ADD12C,1.500000*%
%ADD13C,2.300000*%
%ADD14C,3.250000*%
%ADD15R,1.500000X1.500000*%
%ADD16C,1.524000*%
%ADD17R,1.524000X1.524000*%
%ADD18R,3.500000X3.500000*%
%ADD19C,3.000000*%
%ADD20C,1.600000*%
%ADD21R,1.600000X1.600000*%
G04 APERTURE END LIST*
D10*
%TO.C,J7*%
X129448560Y-82829400D03*
D11*
X126908560Y-82829400D03*
%TD*%
D12*
%TO.C,J2*%
X86089300Y-69663660D03*
X86089300Y-71953660D03*
X86089300Y-81093660D03*
X86089300Y-83383660D03*
D13*
X80379300Y-84653660D03*
X80379300Y-68393660D03*
D14*
X76949300Y-70173660D03*
X76949300Y-82873660D03*
D12*
X81269300Y-72971660D03*
X81269300Y-75003660D03*
X81269300Y-77035660D03*
X81269300Y-79067660D03*
X79489300Y-73987660D03*
X79489300Y-76019660D03*
X79489300Y-78051660D03*
D15*
X79489300Y-80083660D03*
%TD*%
D16*
%TO.C,TR1*%
X110595280Y-82093440D03*
X108595280Y-82093440D03*
X106595280Y-82093440D03*
X104595280Y-82093440D03*
X102595280Y-82093440D03*
X100595280Y-82093440D03*
X100595280Y-77093440D03*
X102595280Y-77093440D03*
X104595280Y-77093440D03*
X106595280Y-77093440D03*
X108595280Y-77093440D03*
D17*
X110595280Y-77093440D03*
%TD*%
D10*
%TO.C,J4*%
X92163900Y-56255920D03*
X92163900Y-53715920D03*
D11*
X92163900Y-51175920D03*
%TD*%
%TO.C,J3*%
G36*
G01*
X80649880Y-47700900D02*
X80649880Y-45950900D01*
G75*
G02*
X81524880Y-45075900I875000J0D01*
G01*
X83274880Y-45075900D01*
G75*
G02*
X84149880Y-45950900I0J-875000D01*
G01*
X84149880Y-47700900D01*
G75*
G02*
X83274880Y-48575900I-875000J0D01*
G01*
X81524880Y-48575900D01*
G75*
G02*
X80649880Y-47700900I0J875000D01*
G01*
G37*
G36*
G01*
X77899880Y-43125900D02*
X77899880Y-41125900D01*
G75*
G02*
X78649880Y-40375900I750000J0D01*
G01*
X80149880Y-40375900D01*
G75*
G02*
X80899880Y-41125900I0J-750000D01*
G01*
X80899880Y-43125900D01*
G75*
G02*
X80149880Y-43875900I-750000J0D01*
G01*
X78649880Y-43875900D01*
G75*
G02*
X77899880Y-43125900I0J750000D01*
G01*
G37*
D18*
X85399880Y-42125900D03*
%TD*%
D19*
%TO.C,J1*%
X73310000Y-50890000D03*
X73310000Y-64030000D03*
D15*
X73660000Y-60960000D03*
D12*
X73660000Y-58460000D03*
X73660000Y-56460000D03*
X73660000Y-53960000D03*
D19*
X78990000Y-64030000D03*
X78990000Y-50890000D03*
D12*
X76280000Y-60960000D03*
X76280000Y-58460000D03*
X76280000Y-56460000D03*
X76280000Y-53960000D03*
%TD*%
D10*
%TO.C,J6*%
X117711220Y-43136820D03*
X115171220Y-43136820D03*
D11*
X112631220Y-43136820D03*
%TD*%
D10*
%TO.C,J5*%
X126657100Y-43101260D03*
X124117100Y-43101260D03*
D11*
X121577100Y-43101260D03*
%TD*%
D20*
%TO.C,C14*%
X157601920Y-80090640D03*
D21*
X157601920Y-82590640D03*
%TD*%
D20*
%TO.C,C13*%
X148897340Y-80245580D03*
D21*
X148897340Y-82745580D03*
%TD*%
D20*
%TO.C,C11*%
X136260840Y-81814040D03*
D21*
X136260840Y-79314040D03*
%TD*%
M02*
