M48
; DRILL file {KiCad (5.1.7)-1} date 11/11/20 14:22:08
; FORMAT={-:-/ absolute / inch / decimal}
; #@! TF.CreationDate,2020-11-11T14:22:08+03:00
; #@! TF.GenerationSoftware,Kicad,Pcbnew,(5.1.7)-1
; #@! TF.FileFunction,Plated,1,2,PTH
FMAT,2
INCH
T1C0.0118
T2C0.0157
T3C0.0300
T4C0.0315
T5C0.0350
T6C0.0362
T7C0.0394
T8C0.0618
T9C0.0906
T10C0.1378
%
G90
G05
T1
X5.7739Y-2.6838
X5.7739Y-2.735
X5.8133Y-2.6838
X5.8133Y-2.735
X5.8527Y-2.6838
X5.8527Y-2.735
X5.7667Y-2.0026
X5.7667Y-2.0538
X5.8061Y-2.0026
X5.8061Y-2.0538
X5.8455Y-2.0026
X5.8455Y-2.0538
T2
X3.2872Y-3.0755
X3.4345Y-1.9354
X3.5224Y-2.9205
X3.5224Y-3.0381
X3.6074Y-3.0329
X3.6562Y-2.7504
X3.6794Y-2.5562
X3.8494Y-1.9966
X3.875Y-2.4755
X3.9584Y-1.9939
X4.0134Y-2.4755
X4.4531Y-2.1402
X4.4994Y-2.6296
X4.4996Y-2.9123
X4.8971Y-1.9143
X4.9325Y-1.9143
X5.062Y-2.8638
X5.0915Y-1.7455
X5.0916Y-1.7828
X5.4877Y-1.6022
X5.5257Y-1.6022
X5.5383Y-1.9517
X5.5411Y-2.5379
X5.5851Y-2.6889
X5.5851Y-2.7295
X5.6078Y-2.0126
X5.6078Y-2.0481
X5.7916Y-2.2831
X5.8043Y-2.9821
X5.8547Y-2.2236
X5.8563Y-2.8996
X5.9358Y-1.7557
X5.9436Y-2.4552
X6.1492Y-2.1652
X6.1494Y-2.2035
X6.1737Y-2.8526
X6.1739Y-2.8858
X6.3171Y-2.259
X6.3356Y-2.9403
X6.3356Y-2.9747
T3
X3.9604Y-3.0352
X3.9604Y-3.232
X4.0392Y-3.0352
X4.0392Y-3.232
X4.1179Y-3.0352
X4.1179Y-3.232
X4.1967Y-3.0352
X4.1967Y-3.232
X4.2754Y-3.0352
X4.2754Y-3.232
X4.3541Y-3.0352
X4.3541Y-3.232
T4
X5.3646Y-3.1226
X5.3646Y-3.221
X5.8621Y-3.1593
X5.8621Y-3.2577
X6.2048Y-3.1532
X6.2048Y-3.2516
T5
X3.1295Y-2.9129
X3.1295Y-2.9929
X3.1295Y-3.0729
X3.1295Y-3.1529
X3.1996Y-2.8729
X3.1996Y-2.9529
X3.1996Y-3.0329
X3.1996Y-3.1129
X3.3893Y-2.7427
X3.3893Y-2.8328
X3.3893Y-3.1927
X3.3893Y-3.2828
T6
X2.9Y-2.1244
X2.9Y-2.2228
X2.9Y-2.3016
X2.9Y-2.4
X3.0031Y-2.1244
X3.0031Y-2.2228
X3.0031Y-2.3016
X3.0031Y-2.4
T7
X4.7865Y-1.6969
X4.8865Y-1.6969
X4.9865Y-1.6969
X4.9964Y-3.261
X5.0964Y-3.261
X4.4343Y-1.6983
X4.5343Y-1.6983
X4.6343Y-1.6983
X3.6285Y-2.0148
X3.6285Y-2.1148
X3.6285Y-2.2148
T8
X3.1645Y-2.6927
X3.1645Y-3.3328
T9
X2.8862Y-2.0035
X2.8862Y-2.5209
X3.1098Y-2.0035
X3.1098Y-2.5209
T10
X3.6773Y-1.6146
X3.6773Y-3.2373
X6.5182Y-1.611
X6.5182Y-3.2337
T7
G00X3.126Y-1.6191
M15
G01X3.126Y-1.6979
M16
G05
G00X3.2047Y-1.8435
M15
G01X3.2835Y-1.8435
M16
G05
G00X3.3622Y-1.6191
M15
G01X3.3622Y-1.6979
M16
G05
T0
M30
