%TF.GenerationSoftware,KiCad,Pcbnew,(5.1.7)-1*%
%TF.CreationDate,2020-11-11T14:22:04+03:00*%
%TF.ProjectId,MT7628_USB_MODEM,4d543736-3238-45f5-9553-425f4d4f4445,rev?*%
%TF.SameCoordinates,Original*%
%TF.FileFunction,Soldermask,Top*%
%TF.FilePolarity,Negative*%
%FSLAX46Y46*%
G04 Gerber Fmt 4.6, Leading zero omitted, Abs format (unit mm)*
G04 Created by KiCad (PCBNEW (5.1.7)-1) date 2020-11-11 14:22:04*
%MOMM*%
%LPD*%
G01*
G04 APERTURE LIST*
%ADD10R,3.000000X2.290000*%
%ADD11O,1.700000X1.700000*%
%ADD12R,1.700000X1.700000*%
%ADD13R,0.900000X0.800000*%
%ADD14C,1.500000*%
%ADD15C,2.300000*%
%ADD16C,3.250000*%
%ADD17R,1.500000X1.500000*%
%ADD18C,1.524000*%
%ADD19R,1.524000X1.524000*%
%ADD20R,3.500000X3.500000*%
%ADD21C,3.000000*%
%ADD22R,0.900000X1.800000*%
%ADD23R,1.800000X0.900000*%
%ADD24R,2.700000X1.200000*%
%ADD25R,5.000000X5.000000*%
%ADD26R,1.500000X2.200000*%
%ADD27R,2.160000X1.120000*%
%ADD28C,1.600000*%
%ADD29R,1.600000X1.600000*%
G04 APERTURE END LIST*
D10*
%TO.C,D1*%
X147657820Y-68818760D03*
G36*
G01*
X149412820Y-70318760D02*
X149712820Y-70318760D01*
G75*
G02*
X149862820Y-70468760I0J-150000D01*
G01*
X149862820Y-72118760D01*
G75*
G02*
X149712820Y-72268760I-150000J0D01*
G01*
X149412820Y-72268760D01*
G75*
G02*
X149262820Y-72118760I0J150000D01*
G01*
X149262820Y-70468760D01*
G75*
G02*
X149412820Y-70318760I150000J0D01*
G01*
G37*
G36*
G01*
X148142820Y-70318760D02*
X148442820Y-70318760D01*
G75*
G02*
X148592820Y-70468760I0J-150000D01*
G01*
X148592820Y-72118760D01*
G75*
G02*
X148442820Y-72268760I-150000J0D01*
G01*
X148142820Y-72268760D01*
G75*
G02*
X147992820Y-72118760I0J150000D01*
G01*
X147992820Y-70468760D01*
G75*
G02*
X148142820Y-70318760I150000J0D01*
G01*
G37*
G36*
G01*
X146872820Y-70318760D02*
X147172820Y-70318760D01*
G75*
G02*
X147322820Y-70468760I0J-150000D01*
G01*
X147322820Y-72118760D01*
G75*
G02*
X147172820Y-72268760I-150000J0D01*
G01*
X146872820Y-72268760D01*
G75*
G02*
X146722820Y-72118760I0J150000D01*
G01*
X146722820Y-70468760D01*
G75*
G02*
X146872820Y-70318760I150000J0D01*
G01*
G37*
G36*
G01*
X145602820Y-70318760D02*
X145902820Y-70318760D01*
G75*
G02*
X146052820Y-70468760I0J-150000D01*
G01*
X146052820Y-72118760D01*
G75*
G02*
X145902820Y-72268760I-150000J0D01*
G01*
X145602820Y-72268760D01*
G75*
G02*
X145452820Y-72118760I0J150000D01*
G01*
X145452820Y-70468760D01*
G75*
G02*
X145602820Y-70318760I150000J0D01*
G01*
G37*
G36*
G01*
X145602820Y-65368760D02*
X145902820Y-65368760D01*
G75*
G02*
X146052820Y-65518760I0J-150000D01*
G01*
X146052820Y-67168760D01*
G75*
G02*
X145902820Y-67318760I-150000J0D01*
G01*
X145602820Y-67318760D01*
G75*
G02*
X145452820Y-67168760I0J150000D01*
G01*
X145452820Y-65518760D01*
G75*
G02*
X145602820Y-65368760I150000J0D01*
G01*
G37*
G36*
G01*
X146872820Y-65368760D02*
X147172820Y-65368760D01*
G75*
G02*
X147322820Y-65518760I0J-150000D01*
G01*
X147322820Y-67168760D01*
G75*
G02*
X147172820Y-67318760I-150000J0D01*
G01*
X146872820Y-67318760D01*
G75*
G02*
X146722820Y-67168760I0J150000D01*
G01*
X146722820Y-65518760D01*
G75*
G02*
X146872820Y-65368760I150000J0D01*
G01*
G37*
G36*
G01*
X148142820Y-65368760D02*
X148442820Y-65368760D01*
G75*
G02*
X148592820Y-65518760I0J-150000D01*
G01*
X148592820Y-67168760D01*
G75*
G02*
X148442820Y-67318760I-150000J0D01*
G01*
X148142820Y-67318760D01*
G75*
G02*
X147992820Y-67168760I0J150000D01*
G01*
X147992820Y-65518760D01*
G75*
G02*
X148142820Y-65368760I150000J0D01*
G01*
G37*
G36*
G01*
X149412820Y-65368760D02*
X149712820Y-65368760D01*
G75*
G02*
X149862820Y-65518760I0J-150000D01*
G01*
X149862820Y-67168760D01*
G75*
G02*
X149712820Y-67318760I-150000J0D01*
G01*
X149412820Y-67318760D01*
G75*
G02*
X149262820Y-67168760I0J150000D01*
G01*
X149262820Y-65518760D01*
G75*
G02*
X149412820Y-65368760I150000J0D01*
G01*
G37*
%TD*%
%TO.C,D2*%
X147474940Y-51516280D03*
G36*
G01*
X149229940Y-53016280D02*
X149529940Y-53016280D01*
G75*
G02*
X149679940Y-53166280I0J-150000D01*
G01*
X149679940Y-54816280D01*
G75*
G02*
X149529940Y-54966280I-150000J0D01*
G01*
X149229940Y-54966280D01*
G75*
G02*
X149079940Y-54816280I0J150000D01*
G01*
X149079940Y-53166280D01*
G75*
G02*
X149229940Y-53016280I150000J0D01*
G01*
G37*
G36*
G01*
X147959940Y-53016280D02*
X148259940Y-53016280D01*
G75*
G02*
X148409940Y-53166280I0J-150000D01*
G01*
X148409940Y-54816280D01*
G75*
G02*
X148259940Y-54966280I-150000J0D01*
G01*
X147959940Y-54966280D01*
G75*
G02*
X147809940Y-54816280I0J150000D01*
G01*
X147809940Y-53166280D01*
G75*
G02*
X147959940Y-53016280I150000J0D01*
G01*
G37*
G36*
G01*
X146689940Y-53016280D02*
X146989940Y-53016280D01*
G75*
G02*
X147139940Y-53166280I0J-150000D01*
G01*
X147139940Y-54816280D01*
G75*
G02*
X146989940Y-54966280I-150000J0D01*
G01*
X146689940Y-54966280D01*
G75*
G02*
X146539940Y-54816280I0J150000D01*
G01*
X146539940Y-53166280D01*
G75*
G02*
X146689940Y-53016280I150000J0D01*
G01*
G37*
G36*
G01*
X145419940Y-53016280D02*
X145719940Y-53016280D01*
G75*
G02*
X145869940Y-53166280I0J-150000D01*
G01*
X145869940Y-54816280D01*
G75*
G02*
X145719940Y-54966280I-150000J0D01*
G01*
X145419940Y-54966280D01*
G75*
G02*
X145269940Y-54816280I0J150000D01*
G01*
X145269940Y-53166280D01*
G75*
G02*
X145419940Y-53016280I150000J0D01*
G01*
G37*
G36*
G01*
X145419940Y-48066280D02*
X145719940Y-48066280D01*
G75*
G02*
X145869940Y-48216280I0J-150000D01*
G01*
X145869940Y-49866280D01*
G75*
G02*
X145719940Y-50016280I-150000J0D01*
G01*
X145419940Y-50016280D01*
G75*
G02*
X145269940Y-49866280I0J150000D01*
G01*
X145269940Y-48216280D01*
G75*
G02*
X145419940Y-48066280I150000J0D01*
G01*
G37*
G36*
G01*
X146689940Y-48066280D02*
X146989940Y-48066280D01*
G75*
G02*
X147139940Y-48216280I0J-150000D01*
G01*
X147139940Y-49866280D01*
G75*
G02*
X146989940Y-50016280I-150000J0D01*
G01*
X146689940Y-50016280D01*
G75*
G02*
X146539940Y-49866280I0J150000D01*
G01*
X146539940Y-48216280D01*
G75*
G02*
X146689940Y-48066280I150000J0D01*
G01*
G37*
G36*
G01*
X147959940Y-48066280D02*
X148259940Y-48066280D01*
G75*
G02*
X148409940Y-48216280I0J-150000D01*
G01*
X148409940Y-49866280D01*
G75*
G02*
X148259940Y-50016280I-150000J0D01*
G01*
X147959940Y-50016280D01*
G75*
G02*
X147809940Y-49866280I0J150000D01*
G01*
X147809940Y-48216280D01*
G75*
G02*
X147959940Y-48066280I150000J0D01*
G01*
G37*
G36*
G01*
X149229940Y-48066280D02*
X149529940Y-48066280D01*
G75*
G02*
X149679940Y-48216280I0J-150000D01*
G01*
X149679940Y-49866280D01*
G75*
G02*
X149529940Y-50016280I-150000J0D01*
G01*
X149229940Y-50016280D01*
G75*
G02*
X149079940Y-49866280I0J150000D01*
G01*
X149079940Y-48216280D01*
G75*
G02*
X149229940Y-48066280I150000J0D01*
G01*
G37*
%TD*%
%TO.C,R25*%
G36*
G01*
X129868340Y-75325420D02*
X129318340Y-75325420D01*
G75*
G02*
X129118340Y-75125420I0J200000D01*
G01*
X129118340Y-74725420D01*
G75*
G02*
X129318340Y-74525420I200000J0D01*
G01*
X129868340Y-74525420D01*
G75*
G02*
X130068340Y-74725420I0J-200000D01*
G01*
X130068340Y-75125420D01*
G75*
G02*
X129868340Y-75325420I-200000J0D01*
G01*
G37*
G36*
G01*
X129868340Y-76975420D02*
X129318340Y-76975420D01*
G75*
G02*
X129118340Y-76775420I0J200000D01*
G01*
X129118340Y-76375420D01*
G75*
G02*
X129318340Y-76175420I200000J0D01*
G01*
X129868340Y-76175420D01*
G75*
G02*
X130068340Y-76375420I0J-200000D01*
G01*
X130068340Y-76775420D01*
G75*
G02*
X129868340Y-76975420I-200000J0D01*
G01*
G37*
%TD*%
D11*
%TO.C,J7*%
X129448560Y-82829400D03*
D12*
X126908560Y-82829400D03*
%TD*%
D13*
%TO.C,Q1*%
X128484120Y-79151480D03*
X130484120Y-78201480D03*
X130484120Y-80101480D03*
%TD*%
%TO.C,C10*%
G36*
G01*
X158654440Y-72395319D02*
X158654440Y-73695321D01*
G75*
G02*
X158404441Y-73945320I-249999J0D01*
G01*
X157754439Y-73945320D01*
G75*
G02*
X157504440Y-73695321I0J249999D01*
G01*
X157504440Y-72395319D01*
G75*
G02*
X157754439Y-72145320I249999J0D01*
G01*
X158404441Y-72145320D01*
G75*
G02*
X158654440Y-72395319I0J-249999D01*
G01*
G37*
G36*
G01*
X161604440Y-72395319D02*
X161604440Y-73695321D01*
G75*
G02*
X161354441Y-73945320I-249999J0D01*
G01*
X160704439Y-73945320D01*
G75*
G02*
X160454440Y-73695321I0J249999D01*
G01*
X160454440Y-72395319D01*
G75*
G02*
X160704439Y-72145320I249999J0D01*
G01*
X161354441Y-72145320D01*
G75*
G02*
X161604440Y-72395319I0J-249999D01*
G01*
G37*
%TD*%
%TO.C,C9*%
G36*
G01*
X158067700Y-54986159D02*
X158067700Y-56286161D01*
G75*
G02*
X157817701Y-56536160I-249999J0D01*
G01*
X157167699Y-56536160D01*
G75*
G02*
X156917700Y-56286161I0J249999D01*
G01*
X156917700Y-54986159D01*
G75*
G02*
X157167699Y-54736160I249999J0D01*
G01*
X157817701Y-54736160D01*
G75*
G02*
X158067700Y-54986159I0J-249999D01*
G01*
G37*
G36*
G01*
X161017700Y-54986159D02*
X161017700Y-56286161D01*
G75*
G02*
X160767701Y-56536160I-249999J0D01*
G01*
X160117699Y-56536160D01*
G75*
G02*
X159867700Y-56286161I0J249999D01*
G01*
X159867700Y-54986159D01*
G75*
G02*
X160117699Y-54736160I249999J0D01*
G01*
X160767701Y-54736160D01*
G75*
G02*
X161017700Y-54986159I0J-249999D01*
G01*
G37*
%TD*%
%TO.C,C2*%
G36*
G01*
X151763300Y-75740021D02*
X151763300Y-74440019D01*
G75*
G02*
X152013299Y-74190020I249999J0D01*
G01*
X152663301Y-74190020D01*
G75*
G02*
X152913300Y-74440019I0J-249999D01*
G01*
X152913300Y-75740021D01*
G75*
G02*
X152663301Y-75990020I-249999J0D01*
G01*
X152013299Y-75990020D01*
G75*
G02*
X151763300Y-75740021I0J249999D01*
G01*
G37*
G36*
G01*
X148813300Y-75740021D02*
X148813300Y-74440019D01*
G75*
G02*
X149063299Y-74190020I249999J0D01*
G01*
X149713301Y-74190020D01*
G75*
G02*
X149963300Y-74440019I0J-249999D01*
G01*
X149963300Y-75740021D01*
G75*
G02*
X149713301Y-75990020I-249999J0D01*
G01*
X149063299Y-75990020D01*
G75*
G02*
X148813300Y-75740021I0J249999D01*
G01*
G37*
%TD*%
%TO.C,C1*%
G36*
G01*
X151047020Y-58470561D02*
X151047020Y-57170559D01*
G75*
G02*
X151297019Y-56920560I249999J0D01*
G01*
X151947021Y-56920560D01*
G75*
G02*
X152197020Y-57170559I0J-249999D01*
G01*
X152197020Y-58470561D01*
G75*
G02*
X151947021Y-58720560I-249999J0D01*
G01*
X151297019Y-58720560D01*
G75*
G02*
X151047020Y-58470561I0J249999D01*
G01*
G37*
G36*
G01*
X148097020Y-58470561D02*
X148097020Y-57170559D01*
G75*
G02*
X148347019Y-56920560I249999J0D01*
G01*
X148997021Y-56920560D01*
G75*
G02*
X149247020Y-57170559I0J-249999D01*
G01*
X149247020Y-58470561D01*
G75*
G02*
X148997021Y-58720560I-249999J0D01*
G01*
X148347019Y-58720560D01*
G75*
G02*
X148097020Y-58470561I0J249999D01*
G01*
G37*
%TD*%
%TO.C,C6*%
G36*
G01*
X146941560Y-62506480D02*
X145991560Y-62506480D01*
G75*
G02*
X145741560Y-62256480I0J250000D01*
G01*
X145741560Y-61756480D01*
G75*
G02*
X145991560Y-61506480I250000J0D01*
G01*
X146941560Y-61506480D01*
G75*
G02*
X147191560Y-61756480I0J-250000D01*
G01*
X147191560Y-62256480D01*
G75*
G02*
X146941560Y-62506480I-250000J0D01*
G01*
G37*
G36*
G01*
X146941560Y-64406480D02*
X145991560Y-64406480D01*
G75*
G02*
X145741560Y-64156480I0J250000D01*
G01*
X145741560Y-63656480D01*
G75*
G02*
X145991560Y-63406480I250000J0D01*
G01*
X146941560Y-63406480D01*
G75*
G02*
X147191560Y-63656480I0J-250000D01*
G01*
X147191560Y-64156480D01*
G75*
G02*
X146941560Y-64406480I-250000J0D01*
G01*
G37*
%TD*%
D14*
%TO.C,J2*%
X86089300Y-69663660D03*
X86089300Y-71953660D03*
X86089300Y-81093660D03*
X86089300Y-83383660D03*
D15*
X80379300Y-84653660D03*
X80379300Y-68393660D03*
D16*
X76949300Y-70173660D03*
X76949300Y-82873660D03*
D14*
X81269300Y-72971660D03*
X81269300Y-75003660D03*
X81269300Y-77035660D03*
X81269300Y-79067660D03*
X79489300Y-73987660D03*
X79489300Y-76019660D03*
X79489300Y-78051660D03*
D17*
X79489300Y-80083660D03*
%TD*%
D18*
%TO.C,TR1*%
X110595280Y-82093440D03*
X108595280Y-82093440D03*
X106595280Y-82093440D03*
X104595280Y-82093440D03*
X102595280Y-82093440D03*
X100595280Y-82093440D03*
X100595280Y-77093440D03*
X102595280Y-77093440D03*
X104595280Y-77093440D03*
X106595280Y-77093440D03*
X108595280Y-77093440D03*
D19*
X110595280Y-77093440D03*
%TD*%
D11*
%TO.C,J4*%
X92163900Y-56255920D03*
X92163900Y-53715920D03*
D12*
X92163900Y-51175920D03*
%TD*%
%TO.C,J3*%
G36*
G01*
X80649880Y-47700900D02*
X80649880Y-45950900D01*
G75*
G02*
X81524880Y-45075900I875000J0D01*
G01*
X83274880Y-45075900D01*
G75*
G02*
X84149880Y-45950900I0J-875000D01*
G01*
X84149880Y-47700900D01*
G75*
G02*
X83274880Y-48575900I-875000J0D01*
G01*
X81524880Y-48575900D01*
G75*
G02*
X80649880Y-47700900I0J875000D01*
G01*
G37*
G36*
G01*
X77899880Y-43125900D02*
X77899880Y-41125900D01*
G75*
G02*
X78649880Y-40375900I750000J0D01*
G01*
X80149880Y-40375900D01*
G75*
G02*
X80899880Y-41125900I0J-750000D01*
G01*
X80899880Y-43125900D01*
G75*
G02*
X80149880Y-43875900I-750000J0D01*
G01*
X78649880Y-43875900D01*
G75*
G02*
X77899880Y-43125900I0J750000D01*
G01*
G37*
D20*
X85399880Y-42125900D03*
%TD*%
D21*
%TO.C,J1*%
X73310000Y-50890000D03*
X73310000Y-64030000D03*
D17*
X73660000Y-60960000D03*
D14*
X73660000Y-58460000D03*
X73660000Y-56460000D03*
X73660000Y-53960000D03*
D21*
X78990000Y-64030000D03*
X78990000Y-50890000D03*
D14*
X76280000Y-60960000D03*
X76280000Y-58460000D03*
X76280000Y-56460000D03*
X76280000Y-53960000D03*
%TD*%
%TO.C,R24*%
G36*
G01*
X92619140Y-48029282D02*
X92619140Y-47129278D01*
G75*
G02*
X92869138Y-46879280I249998J0D01*
G01*
X93394142Y-46879280D01*
G75*
G02*
X93644140Y-47129278I0J-249998D01*
G01*
X93644140Y-48029282D01*
G75*
G02*
X93394142Y-48279280I-249998J0D01*
G01*
X92869138Y-48279280D01*
G75*
G02*
X92619140Y-48029282I0J249998D01*
G01*
G37*
G36*
G01*
X90794140Y-48029282D02*
X90794140Y-47129278D01*
G75*
G02*
X91044138Y-46879280I249998J0D01*
G01*
X91569142Y-46879280D01*
G75*
G02*
X91819140Y-47129278I0J-249998D01*
G01*
X91819140Y-48029282D01*
G75*
G02*
X91569142Y-48279280I-249998J0D01*
G01*
X91044138Y-48279280D01*
G75*
G02*
X90794140Y-48029282I0J249998D01*
G01*
G37*
%TD*%
D22*
%TO.C,D5*%
X128573940Y-52471060D03*
X127173940Y-52471060D03*
X125773940Y-52471060D03*
X124373940Y-52471060D03*
X122973940Y-52471060D03*
X121573940Y-52471060D03*
X120173940Y-52471060D03*
X118773940Y-52471060D03*
X117373940Y-52471060D03*
X115973940Y-52471060D03*
X114573940Y-52471060D03*
X113173940Y-52471060D03*
X111773940Y-52471060D03*
X110373940Y-52471060D03*
X108973940Y-52471060D03*
X107573940Y-52471060D03*
X106173940Y-52471060D03*
X104773940Y-52471060D03*
X103373940Y-52471060D03*
X101973940Y-52471060D03*
X100573940Y-52471060D03*
X99173940Y-52471060D03*
X97773940Y-52471060D03*
D23*
X96473940Y-55471060D03*
X96473940Y-56871060D03*
X96473940Y-58271060D03*
X96473940Y-59671060D03*
X96473940Y-61071060D03*
X96473940Y-62471060D03*
X96473940Y-63871060D03*
X96473940Y-65271060D03*
X96473940Y-66671060D03*
X96473940Y-68071060D03*
D22*
X97773940Y-71171060D03*
X99173940Y-71171060D03*
X100573940Y-71171060D03*
X101973940Y-71171060D03*
X103373940Y-71171060D03*
X104773940Y-71171060D03*
X106173940Y-71171060D03*
X107573940Y-71171060D03*
X108973940Y-71171060D03*
X110373940Y-71171060D03*
X111773940Y-71171060D03*
X113173940Y-71171060D03*
X114573940Y-71171060D03*
X115973940Y-71171060D03*
X117373940Y-71171060D03*
X118773940Y-71171060D03*
X120173940Y-71171060D03*
X121573940Y-71171060D03*
X122973940Y-71171060D03*
X124373940Y-71171060D03*
X125773940Y-71171060D03*
X127173940Y-71171060D03*
X128573940Y-71171060D03*
D24*
X125723940Y-64371060D03*
X125723940Y-57771060D03*
D25*
X110473940Y-62071060D03*
%TD*%
%TO.C,D6*%
G36*
G01*
X102054599Y-43539960D02*
X104904601Y-43539960D01*
G75*
G02*
X105154600Y-43789959I0J-249999D01*
G01*
X105154600Y-44639961D01*
G75*
G02*
X104904601Y-44889960I-249999J0D01*
G01*
X102054599Y-44889960D01*
G75*
G02*
X101804600Y-44639961I0J249999D01*
G01*
X101804600Y-43789959D01*
G75*
G02*
X102054599Y-43539960I249999J0D01*
G01*
G37*
G36*
G01*
X102054599Y-37739960D02*
X104904601Y-37739960D01*
G75*
G02*
X105154600Y-37989959I0J-249999D01*
G01*
X105154600Y-38839961D01*
G75*
G02*
X104904601Y-39089960I-249999J0D01*
G01*
X102054599Y-39089960D01*
G75*
G02*
X101804600Y-38839961I0J249999D01*
G01*
X101804600Y-37989959D01*
G75*
G02*
X102054599Y-37739960I249999J0D01*
G01*
G37*
%TD*%
%TO.C,D4*%
G36*
G01*
X154571540Y-69618240D02*
X155821540Y-69618240D01*
G75*
G02*
X156071540Y-69868240I0J-250000D01*
G01*
X156071540Y-70618240D01*
G75*
G02*
X155821540Y-70868240I-250000J0D01*
G01*
X154571540Y-70868240D01*
G75*
G02*
X154321540Y-70618240I0J250000D01*
G01*
X154321540Y-69868240D01*
G75*
G02*
X154571540Y-69618240I250000J0D01*
G01*
G37*
G36*
G01*
X154571540Y-72418240D02*
X155821540Y-72418240D01*
G75*
G02*
X156071540Y-72668240I0J-250000D01*
G01*
X156071540Y-73418240D01*
G75*
G02*
X155821540Y-73668240I-250000J0D01*
G01*
X154571540Y-73668240D01*
G75*
G02*
X154321540Y-73418240I0J250000D01*
G01*
X154321540Y-72668240D01*
G75*
G02*
X154571540Y-72418240I250000J0D01*
G01*
G37*
%TD*%
%TO.C,D3*%
G36*
G01*
X153931460Y-55075120D02*
X155181460Y-55075120D01*
G75*
G02*
X155431460Y-55325120I0J-250000D01*
G01*
X155431460Y-56075120D01*
G75*
G02*
X155181460Y-56325120I-250000J0D01*
G01*
X153931460Y-56325120D01*
G75*
G02*
X153681460Y-56075120I0J250000D01*
G01*
X153681460Y-55325120D01*
G75*
G02*
X153931460Y-55075120I250000J0D01*
G01*
G37*
G36*
G01*
X153931460Y-52275120D02*
X155181460Y-52275120D01*
G75*
G02*
X155431460Y-52525120I0J-250000D01*
G01*
X155431460Y-53275120D01*
G75*
G02*
X155181460Y-53525120I-250000J0D01*
G01*
X153931460Y-53525120D01*
G75*
G02*
X153681460Y-53275120I0J250000D01*
G01*
X153681460Y-52525120D01*
G75*
G02*
X153931460Y-52275120I250000J0D01*
G01*
G37*
%TD*%
D26*
%TO.C,L2*%
X159252520Y-65105280D03*
X152852520Y-65105280D03*
%TD*%
%TO.C,L1*%
X158719120Y-47754540D03*
X152319120Y-47754540D03*
%TD*%
D27*
%TO.C,SW1*%
X114323360Y-80777080D03*
X121053360Y-80777080D03*
%TD*%
%TO.C,R23*%
G36*
G01*
X89889780Y-71312360D02*
X89889780Y-71862360D01*
G75*
G02*
X89689780Y-72062360I-200000J0D01*
G01*
X89289780Y-72062360D01*
G75*
G02*
X89089780Y-71862360I0J200000D01*
G01*
X89089780Y-71312360D01*
G75*
G02*
X89289780Y-71112360I200000J0D01*
G01*
X89689780Y-71112360D01*
G75*
G02*
X89889780Y-71312360I0J-200000D01*
G01*
G37*
G36*
G01*
X91539780Y-71312360D02*
X91539780Y-71862360D01*
G75*
G02*
X91339780Y-72062360I-200000J0D01*
G01*
X90939780Y-72062360D01*
G75*
G02*
X90739780Y-71862360I0J200000D01*
G01*
X90739780Y-71312360D01*
G75*
G02*
X90939780Y-71112360I200000J0D01*
G01*
X91339780Y-71112360D01*
G75*
G02*
X91539780Y-71312360I0J-200000D01*
G01*
G37*
%TD*%
%TO.C,R22*%
G36*
G01*
X89882160Y-69737560D02*
X89882160Y-70287560D01*
G75*
G02*
X89682160Y-70487560I-200000J0D01*
G01*
X89282160Y-70487560D01*
G75*
G02*
X89082160Y-70287560I0J200000D01*
G01*
X89082160Y-69737560D01*
G75*
G02*
X89282160Y-69537560I200000J0D01*
G01*
X89682160Y-69537560D01*
G75*
G02*
X89882160Y-69737560I0J-200000D01*
G01*
G37*
G36*
G01*
X91532160Y-69737560D02*
X91532160Y-70287560D01*
G75*
G02*
X91332160Y-70487560I-200000J0D01*
G01*
X90932160Y-70487560D01*
G75*
G02*
X90732160Y-70287560I0J200000D01*
G01*
X90732160Y-69737560D01*
G75*
G02*
X90932160Y-69537560I200000J0D01*
G01*
X91332160Y-69537560D01*
G75*
G02*
X91532160Y-69737560I0J-200000D01*
G01*
G37*
%TD*%
%TO.C,R19*%
G36*
G01*
X111573900Y-47554200D02*
X112123900Y-47554200D01*
G75*
G02*
X112323900Y-47754200I0J-200000D01*
G01*
X112323900Y-48154200D01*
G75*
G02*
X112123900Y-48354200I-200000J0D01*
G01*
X111573900Y-48354200D01*
G75*
G02*
X111373900Y-48154200I0J200000D01*
G01*
X111373900Y-47754200D01*
G75*
G02*
X111573900Y-47554200I200000J0D01*
G01*
G37*
G36*
G01*
X111573900Y-45904200D02*
X112123900Y-45904200D01*
G75*
G02*
X112323900Y-46104200I0J-200000D01*
G01*
X112323900Y-46504200D01*
G75*
G02*
X112123900Y-46704200I-200000J0D01*
G01*
X111573900Y-46704200D01*
G75*
G02*
X111373900Y-46504200I0J200000D01*
G01*
X111373900Y-46104200D01*
G75*
G02*
X111573900Y-45904200I200000J0D01*
G01*
G37*
%TD*%
%TO.C,R17*%
G36*
G01*
X131464500Y-40949200D02*
X131464500Y-41499200D01*
G75*
G02*
X131264500Y-41699200I-200000J0D01*
G01*
X130864500Y-41699200D01*
G75*
G02*
X130664500Y-41499200I0J200000D01*
G01*
X130664500Y-40949200D01*
G75*
G02*
X130864500Y-40749200I200000J0D01*
G01*
X131264500Y-40749200D01*
G75*
G02*
X131464500Y-40949200I0J-200000D01*
G01*
G37*
G36*
G01*
X133114500Y-40949200D02*
X133114500Y-41499200D01*
G75*
G02*
X132914500Y-41699200I-200000J0D01*
G01*
X132514500Y-41699200D01*
G75*
G02*
X132314500Y-41499200I0J200000D01*
G01*
X132314500Y-40949200D01*
G75*
G02*
X132514500Y-40749200I200000J0D01*
G01*
X132914500Y-40749200D01*
G75*
G02*
X133114500Y-40949200I0J-200000D01*
G01*
G37*
%TD*%
%TO.C,R11*%
G36*
G01*
X141930440Y-48789000D02*
X141930440Y-48239000D01*
G75*
G02*
X142130440Y-48039000I200000J0D01*
G01*
X142530440Y-48039000D01*
G75*
G02*
X142730440Y-48239000I0J-200000D01*
G01*
X142730440Y-48789000D01*
G75*
G02*
X142530440Y-48989000I-200000J0D01*
G01*
X142130440Y-48989000D01*
G75*
G02*
X141930440Y-48789000I0J200000D01*
G01*
G37*
G36*
G01*
X140280440Y-48789000D02*
X140280440Y-48239000D01*
G75*
G02*
X140480440Y-48039000I200000J0D01*
G01*
X140880440Y-48039000D01*
G75*
G02*
X141080440Y-48239000I0J-200000D01*
G01*
X141080440Y-48789000D01*
G75*
G02*
X140880440Y-48989000I-200000J0D01*
G01*
X140480440Y-48989000D01*
G75*
G02*
X140280440Y-48789000I0J200000D01*
G01*
G37*
%TD*%
%TO.C,R10*%
G36*
G01*
X143603300Y-67081720D02*
X144153300Y-67081720D01*
G75*
G02*
X144353300Y-67281720I0J-200000D01*
G01*
X144353300Y-67681720D01*
G75*
G02*
X144153300Y-67881720I-200000J0D01*
G01*
X143603300Y-67881720D01*
G75*
G02*
X143403300Y-67681720I0J200000D01*
G01*
X143403300Y-67281720D01*
G75*
G02*
X143603300Y-67081720I200000J0D01*
G01*
G37*
G36*
G01*
X143603300Y-65431720D02*
X144153300Y-65431720D01*
G75*
G02*
X144353300Y-65631720I0J-200000D01*
G01*
X144353300Y-66031720D01*
G75*
G02*
X144153300Y-66231720I-200000J0D01*
G01*
X143603300Y-66231720D01*
G75*
G02*
X143403300Y-66031720I0J200000D01*
G01*
X143403300Y-65631720D01*
G75*
G02*
X143603300Y-65431720I200000J0D01*
G01*
G37*
%TD*%
%TO.C,R9*%
G36*
G01*
X143636320Y-49667480D02*
X144186320Y-49667480D01*
G75*
G02*
X144386320Y-49867480I0J-200000D01*
G01*
X144386320Y-50267480D01*
G75*
G02*
X144186320Y-50467480I-200000J0D01*
G01*
X143636320Y-50467480D01*
G75*
G02*
X143436320Y-50267480I0J200000D01*
G01*
X143436320Y-49867480D01*
G75*
G02*
X143636320Y-49667480I200000J0D01*
G01*
G37*
G36*
G01*
X143636320Y-48017480D02*
X144186320Y-48017480D01*
G75*
G02*
X144386320Y-48217480I0J-200000D01*
G01*
X144386320Y-48617480D01*
G75*
G02*
X144186320Y-48817480I-200000J0D01*
G01*
X143636320Y-48817480D01*
G75*
G02*
X143436320Y-48617480I0J200000D01*
G01*
X143436320Y-48217480D01*
G75*
G02*
X143636320Y-48017480I200000J0D01*
G01*
G37*
%TD*%
%TO.C,R5*%
G36*
G01*
X148577980Y-62749380D02*
X148027980Y-62749380D01*
G75*
G02*
X147827980Y-62549380I0J200000D01*
G01*
X147827980Y-62149380D01*
G75*
G02*
X148027980Y-61949380I200000J0D01*
G01*
X148577980Y-61949380D01*
G75*
G02*
X148777980Y-62149380I0J-200000D01*
G01*
X148777980Y-62549380D01*
G75*
G02*
X148577980Y-62749380I-200000J0D01*
G01*
G37*
G36*
G01*
X148577980Y-64399380D02*
X148027980Y-64399380D01*
G75*
G02*
X147827980Y-64199380I0J200000D01*
G01*
X147827980Y-63799380D01*
G75*
G02*
X148027980Y-63599380I200000J0D01*
G01*
X148577980Y-63599380D01*
G75*
G02*
X148777980Y-63799380I0J-200000D01*
G01*
X148777980Y-64199380D01*
G75*
G02*
X148577980Y-64399380I-200000J0D01*
G01*
G37*
%TD*%
D11*
%TO.C,J6*%
X117711220Y-43136820D03*
X115171220Y-43136820D03*
D12*
X112631220Y-43136820D03*
%TD*%
D11*
%TO.C,J5*%
X126657100Y-43101260D03*
X124117100Y-43101260D03*
D12*
X121577100Y-43101260D03*
%TD*%
%TO.C,F1*%
G36*
G01*
X100658881Y-39090320D02*
X99858879Y-39090320D01*
G75*
G02*
X99608880Y-38840321I0J249999D01*
G01*
X99608880Y-38015319D01*
G75*
G02*
X99858879Y-37765320I249999J0D01*
G01*
X100658881Y-37765320D01*
G75*
G02*
X100908880Y-38015319I0J-249999D01*
G01*
X100908880Y-38840321D01*
G75*
G02*
X100658881Y-39090320I-249999J0D01*
G01*
G37*
G36*
G01*
X100658881Y-41015320D02*
X99858879Y-41015320D01*
G75*
G02*
X99608880Y-40765321I0J249999D01*
G01*
X99608880Y-39940319D01*
G75*
G02*
X99858879Y-39690320I249999J0D01*
G01*
X100658881Y-39690320D01*
G75*
G02*
X100908880Y-39940319I0J-249999D01*
G01*
X100908880Y-40765321D01*
G75*
G02*
X100658881Y-41015320I-249999J0D01*
G01*
G37*
%TD*%
%TO.C,D7*%
G36*
G01*
X135697140Y-41949690D02*
X135697140Y-41037190D01*
G75*
G02*
X135940890Y-40793440I243750J0D01*
G01*
X136428390Y-40793440D01*
G75*
G02*
X136672140Y-41037190I0J-243750D01*
G01*
X136672140Y-41949690D01*
G75*
G02*
X136428390Y-42193440I-243750J0D01*
G01*
X135940890Y-42193440D01*
G75*
G02*
X135697140Y-41949690I0J243750D01*
G01*
G37*
G36*
G01*
X133822140Y-41949690D02*
X133822140Y-41037190D01*
G75*
G02*
X134065890Y-40793440I243750J0D01*
G01*
X134553390Y-40793440D01*
G75*
G02*
X134797140Y-41037190I0J-243750D01*
G01*
X134797140Y-41949690D01*
G75*
G02*
X134553390Y-42193440I-243750J0D01*
G01*
X134065890Y-42193440D01*
G75*
G02*
X133822140Y-41949690I0J243750D01*
G01*
G37*
%TD*%
%TO.C,C12*%
G36*
G01*
X108176040Y-39814960D02*
X109126040Y-39814960D01*
G75*
G02*
X109376040Y-40064960I0J-250000D01*
G01*
X109376040Y-40564960D01*
G75*
G02*
X109126040Y-40814960I-250000J0D01*
G01*
X108176040Y-40814960D01*
G75*
G02*
X107926040Y-40564960I0J250000D01*
G01*
X107926040Y-40064960D01*
G75*
G02*
X108176040Y-39814960I250000J0D01*
G01*
G37*
G36*
G01*
X108176040Y-37914960D02*
X109126040Y-37914960D01*
G75*
G02*
X109376040Y-38164960I0J-250000D01*
G01*
X109376040Y-38664960D01*
G75*
G02*
X109126040Y-38914960I-250000J0D01*
G01*
X108176040Y-38914960D01*
G75*
G02*
X107926040Y-38664960I0J250000D01*
G01*
X107926040Y-38164960D01*
G75*
G02*
X108176040Y-37914960I250000J0D01*
G01*
G37*
%TD*%
%TO.C,C16*%
G36*
G01*
X127958000Y-49098220D02*
X127958000Y-48148220D01*
G75*
G02*
X128208000Y-47898220I250000J0D01*
G01*
X128708000Y-47898220D01*
G75*
G02*
X128958000Y-48148220I0J-250000D01*
G01*
X128958000Y-49098220D01*
G75*
G02*
X128708000Y-49348220I-250000J0D01*
G01*
X128208000Y-49348220D01*
G75*
G02*
X127958000Y-49098220I0J250000D01*
G01*
G37*
G36*
G01*
X126058000Y-49098220D02*
X126058000Y-48148220D01*
G75*
G02*
X126308000Y-47898220I250000J0D01*
G01*
X126808000Y-47898220D01*
G75*
G02*
X127058000Y-48148220I0J-250000D01*
G01*
X127058000Y-49098220D01*
G75*
G02*
X126808000Y-49348220I-250000J0D01*
G01*
X126308000Y-49348220D01*
G75*
G02*
X126058000Y-49098220I0J250000D01*
G01*
G37*
%TD*%
%TO.C,R21*%
G36*
G01*
X113240140Y-47554200D02*
X113790140Y-47554200D01*
G75*
G02*
X113990140Y-47754200I0J-200000D01*
G01*
X113990140Y-48154200D01*
G75*
G02*
X113790140Y-48354200I-200000J0D01*
G01*
X113240140Y-48354200D01*
G75*
G02*
X113040140Y-48154200I0J200000D01*
G01*
X113040140Y-47754200D01*
G75*
G02*
X113240140Y-47554200I200000J0D01*
G01*
G37*
G36*
G01*
X113240140Y-45904200D02*
X113790140Y-45904200D01*
G75*
G02*
X113990140Y-46104200I0J-200000D01*
G01*
X113990140Y-46504200D01*
G75*
G02*
X113790140Y-46704200I-200000J0D01*
G01*
X113240140Y-46704200D01*
G75*
G02*
X113040140Y-46504200I0J200000D01*
G01*
X113040140Y-46104200D01*
G75*
G02*
X113240140Y-45904200I200000J0D01*
G01*
G37*
%TD*%
%TO.C,R20*%
G36*
G01*
X119519020Y-47554200D02*
X120069020Y-47554200D01*
G75*
G02*
X120269020Y-47754200I0J-200000D01*
G01*
X120269020Y-48154200D01*
G75*
G02*
X120069020Y-48354200I-200000J0D01*
G01*
X119519020Y-48354200D01*
G75*
G02*
X119319020Y-48154200I0J200000D01*
G01*
X119319020Y-47754200D01*
G75*
G02*
X119519020Y-47554200I200000J0D01*
G01*
G37*
G36*
G01*
X119519020Y-45904200D02*
X120069020Y-45904200D01*
G75*
G02*
X120269020Y-46104200I0J-200000D01*
G01*
X120269020Y-46504200D01*
G75*
G02*
X120069020Y-46704200I-200000J0D01*
G01*
X119519020Y-46704200D01*
G75*
G02*
X119319020Y-46504200I0J200000D01*
G01*
X119319020Y-46104200D01*
G75*
G02*
X119519020Y-45904200I200000J0D01*
G01*
G37*
%TD*%
%TO.C,R18*%
G36*
G01*
X117903580Y-47554200D02*
X118453580Y-47554200D01*
G75*
G02*
X118653580Y-47754200I0J-200000D01*
G01*
X118653580Y-48154200D01*
G75*
G02*
X118453580Y-48354200I-200000J0D01*
G01*
X117903580Y-48354200D01*
G75*
G02*
X117703580Y-48154200I0J200000D01*
G01*
X117703580Y-47754200D01*
G75*
G02*
X117903580Y-47554200I200000J0D01*
G01*
G37*
G36*
G01*
X117903580Y-45904200D02*
X118453580Y-45904200D01*
G75*
G02*
X118653580Y-46104200I0J-200000D01*
G01*
X118653580Y-46504200D01*
G75*
G02*
X118453580Y-46704200I-200000J0D01*
G01*
X117903580Y-46704200D01*
G75*
G02*
X117703580Y-46504200I0J200000D01*
G01*
X117703580Y-46104200D01*
G75*
G02*
X117903580Y-45904200I200000J0D01*
G01*
G37*
%TD*%
%TO.C,R16*%
G36*
G01*
X91831840Y-62147400D02*
X91281840Y-62147400D01*
G75*
G02*
X91081840Y-61947400I0J200000D01*
G01*
X91081840Y-61547400D01*
G75*
G02*
X91281840Y-61347400I200000J0D01*
G01*
X91831840Y-61347400D01*
G75*
G02*
X92031840Y-61547400I0J-200000D01*
G01*
X92031840Y-61947400D01*
G75*
G02*
X91831840Y-62147400I-200000J0D01*
G01*
G37*
G36*
G01*
X91831840Y-63797400D02*
X91281840Y-63797400D01*
G75*
G02*
X91081840Y-63597400I0J200000D01*
G01*
X91081840Y-63197400D01*
G75*
G02*
X91281840Y-62997400I200000J0D01*
G01*
X91831840Y-62997400D01*
G75*
G02*
X92031840Y-63197400I0J-200000D01*
G01*
X92031840Y-63597400D01*
G75*
G02*
X91831840Y-63797400I-200000J0D01*
G01*
G37*
%TD*%
%TO.C,R15*%
G36*
G01*
X93452360Y-62147400D02*
X92902360Y-62147400D01*
G75*
G02*
X92702360Y-61947400I0J200000D01*
G01*
X92702360Y-61547400D01*
G75*
G02*
X92902360Y-61347400I200000J0D01*
G01*
X93452360Y-61347400D01*
G75*
G02*
X93652360Y-61547400I0J-200000D01*
G01*
X93652360Y-61947400D01*
G75*
G02*
X93452360Y-62147400I-200000J0D01*
G01*
G37*
G36*
G01*
X93452360Y-63797400D02*
X92902360Y-63797400D01*
G75*
G02*
X92702360Y-63597400I0J200000D01*
G01*
X92702360Y-63197400D01*
G75*
G02*
X92902360Y-62997400I200000J0D01*
G01*
X93452360Y-62997400D01*
G75*
G02*
X93652360Y-63197400I0J-200000D01*
G01*
X93652360Y-63597400D01*
G75*
G02*
X93452360Y-63797400I-200000J0D01*
G01*
G37*
%TD*%
%TO.C,R14*%
G36*
G01*
X89882160Y-66481280D02*
X89882160Y-67031280D01*
G75*
G02*
X89682160Y-67231280I-200000J0D01*
G01*
X89282160Y-67231280D01*
G75*
G02*
X89082160Y-67031280I0J200000D01*
G01*
X89082160Y-66481280D01*
G75*
G02*
X89282160Y-66281280I200000J0D01*
G01*
X89682160Y-66281280D01*
G75*
G02*
X89882160Y-66481280I0J-200000D01*
G01*
G37*
G36*
G01*
X91532160Y-66481280D02*
X91532160Y-67031280D01*
G75*
G02*
X91332160Y-67231280I-200000J0D01*
G01*
X90932160Y-67231280D01*
G75*
G02*
X90732160Y-67031280I0J200000D01*
G01*
X90732160Y-66481280D01*
G75*
G02*
X90932160Y-66281280I200000J0D01*
G01*
X91332160Y-66281280D01*
G75*
G02*
X91532160Y-66481280I0J-200000D01*
G01*
G37*
%TD*%
%TO.C,R13*%
G36*
G01*
X90732160Y-68634020D02*
X90732160Y-68084020D01*
G75*
G02*
X90932160Y-67884020I200000J0D01*
G01*
X91332160Y-67884020D01*
G75*
G02*
X91532160Y-68084020I0J-200000D01*
G01*
X91532160Y-68634020D01*
G75*
G02*
X91332160Y-68834020I-200000J0D01*
G01*
X90932160Y-68834020D01*
G75*
G02*
X90732160Y-68634020I0J200000D01*
G01*
G37*
G36*
G01*
X89082160Y-68634020D02*
X89082160Y-68084020D01*
G75*
G02*
X89282160Y-67884020I200000J0D01*
G01*
X89682160Y-67884020D01*
G75*
G02*
X89882160Y-68084020I0J-200000D01*
G01*
X89882160Y-68634020D01*
G75*
G02*
X89682160Y-68834020I-200000J0D01*
G01*
X89282160Y-68834020D01*
G75*
G02*
X89082160Y-68634020I0J200000D01*
G01*
G37*
%TD*%
%TO.C,R12*%
G36*
G01*
X141927900Y-66193080D02*
X141927900Y-65643080D01*
G75*
G02*
X142127900Y-65443080I200000J0D01*
G01*
X142527900Y-65443080D01*
G75*
G02*
X142727900Y-65643080I0J-200000D01*
G01*
X142727900Y-66193080D01*
G75*
G02*
X142527900Y-66393080I-200000J0D01*
G01*
X142127900Y-66393080D01*
G75*
G02*
X141927900Y-66193080I0J200000D01*
G01*
G37*
G36*
G01*
X140277900Y-66193080D02*
X140277900Y-65643080D01*
G75*
G02*
X140477900Y-65443080I200000J0D01*
G01*
X140877900Y-65443080D01*
G75*
G02*
X141077900Y-65643080I0J-200000D01*
G01*
X141077900Y-66193080D01*
G75*
G02*
X140877900Y-66393080I-200000J0D01*
G01*
X140477900Y-66393080D01*
G75*
G02*
X140277900Y-66193080I0J200000D01*
G01*
G37*
%TD*%
%TO.C,R8*%
G36*
G01*
X144767980Y-62331280D02*
X144217980Y-62331280D01*
G75*
G02*
X144017980Y-62131280I0J200000D01*
G01*
X144017980Y-61731280D01*
G75*
G02*
X144217980Y-61531280I200000J0D01*
G01*
X144767980Y-61531280D01*
G75*
G02*
X144967980Y-61731280I0J-200000D01*
G01*
X144967980Y-62131280D01*
G75*
G02*
X144767980Y-62331280I-200000J0D01*
G01*
G37*
G36*
G01*
X144767980Y-63981280D02*
X144217980Y-63981280D01*
G75*
G02*
X144017980Y-63781280I0J200000D01*
G01*
X144017980Y-63381280D01*
G75*
G02*
X144217980Y-63181280I200000J0D01*
G01*
X144767980Y-63181280D01*
G75*
G02*
X144967980Y-63381280I0J-200000D01*
G01*
X144967980Y-63781280D01*
G75*
G02*
X144767980Y-63981280I-200000J0D01*
G01*
G37*
%TD*%
%TO.C,R7*%
G36*
G01*
X144183415Y-45001380D02*
X143633415Y-45001380D01*
G75*
G02*
X143433415Y-44801380I0J200000D01*
G01*
X143433415Y-44401380D01*
G75*
G02*
X143633415Y-44201380I200000J0D01*
G01*
X144183415Y-44201380D01*
G75*
G02*
X144383415Y-44401380I0J-200000D01*
G01*
X144383415Y-44801380D01*
G75*
G02*
X144183415Y-45001380I-200000J0D01*
G01*
G37*
G36*
G01*
X144183415Y-46651380D02*
X143633415Y-46651380D01*
G75*
G02*
X143433415Y-46451380I0J200000D01*
G01*
X143433415Y-46051380D01*
G75*
G02*
X143633415Y-45851380I200000J0D01*
G01*
X144183415Y-45851380D01*
G75*
G02*
X144383415Y-46051380I0J-200000D01*
G01*
X144383415Y-46451380D01*
G75*
G02*
X144183415Y-46651380I-200000J0D01*
G01*
G37*
%TD*%
%TO.C,R6*%
G36*
G01*
X145874420Y-73438340D02*
X145874420Y-73988340D01*
G75*
G02*
X145674420Y-74188340I-200000J0D01*
G01*
X145274420Y-74188340D01*
G75*
G02*
X145074420Y-73988340I0J200000D01*
G01*
X145074420Y-73438340D01*
G75*
G02*
X145274420Y-73238340I200000J0D01*
G01*
X145674420Y-73238340D01*
G75*
G02*
X145874420Y-73438340I0J-200000D01*
G01*
G37*
G36*
G01*
X147524420Y-73438340D02*
X147524420Y-73988340D01*
G75*
G02*
X147324420Y-74188340I-200000J0D01*
G01*
X146924420Y-74188340D01*
G75*
G02*
X146724420Y-73988340I0J200000D01*
G01*
X146724420Y-73438340D01*
G75*
G02*
X146924420Y-73238340I200000J0D01*
G01*
X147324420Y-73238340D01*
G75*
G02*
X147524420Y-73438340I0J-200000D01*
G01*
G37*
%TD*%
%TO.C,R4*%
G36*
G01*
X149704380Y-63612580D02*
X150254380Y-63612580D01*
G75*
G02*
X150454380Y-63812580I0J-200000D01*
G01*
X150454380Y-64212580D01*
G75*
G02*
X150254380Y-64412580I-200000J0D01*
G01*
X149704380Y-64412580D01*
G75*
G02*
X149504380Y-64212580I0J200000D01*
G01*
X149504380Y-63812580D01*
G75*
G02*
X149704380Y-63612580I200000J0D01*
G01*
G37*
G36*
G01*
X149704380Y-61962580D02*
X150254380Y-61962580D01*
G75*
G02*
X150454380Y-62162580I0J-200000D01*
G01*
X150454380Y-62562580D01*
G75*
G02*
X150254380Y-62762580I-200000J0D01*
G01*
X149704380Y-62762580D01*
G75*
G02*
X149504380Y-62562580I0J200000D01*
G01*
X149504380Y-62162580D01*
G75*
G02*
X149704380Y-61962580I200000J0D01*
G01*
G37*
%TD*%
%TO.C,R3*%
G36*
G01*
X145757580Y-56156180D02*
X145757580Y-56706180D01*
G75*
G02*
X145557580Y-56906180I-200000J0D01*
G01*
X145157580Y-56906180D01*
G75*
G02*
X144957580Y-56706180I0J200000D01*
G01*
X144957580Y-56156180D01*
G75*
G02*
X145157580Y-55956180I200000J0D01*
G01*
X145557580Y-55956180D01*
G75*
G02*
X145757580Y-56156180I0J-200000D01*
G01*
G37*
G36*
G01*
X147407580Y-56156180D02*
X147407580Y-56706180D01*
G75*
G02*
X147207580Y-56906180I-200000J0D01*
G01*
X146807580Y-56906180D01*
G75*
G02*
X146607580Y-56706180I0J200000D01*
G01*
X146607580Y-56156180D01*
G75*
G02*
X146807580Y-55956180I200000J0D01*
G01*
X147207580Y-55956180D01*
G75*
G02*
X147407580Y-56156180I0J-200000D01*
G01*
G37*
%TD*%
%TO.C,R2*%
G36*
G01*
X148181740Y-44982080D02*
X147631740Y-44982080D01*
G75*
G02*
X147431740Y-44782080I0J200000D01*
G01*
X147431740Y-44382080D01*
G75*
G02*
X147631740Y-44182080I200000J0D01*
G01*
X148181740Y-44182080D01*
G75*
G02*
X148381740Y-44382080I0J-200000D01*
G01*
X148381740Y-44782080D01*
G75*
G02*
X148181740Y-44982080I-200000J0D01*
G01*
G37*
G36*
G01*
X148181740Y-46632080D02*
X147631740Y-46632080D01*
G75*
G02*
X147431740Y-46432080I0J200000D01*
G01*
X147431740Y-46032080D01*
G75*
G02*
X147631740Y-45832080I200000J0D01*
G01*
X148181740Y-45832080D01*
G75*
G02*
X148381740Y-46032080I0J-200000D01*
G01*
X148381740Y-46432080D01*
G75*
G02*
X148181740Y-46632080I-200000J0D01*
G01*
G37*
%TD*%
%TO.C,R1*%
G36*
G01*
X149285280Y-45821920D02*
X149835280Y-45821920D01*
G75*
G02*
X150035280Y-46021920I0J-200000D01*
G01*
X150035280Y-46421920D01*
G75*
G02*
X149835280Y-46621920I-200000J0D01*
G01*
X149285280Y-46621920D01*
G75*
G02*
X149085280Y-46421920I0J200000D01*
G01*
X149085280Y-46021920D01*
G75*
G02*
X149285280Y-45821920I200000J0D01*
G01*
G37*
G36*
G01*
X149285280Y-44171920D02*
X149835280Y-44171920D01*
G75*
G02*
X150035280Y-44371920I0J-200000D01*
G01*
X150035280Y-44771920D01*
G75*
G02*
X149835280Y-44971920I-200000J0D01*
G01*
X149285280Y-44971920D01*
G75*
G02*
X149085280Y-44771920I0J200000D01*
G01*
X149085280Y-44371920D01*
G75*
G02*
X149285280Y-44171920I200000J0D01*
G01*
G37*
%TD*%
%TO.C,C15*%
G36*
G01*
X127963080Y-47076380D02*
X127963080Y-46126380D01*
G75*
G02*
X128213080Y-45876380I250000J0D01*
G01*
X128713080Y-45876380D01*
G75*
G02*
X128963080Y-46126380I0J-250000D01*
G01*
X128963080Y-47076380D01*
G75*
G02*
X128713080Y-47326380I-250000J0D01*
G01*
X128213080Y-47326380D01*
G75*
G02*
X127963080Y-47076380I0J250000D01*
G01*
G37*
G36*
G01*
X126063080Y-47076380D02*
X126063080Y-46126380D01*
G75*
G02*
X126313080Y-45876380I250000J0D01*
G01*
X126813080Y-45876380D01*
G75*
G02*
X127063080Y-46126380I0J-250000D01*
G01*
X127063080Y-47076380D01*
G75*
G02*
X126813080Y-47326380I-250000J0D01*
G01*
X126313080Y-47326380D01*
G75*
G02*
X126063080Y-47076380I0J250000D01*
G01*
G37*
%TD*%
D28*
%TO.C,C14*%
X157601920Y-80090640D03*
D29*
X157601920Y-82590640D03*
%TD*%
D28*
%TO.C,C13*%
X148897340Y-80245580D03*
D29*
X148897340Y-82745580D03*
%TD*%
D28*
%TO.C,C11*%
X136260840Y-81814040D03*
D29*
X136260840Y-79314040D03*
%TD*%
%TO.C,C8*%
G36*
G01*
X142946140Y-62491240D02*
X141996140Y-62491240D01*
G75*
G02*
X141746140Y-62241240I0J250000D01*
G01*
X141746140Y-61741240D01*
G75*
G02*
X141996140Y-61491240I250000J0D01*
G01*
X142946140Y-61491240D01*
G75*
G02*
X143196140Y-61741240I0J-250000D01*
G01*
X143196140Y-62241240D01*
G75*
G02*
X142946140Y-62491240I-250000J0D01*
G01*
G37*
G36*
G01*
X142946140Y-64391240D02*
X141996140Y-64391240D01*
G75*
G02*
X141746140Y-64141240I0J250000D01*
G01*
X141746140Y-63641240D01*
G75*
G02*
X141996140Y-63391240I250000J0D01*
G01*
X142946140Y-63391240D01*
G75*
G02*
X143196140Y-63641240I0J-250000D01*
G01*
X143196140Y-64141240D01*
G75*
G02*
X142946140Y-64391240I-250000J0D01*
G01*
G37*
%TD*%
%TO.C,C7*%
G36*
G01*
X142328920Y-45089660D02*
X141378920Y-45089660D01*
G75*
G02*
X141128920Y-44839660I0J250000D01*
G01*
X141128920Y-44339660D01*
G75*
G02*
X141378920Y-44089660I250000J0D01*
G01*
X142328920Y-44089660D01*
G75*
G02*
X142578920Y-44339660I0J-250000D01*
G01*
X142578920Y-44839660D01*
G75*
G02*
X142328920Y-45089660I-250000J0D01*
G01*
G37*
G36*
G01*
X142328920Y-46989660D02*
X141378920Y-46989660D01*
G75*
G02*
X141128920Y-46739660I0J250000D01*
G01*
X141128920Y-46239660D01*
G75*
G02*
X141378920Y-45989660I250000J0D01*
G01*
X142328920Y-45989660D01*
G75*
G02*
X142578920Y-46239660I0J-250000D01*
G01*
X142578920Y-46739660D01*
G75*
G02*
X142328920Y-46989660I-250000J0D01*
G01*
G37*
%TD*%
%TO.C,C5*%
G36*
G01*
X146420130Y-45196380D02*
X145470130Y-45196380D01*
G75*
G02*
X145220130Y-44946380I0J250000D01*
G01*
X145220130Y-44446380D01*
G75*
G02*
X145470130Y-44196380I250000J0D01*
G01*
X146420130Y-44196380D01*
G75*
G02*
X146670130Y-44446380I0J-250000D01*
G01*
X146670130Y-44946380D01*
G75*
G02*
X146420130Y-45196380I-250000J0D01*
G01*
G37*
G36*
G01*
X146420130Y-47096380D02*
X145470130Y-47096380D01*
G75*
G02*
X145220130Y-46846380I0J250000D01*
G01*
X145220130Y-46346380D01*
G75*
G02*
X145470130Y-46096380I250000J0D01*
G01*
X146420130Y-46096380D01*
G75*
G02*
X146670130Y-46346380I0J-250000D01*
G01*
X146670130Y-46846380D01*
G75*
G02*
X146420130Y-47096380I-250000J0D01*
G01*
G37*
%TD*%
%TO.C,C4*%
G36*
G01*
X152318700Y-71524320D02*
X153268700Y-71524320D01*
G75*
G02*
X153518700Y-71774320I0J-250000D01*
G01*
X153518700Y-72274320D01*
G75*
G02*
X153268700Y-72524320I-250000J0D01*
G01*
X152318700Y-72524320D01*
G75*
G02*
X152068700Y-72274320I0J250000D01*
G01*
X152068700Y-71774320D01*
G75*
G02*
X152318700Y-71524320I250000J0D01*
G01*
G37*
G36*
G01*
X152318700Y-69624320D02*
X153268700Y-69624320D01*
G75*
G02*
X153518700Y-69874320I0J-250000D01*
G01*
X153518700Y-70374320D01*
G75*
G02*
X153268700Y-70624320I-250000J0D01*
G01*
X152318700Y-70624320D01*
G75*
G02*
X152068700Y-70374320I0J250000D01*
G01*
X152068700Y-69874320D01*
G75*
G02*
X152318700Y-69624320I250000J0D01*
G01*
G37*
%TD*%
%TO.C,C3*%
G36*
G01*
X151925000Y-54478340D02*
X152875000Y-54478340D01*
G75*
G02*
X153125000Y-54728340I0J-250000D01*
G01*
X153125000Y-55228340D01*
G75*
G02*
X152875000Y-55478340I-250000J0D01*
G01*
X151925000Y-55478340D01*
G75*
G02*
X151675000Y-55228340I0J250000D01*
G01*
X151675000Y-54728340D01*
G75*
G02*
X151925000Y-54478340I250000J0D01*
G01*
G37*
G36*
G01*
X151925000Y-52578340D02*
X152875000Y-52578340D01*
G75*
G02*
X153125000Y-52828340I0J-250000D01*
G01*
X153125000Y-53328340D01*
G75*
G02*
X152875000Y-53578340I-250000J0D01*
G01*
X151925000Y-53578340D01*
G75*
G02*
X151675000Y-53328340I0J250000D01*
G01*
X151675000Y-52828340D01*
G75*
G02*
X151925000Y-52578340I250000J0D01*
G01*
G37*
%TD*%
M02*
