%TF.GenerationSoftware,KiCad,Pcbnew,(5.1.7)-1*%
%TF.CreationDate,2020-11-11T14:22:04+03:00*%
%TF.ProjectId,MT7628_USB_MODEM,4d543736-3238-45f5-9553-425f4d4f4445,rev?*%
%TF.SameCoordinates,Original*%
%TF.FileFunction,Copper,L2,Bot*%
%TF.FilePolarity,Positive*%
%FSLAX46Y46*%
G04 Gerber Fmt 4.6, Leading zero omitted, Abs format (unit mm)*
G04 Created by KiCad (PCBNEW (5.1.7)-1) date 2020-11-11 14:22:04*
%MOMM*%
%LPD*%
G01*
G04 APERTURE LIST*
%TA.AperFunction,SMDPad,CuDef*%
%ADD10R,2.500000X1.800000*%
%TD*%
%TA.AperFunction,ComponentPad*%
%ADD11C,0.500000*%
%TD*%
%TA.AperFunction,ComponentPad*%
%ADD12O,1.700000X1.700000*%
%TD*%
%TA.AperFunction,ComponentPad*%
%ADD13R,1.700000X1.700000*%
%TD*%
%TA.AperFunction,ComponentPad*%
%ADD14C,1.500000*%
%TD*%
%TA.AperFunction,ComponentPad*%
%ADD15C,2.300000*%
%TD*%
%TA.AperFunction,ComponentPad*%
%ADD16R,1.500000X1.500000*%
%TD*%
%TA.AperFunction,ComponentPad*%
%ADD17C,1.524000*%
%TD*%
%TA.AperFunction,ComponentPad*%
%ADD18R,1.524000X1.524000*%
%TD*%
%TA.AperFunction,ComponentPad*%
%ADD19R,3.500000X3.500000*%
%TD*%
%TA.AperFunction,ComponentPad*%
%ADD20C,3.000000*%
%TD*%
%TA.AperFunction,ComponentPad*%
%ADD21C,1.600000*%
%TD*%
%TA.AperFunction,ComponentPad*%
%ADD22R,1.600000X1.600000*%
%TD*%
%TA.AperFunction,ViaPad*%
%ADD23C,5.000000*%
%TD*%
%TA.AperFunction,ViaPad*%
%ADD24C,0.800000*%
%TD*%
%TA.AperFunction,Conductor*%
%ADD25C,1.000000*%
%TD*%
%TA.AperFunction,Conductor*%
%ADD26C,0.200000*%
%TD*%
%TA.AperFunction,Conductor*%
%ADD27C,0.600000*%
%TD*%
%TA.AperFunction,Conductor*%
%ADD28C,0.254000*%
%TD*%
%TA.AperFunction,Conductor*%
%ADD29C,0.100000*%
%TD*%
G04 APERTURE END LIST*
D10*
%TO.P,D1,9*%
%TO.N,GND*%
X147657820Y-68818760D03*
D11*
X146657820Y-69468760D03*
X146657820Y-68168760D03*
X147657820Y-69468760D03*
X147657820Y-68168760D03*
X148657820Y-69468760D03*
X148657820Y-68168760D03*
%TD*%
D10*
%TO.P,D2,9*%
%TO.N,GND*%
X147474940Y-51516280D03*
D11*
X146474940Y-52166280D03*
X146474940Y-50866280D03*
X147474940Y-52166280D03*
X147474940Y-50866280D03*
X148474940Y-52166280D03*
X148474940Y-50866280D03*
%TD*%
D12*
%TO.P,J7,2*%
%TO.N,V+*%
X129448560Y-82829400D03*
D13*
%TO.P,J7,1*%
%TO.N,Net-(J7-Pad1)*%
X126908560Y-82829400D03*
%TD*%
D14*
%TO.P,J2,12*%
%TO.N,Net-(J2-Pad12)*%
X86089300Y-69663660D03*
%TO.P,J2,11*%
%TO.N,ETH1*%
X86089300Y-71953660D03*
%TO.P,J2,10*%
%TO.N,Net-(J2-Pad10)*%
X86089300Y-81093660D03*
%TO.P,J2,9*%
%TO.N,GND*%
X86089300Y-83383660D03*
D15*
%TO.P,J2,SH*%
%TO.N,N/C*%
X80379300Y-84653660D03*
X80379300Y-68393660D03*
D14*
%TO.P,J2,8*%
%TO.N,Vin-*%
X81269300Y-72971660D03*
%TO.P,J2,6*%
%TO.N,/RX1-*%
X81269300Y-75003660D03*
%TO.P,J2,4*%
%TO.N,Vin+*%
X81269300Y-77035660D03*
%TO.P,J2,2*%
%TO.N,/TX1-*%
X81269300Y-79067660D03*
%TO.P,J2,7*%
%TO.N,Vin-*%
X79489300Y-73987660D03*
%TO.P,J2,5*%
%TO.N,Vin+*%
X79489300Y-76019660D03*
%TO.P,J2,3*%
%TO.N,/RX1+*%
X79489300Y-78051660D03*
D16*
%TO.P,J2,1*%
%TO.N,/TX1+*%
X79489300Y-80083660D03*
%TD*%
D17*
%TO.P,TR1,12*%
%TO.N,/RX1+*%
X110595280Y-82093440D03*
%TO.P,TR1,11*%
%TO.N,N/C*%
X108595280Y-82093440D03*
%TO.P,TR1,10*%
%TO.N,/RX1-*%
X106595280Y-82093440D03*
%TO.P,TR1,9*%
%TO.N,/TX1+*%
X104595280Y-82093440D03*
%TO.P,TR1,8*%
%TO.N,N/C*%
X102595280Y-82093440D03*
%TO.P,TR1,7*%
%TO.N,/TX1-*%
X100595280Y-82093440D03*
%TO.P,TR1,6*%
%TO.N,/P1_T_P*%
X100595280Y-77093440D03*
%TO.P,TR1,5*%
%TO.N,N/C*%
X102595280Y-77093440D03*
%TO.P,TR1,4*%
%TO.N,/P1_T_N*%
X104595280Y-77093440D03*
%TO.P,TR1,3*%
%TO.N,/P1_R_P*%
X106595280Y-77093440D03*
%TO.P,TR1,2*%
%TO.N,N/C*%
X108595280Y-77093440D03*
D18*
%TO.P,TR1,1*%
%TO.N,/P1_R_N*%
X110595280Y-77093440D03*
%TD*%
D12*
%TO.P,J4,3*%
%TO.N,GND*%
X92163900Y-56255920D03*
%TO.P,J4,2*%
%TO.N,I2C_SD*%
X92163900Y-53715920D03*
D13*
%TO.P,J4,1*%
%TO.N,I2C_SCKL*%
X92163900Y-51175920D03*
%TD*%
%TO.P,J3,3*%
%TO.N,Vin-*%
%TA.AperFunction,ComponentPad*%
G36*
G01*
X80649880Y-47700900D02*
X80649880Y-45950900D01*
G75*
G02*
X81524880Y-45075900I875000J0D01*
G01*
X83274880Y-45075900D01*
G75*
G02*
X84149880Y-45950900I0J-875000D01*
G01*
X84149880Y-47700900D01*
G75*
G02*
X83274880Y-48575900I-875000J0D01*
G01*
X81524880Y-48575900D01*
G75*
G02*
X80649880Y-47700900I0J875000D01*
G01*
G37*
%TD.AperFunction*%
%TO.P,J3,2*%
%TA.AperFunction,ComponentPad*%
G36*
G01*
X77899880Y-43125900D02*
X77899880Y-41125900D01*
G75*
G02*
X78649880Y-40375900I750000J0D01*
G01*
X80149880Y-40375900D01*
G75*
G02*
X80899880Y-41125900I0J-750000D01*
G01*
X80899880Y-43125900D01*
G75*
G02*
X80149880Y-43875900I-750000J0D01*
G01*
X78649880Y-43875900D01*
G75*
G02*
X77899880Y-43125900I0J750000D01*
G01*
G37*
%TD.AperFunction*%
D19*
%TO.P,J3,1*%
%TO.N,Vin+*%
X85399880Y-42125900D03*
%TD*%
D20*
%TO.P,J1,9*%
%TO.N,N/C*%
X73310000Y-50890000D03*
X73310000Y-64030000D03*
D16*
%TO.P,J1,1*%
%TO.N,+5V*%
X73660000Y-60960000D03*
D14*
%TO.P,J1,2*%
%TO.N,Net-(J1-Pad2)*%
X73660000Y-58460000D03*
%TO.P,J1,3*%
%TO.N,Net-(J1-Pad3)*%
X73660000Y-56460000D03*
%TO.P,J1,4*%
%TO.N,GND*%
X73660000Y-53960000D03*
D20*
%TO.P,J1,9*%
%TO.N,N/C*%
X78990000Y-64030000D03*
X78990000Y-50890000D03*
D14*
%TO.P,J1,5*%
X76280000Y-60960000D03*
%TO.P,J1,6*%
X76280000Y-58460000D03*
%TO.P,J1,7*%
X76280000Y-56460000D03*
%TO.P,J1,8*%
X76280000Y-53960000D03*
%TD*%
D12*
%TO.P,J6,3*%
%TO.N,Net-(J6-Pad3)*%
X117711220Y-43136820D03*
%TO.P,J6,2*%
%TO.N,GND*%
X115171220Y-43136820D03*
D13*
%TO.P,J6,1*%
%TO.N,Net-(J6-Pad1)*%
X112631220Y-43136820D03*
%TD*%
D12*
%TO.P,J5,3*%
%TO.N,Net-(J5-Pad3)*%
X126657100Y-43101260D03*
%TO.P,J5,2*%
%TO.N,GND*%
X124117100Y-43101260D03*
D13*
%TO.P,J5,1*%
%TO.N,Net-(J5-Pad1)*%
X121577100Y-43101260D03*
%TD*%
D21*
%TO.P,C14,2*%
%TO.N,GND*%
X157601920Y-80090640D03*
D22*
%TO.P,C14,1*%
%TO.N,+3V3*%
X157601920Y-82590640D03*
%TD*%
D21*
%TO.P,C13,2*%
%TO.N,GND*%
X148897340Y-80245580D03*
D22*
%TO.P,C13,1*%
%TO.N,+5V*%
X148897340Y-82745580D03*
%TD*%
D21*
%TO.P,C11,2*%
%TO.N,GND*%
X136260840Y-81814040D03*
D22*
%TO.P,C11,1*%
%TO.N,V+*%
X136260840Y-79314040D03*
%TD*%
D23*
%TO.N,*%
X165562280Y-82135980D03*
X165562280Y-40919400D03*
X93403420Y-82227420D03*
X93403420Y-41010840D03*
D24*
%TO.N,Vin-*%
X87236300Y-49159160D03*
%TO.N,V+*%
X148748750Y-73651110D03*
X150967941Y-62362581D03*
X150769320Y-44594780D03*
X148709340Y-56479440D03*
X147429220Y-75745340D03*
X147106640Y-57990740D03*
%TO.N,+3V3*%
X140672820Y-49573180D03*
X160454340Y-57378600D03*
X92867480Y-69860160D03*
X93456760Y-64927480D03*
X124386340Y-48623220D03*
X139387580Y-40695880D03*
X140352780Y-40695880D03*
X125285500Y-48623220D03*
%TO.N,+5V*%
X140743940Y-64462660D03*
X160924240Y-74683620D03*
X160924240Y-75557380D03*
%TO.N,RST*%
X114289840Y-73972420D03*
X114284759Y-66791839D03*
%TO.N,ETH1*%
X113108740Y-54361080D03*
%TO.N,Net-(J2-Pad10)*%
X89468960Y-74180700D03*
X89468960Y-77167740D03*
%TO.N,/RX1+*%
X83494880Y-78117700D03*
%TO.N,GND*%
X97774760Y-50713640D03*
X100543360Y-50645060D03*
X129324100Y-44335700D03*
X129326640Y-45283120D03*
X156194760Y-55968900D03*
X156817060Y-73299320D03*
X156811980Y-72456040D03*
X156189680Y-54996080D03*
X128573940Y-72741380D03*
X91627960Y-77035660D03*
X141861540Y-68298060D03*
X141861540Y-69329300D03*
X142438120Y-51120040D03*
X142438120Y-52021740D03*
%TO.N,GPIO0*%
X98425000Y-62877700D03*
X101940360Y-62877700D03*
%TD*%
D25*
%TO.N,Vin-*%
X80505300Y-72971660D02*
X81269300Y-72971660D01*
X79489300Y-73987660D02*
X80505300Y-72971660D01*
D26*
X80010000Y-41910000D02*
X80010000Y-40091360D01*
D25*
X87236300Y-50792380D02*
X87236300Y-49159160D01*
X84167980Y-53860700D02*
X87236300Y-50792380D01*
X84167980Y-71133640D02*
X84167980Y-53860700D01*
X82329960Y-72971660D02*
X84167980Y-71133640D01*
X81269300Y-72971660D02*
X82329960Y-72971660D01*
D27*
%TO.N,V+*%
X149829520Y-56479440D02*
X148709340Y-56479440D01*
X150769320Y-55539640D02*
X149829520Y-56479440D01*
X150769320Y-44594780D02*
X150769320Y-55539640D01*
X150967941Y-72648579D02*
X150967941Y-62362581D01*
X149965410Y-73651110D02*
X150967941Y-72648579D01*
X148748750Y-73651110D02*
X149965410Y-73651110D01*
D25*
X143860520Y-79314040D02*
X147429220Y-75745340D01*
X136260840Y-79314040D02*
X143860520Y-79314040D01*
X139148820Y-76426060D02*
X136260840Y-79314040D01*
X139148820Y-63781940D02*
X139148820Y-76426060D01*
X144940020Y-57990740D02*
X139148820Y-63781940D01*
X147106640Y-57990740D02*
X144940020Y-57990740D01*
D27*
X132963920Y-79314040D02*
X129448560Y-82829400D01*
X136260840Y-79314040D02*
X132963920Y-79314040D01*
%TO.N,+3V3*%
X160454340Y-45874940D02*
X160454340Y-57365900D01*
X157825440Y-43246040D02*
X160454340Y-45874940D01*
X150322280Y-43246040D02*
X157825440Y-43246040D01*
X143995140Y-49573180D02*
X150322280Y-43246040D01*
X140672820Y-49573180D02*
X143995140Y-49573180D01*
X93456760Y-65290700D02*
X93456760Y-64927480D01*
X93454220Y-65293240D02*
X93456760Y-65290700D01*
X93454220Y-69273420D02*
X93454220Y-65293240D01*
X92867480Y-69860160D02*
X93454220Y-69273420D01*
X93456760Y-64927480D02*
X93456760Y-64927480D01*
X93456760Y-64927480D02*
X93456760Y-62857380D01*
X93456760Y-62857380D02*
X106199940Y-50114200D01*
X122895360Y-50114200D02*
X124386340Y-48623220D01*
X106199940Y-50114200D02*
X122895360Y-50114200D01*
D25*
X140352780Y-40695880D02*
X139387580Y-40695880D01*
X139387580Y-40695880D02*
X131470400Y-48613060D01*
X124396500Y-48613060D02*
X124386340Y-48623220D01*
X131470400Y-48613060D02*
X124396500Y-48613060D01*
%TO.N,+5V*%
X160924240Y-74683620D02*
X160924240Y-75557380D01*
X160924240Y-75821540D02*
X159598360Y-77147420D01*
X159598360Y-77147420D02*
X155468320Y-77147420D01*
X149870160Y-82745580D02*
X148897340Y-82745580D01*
X155468320Y-77147420D02*
X149870160Y-82745580D01*
X160924240Y-75557380D02*
X160924240Y-75821540D01*
D27*
X160804860Y-74564240D02*
X160924240Y-74683620D01*
X160804860Y-61617860D02*
X160804860Y-74564240D01*
X160263840Y-61076840D02*
X160804860Y-61617860D01*
X149491700Y-61076840D02*
X160263840Y-61076840D01*
X146105880Y-64462660D02*
X149491700Y-61076840D01*
X140743940Y-64462660D02*
X146105880Y-64462660D01*
D26*
%TO.N,RST*%
X114289840Y-73972420D02*
X114289840Y-66796920D01*
X114289840Y-66796920D02*
X114284759Y-66791839D01*
%TO.N,ETH1*%
X86089300Y-71953660D02*
X95516160Y-71953660D01*
X95516160Y-71953660D02*
X113108740Y-54361080D01*
D25*
%TO.N,Vin+*%
X80519301Y-76285661D02*
X79755301Y-76285661D01*
X79755301Y-76285661D02*
X79489300Y-76019660D01*
X81269300Y-77035660D02*
X80519301Y-76285661D01*
X80088740Y-70777100D02*
X82016600Y-70777100D01*
X77424280Y-73441560D02*
X80088740Y-70777100D01*
X85399880Y-49677320D02*
X85399880Y-42125900D01*
X82544920Y-70248780D02*
X82544920Y-52532280D01*
X82016600Y-70777100D02*
X82544920Y-70248780D01*
X77424280Y-75015300D02*
X77424280Y-73441560D01*
X78428640Y-76019660D02*
X77424280Y-75015300D01*
X82544920Y-52532280D02*
X85399880Y-49677320D01*
X79489300Y-76019660D02*
X78428640Y-76019660D01*
D26*
%TO.N,Net-(J2-Pad10)*%
X89468960Y-74180700D02*
X89468960Y-77167740D01*
%TO.N,/RX1-*%
X106595280Y-79165820D02*
X106595280Y-82093440D01*
X106247162Y-78817702D02*
X106595280Y-79165820D01*
X87857278Y-78817702D02*
X106247162Y-78817702D01*
X87790521Y-78825223D02*
X87857278Y-78817702D01*
X87727112Y-78847411D02*
X87790521Y-78825223D01*
X87670231Y-78883152D02*
X87727112Y-78847411D01*
X87622728Y-78930655D02*
X87670231Y-78883152D01*
X87586987Y-78987536D02*
X87622728Y-78930655D01*
X87564799Y-79050945D02*
X87586987Y-78987536D01*
X87557278Y-79117702D02*
X87564799Y-79050945D01*
X87557278Y-79517702D02*
X87557278Y-79117702D01*
X87549756Y-79584458D02*
X87557278Y-79517702D01*
X87527568Y-79647867D02*
X87549756Y-79584458D01*
X87491827Y-79704748D02*
X87527568Y-79647867D01*
X87444324Y-79752251D02*
X87491827Y-79704748D01*
X87387443Y-79787992D02*
X87444324Y-79752251D01*
X87324034Y-79810180D02*
X87387443Y-79787992D01*
X87257278Y-79817702D02*
X87324034Y-79810180D01*
X87190521Y-79810180D02*
X87257278Y-79817702D01*
X87127112Y-79787992D02*
X87190521Y-79810180D01*
X87070231Y-79752251D02*
X87127112Y-79787992D01*
X87022728Y-79704748D02*
X87070231Y-79752251D01*
X86986987Y-79647867D02*
X87022728Y-79704748D01*
X86964799Y-79584458D02*
X86986987Y-79647867D01*
X86957278Y-79517702D02*
X86964799Y-79584458D01*
X86957278Y-78717702D02*
X86957278Y-79517702D01*
X86954770Y-78695450D02*
X86957278Y-78717702D01*
X86947374Y-78674314D02*
X86954770Y-78695450D01*
X86935461Y-78655354D02*
X86947374Y-78674314D01*
X86919626Y-78639519D02*
X86935461Y-78655354D01*
X86900666Y-78627606D02*
X86919626Y-78639519D01*
X86879530Y-78620210D02*
X86900666Y-78627606D01*
X86857278Y-78617702D02*
X86879530Y-78620210D01*
X86457278Y-78617702D02*
X86857278Y-78617702D01*
X86435025Y-78620210D02*
X86457278Y-78617702D01*
X86413889Y-78627606D02*
X86435025Y-78620210D01*
X86394929Y-78639519D02*
X86413889Y-78627606D01*
X86379094Y-78655354D02*
X86394929Y-78639519D01*
X86367181Y-78674314D02*
X86379094Y-78655354D01*
X86359785Y-78695450D02*
X86367181Y-78674314D01*
X86357278Y-78717702D02*
X86359785Y-78695450D01*
X86357278Y-79517702D02*
X86357278Y-78717702D01*
X86349756Y-79584458D02*
X86357278Y-79517702D01*
X86327568Y-79647867D02*
X86349756Y-79584458D01*
X86291827Y-79704748D02*
X86327568Y-79647867D01*
X86244324Y-79752251D02*
X86291827Y-79704748D01*
X86187443Y-79787992D02*
X86244324Y-79752251D01*
X86124034Y-79810180D02*
X86187443Y-79787992D01*
X86057278Y-79817702D02*
X86124034Y-79810180D01*
X85990521Y-79810180D02*
X86057278Y-79817702D01*
X85927112Y-79787992D02*
X85990521Y-79810180D01*
X85870231Y-79752251D02*
X85927112Y-79787992D01*
X85822728Y-79704748D02*
X85870231Y-79752251D01*
X85786987Y-79647867D02*
X85822728Y-79704748D01*
X85764799Y-79584458D02*
X85786987Y-79647867D01*
X85757278Y-79517702D02*
X85764799Y-79584458D01*
X85757278Y-79117702D02*
X85757278Y-79517702D01*
X85749756Y-79050945D02*
X85757278Y-79117702D01*
X85727568Y-78987536D02*
X85749756Y-79050945D01*
X85691827Y-78930655D02*
X85727568Y-78987536D01*
X85644324Y-78883152D02*
X85691827Y-78930655D01*
X85587443Y-78847411D02*
X85644324Y-78883152D01*
X85524034Y-78825223D02*
X85587443Y-78847411D01*
X85457278Y-78817702D02*
X85524034Y-78825223D01*
X85390521Y-78825223D02*
X85457278Y-78817702D01*
X85327112Y-78847411D02*
X85390521Y-78825223D01*
X85270231Y-78883152D02*
X85327112Y-78847411D01*
X85222728Y-78930655D02*
X85270231Y-78883152D01*
X83979094Y-78655354D02*
X83994929Y-78639519D01*
X83967181Y-78674314D02*
X83979094Y-78655354D01*
X83959785Y-78695450D02*
X83967181Y-78674314D01*
X83957278Y-78717702D02*
X83959785Y-78695450D01*
X83957278Y-79517702D02*
X83957278Y-78717702D01*
X83949756Y-79584458D02*
X83957278Y-79517702D01*
X83927568Y-79647867D02*
X83949756Y-79584458D01*
X83891827Y-79704748D02*
X83927568Y-79647867D01*
X83844324Y-79752251D02*
X83891827Y-79704748D01*
X83787443Y-79787992D02*
X83844324Y-79752251D01*
X83724034Y-79810180D02*
X83787443Y-79787992D01*
X83657278Y-79817702D02*
X83724034Y-79810180D01*
X83590521Y-79810180D02*
X83657278Y-79817702D01*
X83527112Y-79787992D02*
X83590521Y-79810180D01*
X83470231Y-79752251D02*
X83527112Y-79787992D01*
X83422728Y-79704748D02*
X83470231Y-79752251D01*
X82636360Y-76362560D02*
X82636360Y-78396784D01*
X83386987Y-79647867D02*
X83422728Y-79704748D01*
X82636360Y-78396784D02*
X83057278Y-78817702D01*
X83057278Y-78817702D02*
X83124034Y-78825223D01*
X83124034Y-78825223D02*
X83187443Y-78847411D01*
X83187443Y-78847411D02*
X83244324Y-78883152D01*
X83244324Y-78883152D02*
X83291827Y-78930655D01*
X83291827Y-78930655D02*
X83327568Y-78987536D01*
X83327568Y-78987536D02*
X83349756Y-79050945D01*
X83349756Y-79050945D02*
X83357278Y-79117702D01*
X83357278Y-79117702D02*
X83357278Y-79517702D01*
X83357278Y-79517702D02*
X83364799Y-79584458D01*
X83364799Y-79584458D02*
X83386987Y-79647867D01*
X83994929Y-78639519D02*
X84013889Y-78627606D01*
X84013889Y-78627606D02*
X84035025Y-78620210D01*
X84035025Y-78620210D02*
X84057278Y-78617702D01*
X84057278Y-78617702D02*
X84457278Y-78617702D01*
X84457278Y-78617702D02*
X84479530Y-78620210D01*
X84479530Y-78620210D02*
X84500666Y-78627606D01*
X84500666Y-78627606D02*
X84519626Y-78639519D01*
X84519626Y-78639519D02*
X84535461Y-78655354D01*
X84535461Y-78655354D02*
X84547374Y-78674314D01*
X84547374Y-78674314D02*
X84554770Y-78695450D01*
X84554770Y-78695450D02*
X84557278Y-78717702D01*
X84557278Y-78717702D02*
X84557278Y-79517702D01*
X84557278Y-79517702D02*
X84564799Y-79584458D01*
X84564799Y-79584458D02*
X84586987Y-79647867D01*
X84586987Y-79647867D02*
X84622728Y-79704748D01*
X84622728Y-79704748D02*
X84670231Y-79752251D01*
X84670231Y-79752251D02*
X84727112Y-79787992D01*
X84727112Y-79787992D02*
X84790521Y-79810180D01*
X84790521Y-79810180D02*
X84857278Y-79817702D01*
X84857278Y-79817702D02*
X84924034Y-79810180D01*
X84924034Y-79810180D02*
X84987443Y-79787992D01*
X84987443Y-79787992D02*
X85044324Y-79752251D01*
X85044324Y-79752251D02*
X85091827Y-79704748D01*
X85091827Y-79704748D02*
X85127568Y-79647867D01*
X85127568Y-79647867D02*
X85149756Y-79584458D01*
X85149756Y-79584458D02*
X85157278Y-79517702D01*
X85157278Y-79517702D02*
X85157278Y-79117702D01*
X85157278Y-79117702D02*
X85164799Y-79050945D01*
X85164799Y-79050945D02*
X85186987Y-78987536D01*
X85186987Y-78987536D02*
X85222728Y-78930655D01*
X82628200Y-76362560D02*
X81269300Y-75003660D01*
X82636360Y-76362560D02*
X82628200Y-76362560D01*
%TO.N,/TX1-*%
X83234740Y-81730901D02*
X81269300Y-79765461D01*
X83234740Y-83084180D02*
X83234740Y-81730901D01*
X85030800Y-84880240D02*
X83234740Y-83084180D01*
X92452198Y-85420200D02*
X91912238Y-84880240D01*
X94354642Y-85420200D02*
X92452198Y-85420200D01*
X94894602Y-84880240D02*
X94354642Y-85420200D01*
X91912238Y-84880240D02*
X85030800Y-84880240D01*
X102019880Y-84880240D02*
X94894602Y-84880240D01*
X102370280Y-84529840D02*
X102019880Y-84880240D01*
X81269300Y-79765461D02*
X81269300Y-79067660D01*
X102370280Y-83868440D02*
X102370280Y-84529840D01*
X100595280Y-82093440D02*
X102370280Y-83868440D01*
%TO.N,/RX1+*%
X110564300Y-82093440D02*
X110595280Y-82093440D01*
X83545680Y-78168500D02*
X106639360Y-78168500D01*
X106639360Y-78168500D02*
X110564300Y-82093440D01*
X83494880Y-78117700D02*
X83545680Y-78168500D01*
%TO.N,/TX1+*%
X82784740Y-83270580D02*
X82784740Y-81917299D01*
X82784740Y-81917299D02*
X80951101Y-80083660D01*
X91725855Y-85330240D02*
X84844400Y-85330240D01*
X92237455Y-85841840D02*
X91725855Y-85330240D01*
X94569385Y-85841840D02*
X92237455Y-85841840D01*
X95080985Y-85330240D02*
X94569385Y-85841840D01*
X102206280Y-85330240D02*
X95080985Y-85330240D01*
X80951101Y-80083660D02*
X79489300Y-80083660D01*
X102820280Y-84716240D02*
X102206280Y-85330240D01*
X84844400Y-85330240D02*
X82784740Y-83270580D01*
X102820280Y-83868440D02*
X102820280Y-84716240D01*
X104595280Y-82093440D02*
X102820280Y-83868440D01*
%TO.N,GPIO0*%
X101434900Y-62877700D02*
X98425000Y-62877700D01*
X101434900Y-62877700D02*
X101940360Y-62877700D01*
%TD*%
D28*
%TO.N,GND*%
X169520001Y-85700000D02*
X134979085Y-85700000D01*
X135050133Y-83286600D01*
X135626327Y-83286600D01*
X137776538Y-83341169D01*
X137801368Y-83339358D01*
X137825368Y-83332738D01*
X137847616Y-83321563D01*
X137867255Y-83306262D01*
X137883533Y-83287424D01*
X137895822Y-83265772D01*
X137903651Y-83242139D01*
X137906757Y-83213396D01*
X137889045Y-80449040D01*
X143804769Y-80449040D01*
X143860520Y-80454531D01*
X143916271Y-80449040D01*
X143916272Y-80449040D01*
X144083019Y-80432617D01*
X144296967Y-80367716D01*
X144494143Y-80262324D01*
X144666969Y-80120489D01*
X144702516Y-80077175D01*
X148271208Y-76508484D01*
X148377503Y-76378963D01*
X148482896Y-76181787D01*
X148547797Y-75967839D01*
X148569711Y-75745340D01*
X148547797Y-75522842D01*
X148482896Y-75308894D01*
X148377503Y-75111718D01*
X148235668Y-74938892D01*
X148062842Y-74797057D01*
X147865666Y-74691664D01*
X147651718Y-74626763D01*
X147429220Y-74604849D01*
X147206721Y-74626763D01*
X146992773Y-74691664D01*
X146795597Y-74797057D01*
X146666076Y-74903352D01*
X143390389Y-78179040D01*
X139000972Y-78179040D01*
X139911961Y-77268051D01*
X139955269Y-77232509D01*
X140097104Y-77059683D01*
X140202496Y-76862507D01*
X140267397Y-76648559D01*
X140283820Y-76481812D01*
X140283820Y-76481803D01*
X140289310Y-76426061D01*
X140283820Y-76370319D01*
X140283820Y-65392348D01*
X140442042Y-65457886D01*
X140642001Y-65497660D01*
X140845879Y-65497660D01*
X141045838Y-65457886D01*
X141191235Y-65397660D01*
X146059948Y-65397660D01*
X146105880Y-65402184D01*
X146151812Y-65397660D01*
X146289172Y-65384131D01*
X146465420Y-65330667D01*
X146627852Y-65243846D01*
X146770224Y-65127004D01*
X146799510Y-65091319D01*
X149878989Y-62011840D01*
X149992947Y-62011840D01*
X149972715Y-62060683D01*
X149932941Y-62260642D01*
X149932941Y-62464520D01*
X149972715Y-62664479D01*
X150032942Y-62809879D01*
X150032941Y-72261290D01*
X149578121Y-72716110D01*
X149196045Y-72716110D01*
X149050648Y-72655884D01*
X148850689Y-72616110D01*
X148646811Y-72616110D01*
X148446852Y-72655884D01*
X148258494Y-72733905D01*
X148088976Y-72847173D01*
X147944813Y-72991336D01*
X147831545Y-73160854D01*
X147753524Y-73349212D01*
X147713750Y-73549171D01*
X147713750Y-73753049D01*
X147753524Y-73953008D01*
X147831545Y-74141366D01*
X147944813Y-74310884D01*
X148088976Y-74455047D01*
X148258494Y-74568315D01*
X148446852Y-74646336D01*
X148646811Y-74686110D01*
X148850689Y-74686110D01*
X149050648Y-74646336D01*
X149196045Y-74586110D01*
X149919478Y-74586110D01*
X149965410Y-74590634D01*
X150011342Y-74586110D01*
X150148702Y-74572581D01*
X150324950Y-74519117D01*
X150487382Y-74432296D01*
X150629754Y-74315454D01*
X150659040Y-74279769D01*
X151596601Y-73342208D01*
X151632285Y-73312923D01*
X151749127Y-73170551D01*
X151835948Y-73008119D01*
X151889412Y-72831871D01*
X151902941Y-72694511D01*
X151902941Y-72694510D01*
X151907465Y-72648579D01*
X151902941Y-72602647D01*
X151902941Y-62809876D01*
X151963167Y-62664479D01*
X152002941Y-62464520D01*
X152002941Y-62260642D01*
X151963167Y-62060683D01*
X151942935Y-62011840D01*
X159869860Y-62011840D01*
X159869861Y-74249492D01*
X159805663Y-74461122D01*
X159789240Y-74627869D01*
X159789240Y-75351408D01*
X159128229Y-76012420D01*
X155524072Y-76012420D01*
X155468320Y-76006929D01*
X155412568Y-76012420D01*
X155245821Y-76028843D01*
X155031873Y-76093744D01*
X154834697Y-76199136D01*
X154661871Y-76340971D01*
X154626331Y-76384277D01*
X149702584Y-81308025D01*
X149697340Y-81307508D01*
X148097340Y-81307508D01*
X147972858Y-81319768D01*
X147853160Y-81356078D01*
X147742846Y-81415043D01*
X147646155Y-81494395D01*
X147566803Y-81591086D01*
X147507838Y-81701400D01*
X147471528Y-81821098D01*
X147459268Y-81945580D01*
X147459268Y-83545580D01*
X147471528Y-83670062D01*
X147507838Y-83789760D01*
X147566803Y-83900074D01*
X147646155Y-83996765D01*
X147742846Y-84076117D01*
X147853160Y-84135082D01*
X147972858Y-84171392D01*
X148097340Y-84183652D01*
X149697340Y-84183652D01*
X149821822Y-84171392D01*
X149941520Y-84135082D01*
X150051834Y-84076117D01*
X150148525Y-83996765D01*
X150227877Y-83900074D01*
X150276959Y-83808250D01*
X150306607Y-83799256D01*
X150503783Y-83693864D01*
X150676609Y-83552029D01*
X150712156Y-83508715D01*
X152430231Y-81790640D01*
X156163848Y-81790640D01*
X156163848Y-83390640D01*
X156176108Y-83515122D01*
X156212418Y-83634820D01*
X156271383Y-83745134D01*
X156350735Y-83841825D01*
X156447426Y-83921177D01*
X156557740Y-83980142D01*
X156677438Y-84016452D01*
X156801920Y-84028712D01*
X158401920Y-84028712D01*
X158526402Y-84016452D01*
X158646100Y-83980142D01*
X158756414Y-83921177D01*
X158853105Y-83841825D01*
X158932457Y-83745134D01*
X158991422Y-83634820D01*
X159027732Y-83515122D01*
X159039992Y-83390640D01*
X159039992Y-81827209D01*
X162427280Y-81827209D01*
X162427280Y-82444751D01*
X162547756Y-83050426D01*
X162784079Y-83620959D01*
X163127166Y-84134426D01*
X163563834Y-84571094D01*
X164077301Y-84914181D01*
X164647834Y-85150504D01*
X165253509Y-85270980D01*
X165871051Y-85270980D01*
X166476726Y-85150504D01*
X167047259Y-84914181D01*
X167560726Y-84571094D01*
X167997394Y-84134426D01*
X168340481Y-83620959D01*
X168576804Y-83050426D01*
X168697280Y-82444751D01*
X168697280Y-81827209D01*
X168576804Y-81221534D01*
X168340481Y-80651001D01*
X167997394Y-80137534D01*
X167560726Y-79700866D01*
X167047259Y-79357779D01*
X166476726Y-79121456D01*
X165871051Y-79000980D01*
X165253509Y-79000980D01*
X164647834Y-79121456D01*
X164077301Y-79357779D01*
X163563834Y-79700866D01*
X163127166Y-80137534D01*
X162784079Y-80651001D01*
X162547756Y-81221534D01*
X162427280Y-81827209D01*
X159039992Y-81827209D01*
X159039992Y-81790640D01*
X159027732Y-81666158D01*
X158991422Y-81546460D01*
X158932457Y-81436146D01*
X158853105Y-81339455D01*
X158756414Y-81260103D01*
X158646100Y-81201138D01*
X158526402Y-81164828D01*
X158401920Y-81152568D01*
X156801920Y-81152568D01*
X156677438Y-81164828D01*
X156557740Y-81201138D01*
X156447426Y-81260103D01*
X156350735Y-81339455D01*
X156271383Y-81436146D01*
X156212418Y-81546460D01*
X156176108Y-81666158D01*
X156163848Y-81790640D01*
X152430231Y-81790640D01*
X155938452Y-78282420D01*
X159542609Y-78282420D01*
X159598360Y-78287911D01*
X159654111Y-78282420D01*
X159654112Y-78282420D01*
X159820859Y-78265997D01*
X160034807Y-78201096D01*
X160231983Y-78095704D01*
X160404809Y-77953869D01*
X160440356Y-77910555D01*
X161687380Y-76663532D01*
X161730689Y-76627989D01*
X161872524Y-76455163D01*
X161977916Y-76257986D01*
X162042817Y-76044038D01*
X162059240Y-75877291D01*
X162059240Y-75877283D01*
X162064730Y-75821541D01*
X162059240Y-75765799D01*
X162059240Y-74627868D01*
X162042817Y-74461121D01*
X161977916Y-74247173D01*
X161872524Y-74049997D01*
X161739860Y-73888346D01*
X161739860Y-61663792D01*
X161744384Y-61617860D01*
X161726331Y-61434568D01*
X161693877Y-61327581D01*
X161672867Y-61258320D01*
X161586046Y-61095888D01*
X161469204Y-60953516D01*
X161433515Y-60924227D01*
X160957471Y-60448182D01*
X160928184Y-60412496D01*
X160785812Y-60295654D01*
X160623380Y-60208833D01*
X160447132Y-60155369D01*
X160309772Y-60141840D01*
X160263840Y-60137316D01*
X160217908Y-60141840D01*
X149537635Y-60141840D01*
X149491700Y-60137316D01*
X149308408Y-60155368D01*
X149132159Y-60208833D01*
X149075580Y-60239075D01*
X148969728Y-60295654D01*
X148827356Y-60412496D01*
X148798070Y-60448181D01*
X145718591Y-63527660D01*
X141191235Y-63527660D01*
X141061832Y-63474059D01*
X145410153Y-59125740D01*
X147162392Y-59125740D01*
X147329139Y-59109317D01*
X147543087Y-59044416D01*
X147740263Y-58939024D01*
X147913089Y-58797189D01*
X148054924Y-58624363D01*
X148160316Y-58427187D01*
X148225217Y-58213239D01*
X148247131Y-57990740D01*
X148225217Y-57768241D01*
X148160316Y-57554293D01*
X148054924Y-57357117D01*
X147913089Y-57184291D01*
X147740263Y-57042456D01*
X147543087Y-56937064D01*
X147329139Y-56872163D01*
X147162392Y-56855740D01*
X144995772Y-56855740D01*
X144940020Y-56850249D01*
X144717521Y-56872163D01*
X144503573Y-56937064D01*
X144306397Y-57042456D01*
X144176876Y-57148751D01*
X144176874Y-57148753D01*
X144133571Y-57184291D01*
X144098033Y-57227594D01*
X138385685Y-62939944D01*
X138342371Y-62975491D01*
X138200536Y-63148317D01*
X138095145Y-63345493D01*
X138095144Y-63345494D01*
X138030243Y-63559442D01*
X138008329Y-63781940D01*
X138013820Y-63837692D01*
X138013821Y-75955927D01*
X136093781Y-77875968D01*
X135460840Y-77875968D01*
X135336358Y-77888228D01*
X135216660Y-77924538D01*
X135106346Y-77983503D01*
X135009655Y-78062855D01*
X134930303Y-78159546D01*
X134871338Y-78269860D01*
X134838219Y-78379040D01*
X133009855Y-78379040D01*
X132963920Y-78374516D01*
X132780628Y-78392568D01*
X132688024Y-78420660D01*
X132604380Y-78446033D01*
X132441948Y-78532854D01*
X132299576Y-78649696D01*
X132270290Y-78685381D01*
X129608542Y-81347129D01*
X129594820Y-81344400D01*
X129302300Y-81344400D01*
X129015402Y-81401468D01*
X128745149Y-81513410D01*
X128501928Y-81675925D01*
X128370073Y-81807780D01*
X128348062Y-81735220D01*
X128289097Y-81624906D01*
X128209745Y-81528215D01*
X128113054Y-81448863D01*
X128002740Y-81389898D01*
X127883042Y-81353588D01*
X127758560Y-81341328D01*
X126058560Y-81341328D01*
X125934078Y-81353588D01*
X125814380Y-81389898D01*
X125704066Y-81448863D01*
X125607375Y-81528215D01*
X125528023Y-81624906D01*
X125469058Y-81735220D01*
X125432748Y-81854918D01*
X125420488Y-81979400D01*
X125420488Y-83679400D01*
X125432748Y-83803882D01*
X125469058Y-83923580D01*
X125528023Y-84033894D01*
X125607375Y-84130585D01*
X125704066Y-84209937D01*
X125814380Y-84268902D01*
X125934078Y-84305212D01*
X126058560Y-84317472D01*
X127758560Y-84317472D01*
X127883042Y-84305212D01*
X128002740Y-84268902D01*
X128113054Y-84209937D01*
X128209745Y-84130585D01*
X128289097Y-84033894D01*
X128348062Y-83923580D01*
X128370073Y-83851020D01*
X128501928Y-83982875D01*
X128745149Y-84145390D01*
X129015402Y-84257332D01*
X129302300Y-84314400D01*
X129594820Y-84314400D01*
X129881718Y-84257332D01*
X130151971Y-84145390D01*
X130395192Y-83982875D01*
X130602035Y-83776032D01*
X130764550Y-83532811D01*
X130876492Y-83262558D01*
X130933560Y-82975660D01*
X130933560Y-82683140D01*
X130930831Y-82669418D01*
X133351209Y-80249040D01*
X134838219Y-80249040D01*
X134852548Y-80296277D01*
X134851438Y-80297564D01*
X134839169Y-80319228D01*
X134831363Y-80342868D01*
X134828290Y-80369110D01*
X134762386Y-85700000D01*
X102875966Y-85700000D01*
X103314473Y-85261494D01*
X103342518Y-85238478D01*
X103434367Y-85126560D01*
X103502617Y-84998873D01*
X103544645Y-84860325D01*
X103555280Y-84752345D01*
X103555280Y-84752338D01*
X103558835Y-84716241D01*
X103555280Y-84680144D01*
X103555280Y-84172886D01*
X104274220Y-83453946D01*
X104457688Y-83490440D01*
X104732872Y-83490440D01*
X105002770Y-83436754D01*
X105257007Y-83331445D01*
X105485815Y-83178560D01*
X105595280Y-83069095D01*
X105704745Y-83178560D01*
X105933553Y-83331445D01*
X106187790Y-83436754D01*
X106457688Y-83490440D01*
X106732872Y-83490440D01*
X107002770Y-83436754D01*
X107257007Y-83331445D01*
X107485815Y-83178560D01*
X107595280Y-83069095D01*
X107704745Y-83178560D01*
X107933553Y-83331445D01*
X108187790Y-83436754D01*
X108457688Y-83490440D01*
X108732872Y-83490440D01*
X109002770Y-83436754D01*
X109257007Y-83331445D01*
X109485815Y-83178560D01*
X109595280Y-83069095D01*
X109704745Y-83178560D01*
X109933553Y-83331445D01*
X110187790Y-83436754D01*
X110457688Y-83490440D01*
X110732872Y-83490440D01*
X111002770Y-83436754D01*
X111257007Y-83331445D01*
X111485815Y-83178560D01*
X111680400Y-82983975D01*
X111833285Y-82755167D01*
X111938594Y-82500930D01*
X111992280Y-82231032D01*
X111992280Y-81955848D01*
X111938594Y-81685950D01*
X111833285Y-81431713D01*
X111680400Y-81202905D01*
X111485815Y-81008320D01*
X111257007Y-80855435D01*
X111002770Y-80750126D01*
X110732872Y-80696440D01*
X110457688Y-80696440D01*
X110248381Y-80738074D01*
X107587341Y-78077034D01*
X107595280Y-78069095D01*
X107704745Y-78178560D01*
X107933553Y-78331445D01*
X108187790Y-78436754D01*
X108457688Y-78490440D01*
X108732872Y-78490440D01*
X109002770Y-78436754D01*
X109257007Y-78331445D01*
X109350950Y-78268674D01*
X109382095Y-78306625D01*
X109478786Y-78385977D01*
X109589100Y-78444942D01*
X109708798Y-78481252D01*
X109833280Y-78493512D01*
X111357280Y-78493512D01*
X111481762Y-78481252D01*
X111601460Y-78444942D01*
X111711774Y-78385977D01*
X111808465Y-78306625D01*
X111887817Y-78209934D01*
X111946782Y-78099620D01*
X111983092Y-77979922D01*
X111995352Y-77855440D01*
X111995352Y-76331440D01*
X111983092Y-76206958D01*
X111946782Y-76087260D01*
X111887817Y-75976946D01*
X111808465Y-75880255D01*
X111711774Y-75800903D01*
X111601460Y-75741938D01*
X111481762Y-75705628D01*
X111357280Y-75693368D01*
X109833280Y-75693368D01*
X109708798Y-75705628D01*
X109589100Y-75741938D01*
X109478786Y-75800903D01*
X109382095Y-75880255D01*
X109350950Y-75918206D01*
X109257007Y-75855435D01*
X109002770Y-75750126D01*
X108732872Y-75696440D01*
X108457688Y-75696440D01*
X108187790Y-75750126D01*
X107933553Y-75855435D01*
X107704745Y-76008320D01*
X107595280Y-76117785D01*
X107485815Y-76008320D01*
X107257007Y-75855435D01*
X107002770Y-75750126D01*
X106732872Y-75696440D01*
X106457688Y-75696440D01*
X106187790Y-75750126D01*
X105933553Y-75855435D01*
X105704745Y-76008320D01*
X105595280Y-76117785D01*
X105485815Y-76008320D01*
X105257007Y-75855435D01*
X105002770Y-75750126D01*
X104732872Y-75696440D01*
X104457688Y-75696440D01*
X104187790Y-75750126D01*
X103933553Y-75855435D01*
X103704745Y-76008320D01*
X103595280Y-76117785D01*
X103485815Y-76008320D01*
X103257007Y-75855435D01*
X103002770Y-75750126D01*
X102732872Y-75696440D01*
X102457688Y-75696440D01*
X102187790Y-75750126D01*
X101933553Y-75855435D01*
X101704745Y-76008320D01*
X101595280Y-76117785D01*
X101485815Y-76008320D01*
X101257007Y-75855435D01*
X101002770Y-75750126D01*
X100732872Y-75696440D01*
X100457688Y-75696440D01*
X100187790Y-75750126D01*
X99933553Y-75855435D01*
X99704745Y-76008320D01*
X99510160Y-76202905D01*
X99357275Y-76431713D01*
X99251966Y-76685950D01*
X99198280Y-76955848D01*
X99198280Y-77231032D01*
X99238553Y-77433500D01*
X90471374Y-77433500D01*
X90503960Y-77269679D01*
X90503960Y-77065801D01*
X90464186Y-76865842D01*
X90386165Y-76677484D01*
X90272897Y-76507966D01*
X90203960Y-76439029D01*
X90203960Y-74909411D01*
X90272897Y-74840474D01*
X90386165Y-74670956D01*
X90464186Y-74482598D01*
X90503960Y-74282639D01*
X90503960Y-74078761D01*
X90464186Y-73878802D01*
X90386165Y-73690444D01*
X90272897Y-73520926D01*
X90128734Y-73376763D01*
X89959216Y-73263495D01*
X89770858Y-73185474D01*
X89570899Y-73145700D01*
X89367021Y-73145700D01*
X89167062Y-73185474D01*
X88978704Y-73263495D01*
X88809186Y-73376763D01*
X88665023Y-73520926D01*
X88551755Y-73690444D01*
X88473734Y-73878802D01*
X88433960Y-74078761D01*
X88433960Y-74282639D01*
X88473734Y-74482598D01*
X88551755Y-74670956D01*
X88665023Y-74840474D01*
X88733960Y-74909411D01*
X88733961Y-76439028D01*
X88665023Y-76507966D01*
X88551755Y-76677484D01*
X88473734Y-76865842D01*
X88433960Y-77065801D01*
X88433960Y-77269679D01*
X88466546Y-77433500D01*
X84274391Y-77433500D01*
X84154654Y-77313763D01*
X83985136Y-77200495D01*
X83796778Y-77122474D01*
X83596819Y-77082700D01*
X83392941Y-77082700D01*
X83371360Y-77086993D01*
X83371360Y-76398665D01*
X83374916Y-76362560D01*
X83360725Y-76218475D01*
X83318697Y-76079927D01*
X83250447Y-75952240D01*
X83158598Y-75840322D01*
X83085047Y-75779960D01*
X82619601Y-75314514D01*
X82654300Y-75140071D01*
X82654300Y-74867249D01*
X82601075Y-74599671D01*
X82496671Y-74347617D01*
X82345099Y-74120774D01*
X82335892Y-74111567D01*
X82385711Y-74106660D01*
X82385712Y-74106660D01*
X82552459Y-74090237D01*
X82766407Y-74025336D01*
X82963583Y-73919944D01*
X83136409Y-73778109D01*
X83171956Y-73734795D01*
X84722945Y-72183807D01*
X84757525Y-72357649D01*
X84861929Y-72609703D01*
X85013501Y-72836546D01*
X85206414Y-73029459D01*
X85433257Y-73181031D01*
X85685311Y-73285435D01*
X85952889Y-73338660D01*
X86225711Y-73338660D01*
X86493289Y-73285435D01*
X86745343Y-73181031D01*
X86972186Y-73029459D01*
X87165099Y-72836546D01*
X87263913Y-72688660D01*
X95480055Y-72688660D01*
X95516160Y-72692216D01*
X95552265Y-72688660D01*
X95660245Y-72678025D01*
X95798793Y-72635997D01*
X95926480Y-72567747D01*
X96038398Y-72475898D01*
X96061419Y-72447847D01*
X101819366Y-66689900D01*
X113249759Y-66689900D01*
X113249759Y-66893778D01*
X113289533Y-67093737D01*
X113367554Y-67282095D01*
X113480822Y-67451613D01*
X113554841Y-67525632D01*
X113554840Y-73243709D01*
X113485903Y-73312646D01*
X113372635Y-73482164D01*
X113294614Y-73670522D01*
X113254840Y-73870481D01*
X113254840Y-74074359D01*
X113294614Y-74274318D01*
X113372635Y-74462676D01*
X113485903Y-74632194D01*
X113630066Y-74776357D01*
X113799584Y-74889625D01*
X113987942Y-74967646D01*
X114187901Y-75007420D01*
X114391779Y-75007420D01*
X114591738Y-74967646D01*
X114780096Y-74889625D01*
X114949614Y-74776357D01*
X115093777Y-74632194D01*
X115207045Y-74462676D01*
X115285066Y-74274318D01*
X115324840Y-74074359D01*
X115324840Y-73870481D01*
X115285066Y-73670522D01*
X115207045Y-73482164D01*
X115093777Y-73312646D01*
X115024840Y-73243709D01*
X115024840Y-67515469D01*
X115088696Y-67451613D01*
X115201964Y-67282095D01*
X115279985Y-67093737D01*
X115319759Y-66893778D01*
X115319759Y-66689900D01*
X115279985Y-66489941D01*
X115201964Y-66301583D01*
X115088696Y-66132065D01*
X114944533Y-65987902D01*
X114775015Y-65874634D01*
X114586657Y-65796613D01*
X114386698Y-65756839D01*
X114182820Y-65756839D01*
X113982861Y-65796613D01*
X113794503Y-65874634D01*
X113624985Y-65987902D01*
X113480822Y-66132065D01*
X113367554Y-66301583D01*
X113289533Y-66489941D01*
X113249759Y-66689900D01*
X101819366Y-66689900D01*
X113113187Y-55396080D01*
X113210679Y-55396080D01*
X113410638Y-55356306D01*
X113598996Y-55278285D01*
X113768514Y-55165017D01*
X113912677Y-55020854D01*
X114025945Y-54851336D01*
X114103966Y-54662978D01*
X114143740Y-54463019D01*
X114143740Y-54259141D01*
X114103966Y-54059182D01*
X114025945Y-53870824D01*
X113912677Y-53701306D01*
X113768514Y-53557143D01*
X113598996Y-53443875D01*
X113410638Y-53365854D01*
X113210679Y-53326080D01*
X113006801Y-53326080D01*
X112806842Y-53365854D01*
X112618484Y-53443875D01*
X112448966Y-53557143D01*
X112304803Y-53701306D01*
X112191535Y-53870824D01*
X112113514Y-54059182D01*
X112073740Y-54259141D01*
X112073740Y-54356633D01*
X95211714Y-71218660D01*
X87263913Y-71218660D01*
X87165099Y-71070774D01*
X86972186Y-70877861D01*
X86868620Y-70808660D01*
X86972186Y-70739459D01*
X87165099Y-70546546D01*
X87316671Y-70319703D01*
X87421075Y-70067649D01*
X87474300Y-69800071D01*
X87474300Y-69758221D01*
X91832480Y-69758221D01*
X91832480Y-69962099D01*
X91872254Y-70162058D01*
X91950275Y-70350416D01*
X92063543Y-70519934D01*
X92207706Y-70664097D01*
X92377224Y-70777365D01*
X92565582Y-70855386D01*
X92765541Y-70895160D01*
X92969419Y-70895160D01*
X93169378Y-70855386D01*
X93357736Y-70777365D01*
X93527254Y-70664097D01*
X93671417Y-70519934D01*
X93784685Y-70350416D01*
X93844912Y-70205017D01*
X94082875Y-69967053D01*
X94118564Y-69937764D01*
X94235406Y-69795392D01*
X94308563Y-69658524D01*
X94322227Y-69632961D01*
X94375692Y-69456712D01*
X94393744Y-69273420D01*
X94389220Y-69227485D01*
X94389220Y-65380907D01*
X94451986Y-65229378D01*
X94491760Y-65029419D01*
X94491760Y-64825541D01*
X94451986Y-64625582D01*
X94391760Y-64480185D01*
X94391760Y-63244669D01*
X94860668Y-62775761D01*
X97390000Y-62775761D01*
X97390000Y-62979639D01*
X97429774Y-63179598D01*
X97507795Y-63367956D01*
X97621063Y-63537474D01*
X97765226Y-63681637D01*
X97934744Y-63794905D01*
X98123102Y-63872926D01*
X98323061Y-63912700D01*
X98526939Y-63912700D01*
X98726898Y-63872926D01*
X98915256Y-63794905D01*
X99084774Y-63681637D01*
X99153711Y-63612700D01*
X101211649Y-63612700D01*
X101280586Y-63681637D01*
X101450104Y-63794905D01*
X101638462Y-63872926D01*
X101838421Y-63912700D01*
X102042299Y-63912700D01*
X102242258Y-63872926D01*
X102430616Y-63794905D01*
X102600134Y-63681637D01*
X102744297Y-63537474D01*
X102857565Y-63367956D01*
X102935586Y-63179598D01*
X102975360Y-62979639D01*
X102975360Y-62775761D01*
X102935586Y-62575802D01*
X102857565Y-62387444D01*
X102744297Y-62217926D01*
X102600134Y-62073763D01*
X102430616Y-61960495D01*
X102242258Y-61882474D01*
X102042299Y-61842700D01*
X101838421Y-61842700D01*
X101638462Y-61882474D01*
X101450104Y-61960495D01*
X101280586Y-62073763D01*
X101211649Y-62142700D01*
X99153711Y-62142700D01*
X99084774Y-62073763D01*
X98915256Y-61960495D01*
X98726898Y-61882474D01*
X98526939Y-61842700D01*
X98323061Y-61842700D01*
X98123102Y-61882474D01*
X97934744Y-61960495D01*
X97765226Y-62073763D01*
X97621063Y-62217926D01*
X97507795Y-62387444D01*
X97429774Y-62575802D01*
X97390000Y-62775761D01*
X94860668Y-62775761D01*
X106587230Y-51049200D01*
X122849428Y-51049200D01*
X122895360Y-51053724D01*
X122941292Y-51049200D01*
X123078652Y-51035671D01*
X123254900Y-50982207D01*
X123417332Y-50895386D01*
X123559704Y-50778544D01*
X123588990Y-50742859D01*
X124583790Y-49748060D01*
X131414649Y-49748060D01*
X131470400Y-49753551D01*
X131526151Y-49748060D01*
X131526152Y-49748060D01*
X131692899Y-49731637D01*
X131906847Y-49666736D01*
X132104023Y-49561344D01*
X132213813Y-49471241D01*
X139637820Y-49471241D01*
X139637820Y-49675119D01*
X139677594Y-49875078D01*
X139755615Y-50063436D01*
X139868883Y-50232954D01*
X140013046Y-50377117D01*
X140182564Y-50490385D01*
X140370922Y-50568406D01*
X140570881Y-50608180D01*
X140774759Y-50608180D01*
X140974718Y-50568406D01*
X141120115Y-50508180D01*
X143949208Y-50508180D01*
X143995140Y-50512704D01*
X144041072Y-50508180D01*
X144178432Y-50494651D01*
X144354680Y-50441187D01*
X144517112Y-50354366D01*
X144659484Y-50237524D01*
X144688770Y-50201839D01*
X149834320Y-45056290D01*
X149834321Y-55152350D01*
X149442231Y-55544440D01*
X149156635Y-55544440D01*
X149011238Y-55484214D01*
X148811279Y-55444440D01*
X148607401Y-55444440D01*
X148407442Y-55484214D01*
X148219084Y-55562235D01*
X148049566Y-55675503D01*
X147905403Y-55819666D01*
X147792135Y-55989184D01*
X147714114Y-56177542D01*
X147674340Y-56377501D01*
X147674340Y-56581379D01*
X147714114Y-56781338D01*
X147792135Y-56969696D01*
X147905403Y-57139214D01*
X148049566Y-57283377D01*
X148219084Y-57396645D01*
X148407442Y-57474666D01*
X148607401Y-57514440D01*
X148811279Y-57514440D01*
X149011238Y-57474666D01*
X149156635Y-57414440D01*
X149783588Y-57414440D01*
X149829520Y-57418964D01*
X149875452Y-57414440D01*
X150012812Y-57400911D01*
X150189060Y-57347447D01*
X150351492Y-57260626D01*
X150493864Y-57143784D01*
X150523150Y-57108099D01*
X151397979Y-56233270D01*
X151433664Y-56203984D01*
X151550506Y-56061612D01*
X151637327Y-55899180D01*
X151690791Y-55722932D01*
X151704320Y-55585572D01*
X151708844Y-55539640D01*
X151704320Y-55493708D01*
X151704320Y-45042075D01*
X151764546Y-44896678D01*
X151804320Y-44696719D01*
X151804320Y-44492841D01*
X151764546Y-44292882D01*
X151718219Y-44181040D01*
X157438151Y-44181040D01*
X159519340Y-46262230D01*
X159519341Y-56931302D01*
X159459114Y-57076702D01*
X159419340Y-57276661D01*
X159419340Y-57480539D01*
X159459114Y-57680498D01*
X159537135Y-57868856D01*
X159650403Y-58038374D01*
X159794566Y-58182537D01*
X159964084Y-58295805D01*
X160152442Y-58373826D01*
X160352401Y-58413600D01*
X160556279Y-58413600D01*
X160756238Y-58373826D01*
X160944596Y-58295805D01*
X161114114Y-58182537D01*
X161258277Y-58038374D01*
X161371545Y-57868856D01*
X161449566Y-57680498D01*
X161489340Y-57480539D01*
X161489340Y-57276661D01*
X161449566Y-57076702D01*
X161389340Y-56931305D01*
X161389340Y-45920871D01*
X161393864Y-45874939D01*
X161375811Y-45691647D01*
X161322347Y-45515401D01*
X161322347Y-45515400D01*
X161235526Y-45352968D01*
X161118684Y-45210596D01*
X161083006Y-45181316D01*
X158519070Y-42617381D01*
X158489784Y-42581696D01*
X158347412Y-42464854D01*
X158184980Y-42378033D01*
X158008732Y-42324569D01*
X157871372Y-42311040D01*
X157825440Y-42306516D01*
X157779508Y-42311040D01*
X150368211Y-42311040D01*
X150322279Y-42306516D01*
X150138987Y-42324569D01*
X150085523Y-42340787D01*
X149962740Y-42378033D01*
X149800308Y-42464854D01*
X149657936Y-42581696D01*
X149628655Y-42617375D01*
X143607851Y-48638180D01*
X141120115Y-48638180D01*
X140974718Y-48577954D01*
X140774759Y-48538180D01*
X140570881Y-48538180D01*
X140370922Y-48577954D01*
X140182564Y-48655975D01*
X140013046Y-48769243D01*
X139868883Y-48913406D01*
X139755615Y-49082924D01*
X139677594Y-49271282D01*
X139637820Y-49471241D01*
X132213813Y-49471241D01*
X132276849Y-49419509D01*
X132312396Y-49376195D01*
X139857712Y-41830880D01*
X140408532Y-41830880D01*
X140575279Y-41814457D01*
X140789227Y-41749556D01*
X140986403Y-41644164D01*
X141159229Y-41502329D01*
X141301064Y-41329503D01*
X141406456Y-41132327D01*
X141471357Y-40918379D01*
X141493271Y-40695880D01*
X141484875Y-40610629D01*
X162427280Y-40610629D01*
X162427280Y-41228171D01*
X162547756Y-41833846D01*
X162784079Y-42404379D01*
X163127166Y-42917846D01*
X163563834Y-43354514D01*
X164077301Y-43697601D01*
X164647834Y-43933924D01*
X165253509Y-44054400D01*
X165871051Y-44054400D01*
X166476726Y-43933924D01*
X167047259Y-43697601D01*
X167560726Y-43354514D01*
X167997394Y-42917846D01*
X168340481Y-42404379D01*
X168576804Y-41833846D01*
X168697280Y-41228171D01*
X168697280Y-40610629D01*
X168576804Y-40004954D01*
X168340481Y-39434421D01*
X167997394Y-38920954D01*
X167560726Y-38484286D01*
X167047259Y-38141199D01*
X166476726Y-37904876D01*
X165871051Y-37784400D01*
X165253509Y-37784400D01*
X164647834Y-37904876D01*
X164077301Y-38141199D01*
X163563834Y-38484286D01*
X163127166Y-38920954D01*
X162784079Y-39434421D01*
X162547756Y-40004954D01*
X162427280Y-40610629D01*
X141484875Y-40610629D01*
X141471357Y-40473381D01*
X141406456Y-40259433D01*
X141301064Y-40062257D01*
X141159229Y-39889431D01*
X140986403Y-39747596D01*
X140789227Y-39642204D01*
X140575279Y-39577303D01*
X140408532Y-39560880D01*
X139443321Y-39560880D01*
X139387579Y-39555390D01*
X139331837Y-39560880D01*
X139331828Y-39560880D01*
X139165081Y-39577303D01*
X138951133Y-39642204D01*
X138753957Y-39747596D01*
X138581131Y-39889431D01*
X138545589Y-39932739D01*
X131000269Y-47478060D01*
X124452241Y-47478060D01*
X124396499Y-47472570D01*
X124340758Y-47478060D01*
X124340748Y-47478060D01*
X124174001Y-47494483D01*
X123960053Y-47559384D01*
X123762877Y-47664776D01*
X123590051Y-47806611D01*
X123554504Y-47849925D01*
X123544352Y-47860077D01*
X123438057Y-47989598D01*
X123332664Y-48186774D01*
X123267763Y-48400722D01*
X123265711Y-48421560D01*
X122508071Y-49179200D01*
X106245872Y-49179200D01*
X106199940Y-49174676D01*
X106154008Y-49179200D01*
X106016648Y-49192729D01*
X105840400Y-49246193D01*
X105677968Y-49333014D01*
X105535596Y-49449856D01*
X105506316Y-49485534D01*
X92828096Y-62163755D01*
X92792417Y-62193036D01*
X92675575Y-62335408D01*
X92641561Y-62399045D01*
X92588754Y-62497840D01*
X92535289Y-62674089D01*
X92517236Y-62857380D01*
X92521761Y-62903322D01*
X92521760Y-64480184D01*
X92461534Y-64625582D01*
X92421760Y-64825541D01*
X92421760Y-65029419D01*
X92461534Y-65229378D01*
X92519221Y-65368646D01*
X92519220Y-68884138D01*
X92377224Y-68942955D01*
X92207706Y-69056223D01*
X92063543Y-69200386D01*
X91950275Y-69369904D01*
X91872254Y-69558262D01*
X91832480Y-69758221D01*
X87474300Y-69758221D01*
X87474300Y-69527249D01*
X87421075Y-69259671D01*
X87316671Y-69007617D01*
X87165099Y-68780774D01*
X86972186Y-68587861D01*
X86745343Y-68436289D01*
X86493289Y-68331885D01*
X86225711Y-68278660D01*
X85952889Y-68278660D01*
X85685311Y-68331885D01*
X85433257Y-68436289D01*
X85302980Y-68523338D01*
X85302980Y-54330831D01*
X87999441Y-51634371D01*
X88042749Y-51598829D01*
X88184584Y-51426003D01*
X88289976Y-51228827D01*
X88354877Y-51014879D01*
X88371300Y-50848132D01*
X88371300Y-50848131D01*
X88376791Y-50792380D01*
X88371300Y-50736628D01*
X88371300Y-50325920D01*
X90675828Y-50325920D01*
X90675828Y-52025920D01*
X90688088Y-52150402D01*
X90724398Y-52270100D01*
X90783363Y-52380414D01*
X90862715Y-52477105D01*
X90959406Y-52556457D01*
X91069720Y-52615422D01*
X91142280Y-52637433D01*
X91010425Y-52769288D01*
X90847910Y-53012509D01*
X90735968Y-53282762D01*
X90678900Y-53569660D01*
X90678900Y-53862180D01*
X90735968Y-54149078D01*
X90847910Y-54419331D01*
X91010425Y-54662552D01*
X91217268Y-54869395D01*
X91460489Y-55031910D01*
X91730742Y-55143852D01*
X92017640Y-55200920D01*
X92310160Y-55200920D01*
X92597058Y-55143852D01*
X92867311Y-55031910D01*
X93110532Y-54869395D01*
X93317375Y-54662552D01*
X93479890Y-54419331D01*
X93591832Y-54149078D01*
X93648900Y-53862180D01*
X93648900Y-53569660D01*
X93591832Y-53282762D01*
X93479890Y-53012509D01*
X93317375Y-52769288D01*
X93185520Y-52637433D01*
X93258080Y-52615422D01*
X93368394Y-52556457D01*
X93465085Y-52477105D01*
X93544437Y-52380414D01*
X93603402Y-52270100D01*
X93639712Y-52150402D01*
X93651972Y-52025920D01*
X93651972Y-50325920D01*
X93639712Y-50201438D01*
X93603402Y-50081740D01*
X93544437Y-49971426D01*
X93465085Y-49874735D01*
X93368394Y-49795383D01*
X93258080Y-49736418D01*
X93138382Y-49700108D01*
X93013900Y-49687848D01*
X91313900Y-49687848D01*
X91189418Y-49700108D01*
X91069720Y-49736418D01*
X90959406Y-49795383D01*
X90862715Y-49874735D01*
X90783363Y-49971426D01*
X90724398Y-50081740D01*
X90688088Y-50201438D01*
X90675828Y-50325920D01*
X88371300Y-50325920D01*
X88371300Y-49103408D01*
X88354877Y-48936661D01*
X88289976Y-48722713D01*
X88184584Y-48525537D01*
X88042749Y-48352711D01*
X87869923Y-48210876D01*
X87672747Y-48105484D01*
X87458799Y-48040583D01*
X87236300Y-48018669D01*
X87013802Y-48040583D01*
X86799854Y-48105484D01*
X86602678Y-48210876D01*
X86534880Y-48266517D01*
X86534880Y-44513972D01*
X87149880Y-44513972D01*
X87274362Y-44501712D01*
X87394060Y-44465402D01*
X87504374Y-44406437D01*
X87601065Y-44327085D01*
X87680417Y-44230394D01*
X87739382Y-44120080D01*
X87775692Y-44000382D01*
X87787952Y-43875900D01*
X87787952Y-40702069D01*
X90268420Y-40702069D01*
X90268420Y-41319611D01*
X90388896Y-41925286D01*
X90625219Y-42495819D01*
X90968306Y-43009286D01*
X91404974Y-43445954D01*
X91918441Y-43789041D01*
X92488974Y-44025364D01*
X93094649Y-44145840D01*
X93712191Y-44145840D01*
X94317866Y-44025364D01*
X94888399Y-43789041D01*
X95401866Y-43445954D01*
X95838534Y-43009286D01*
X96181621Y-42495819D01*
X96268191Y-42286820D01*
X111143148Y-42286820D01*
X111143148Y-43986820D01*
X111155408Y-44111302D01*
X111191718Y-44231000D01*
X111250683Y-44341314D01*
X111330035Y-44438005D01*
X111426726Y-44517357D01*
X111537040Y-44576322D01*
X111656738Y-44612632D01*
X111781220Y-44624892D01*
X113481220Y-44624892D01*
X113605702Y-44612632D01*
X113725400Y-44576322D01*
X113835714Y-44517357D01*
X113932405Y-44438005D01*
X114011757Y-44341314D01*
X114070722Y-44231000D01*
X114107032Y-44111302D01*
X114119292Y-43986820D01*
X114119292Y-42990560D01*
X116226220Y-42990560D01*
X116226220Y-43283080D01*
X116283288Y-43569978D01*
X116395230Y-43840231D01*
X116557745Y-44083452D01*
X116764588Y-44290295D01*
X117007809Y-44452810D01*
X117278062Y-44564752D01*
X117564960Y-44621820D01*
X117857480Y-44621820D01*
X118144378Y-44564752D01*
X118414631Y-44452810D01*
X118657852Y-44290295D01*
X118864695Y-44083452D01*
X119027210Y-43840231D01*
X119139152Y-43569978D01*
X119196220Y-43283080D01*
X119196220Y-42990560D01*
X119139152Y-42703662D01*
X119027210Y-42433409D01*
X118905502Y-42251260D01*
X120089028Y-42251260D01*
X120089028Y-43951260D01*
X120101288Y-44075742D01*
X120137598Y-44195440D01*
X120196563Y-44305754D01*
X120275915Y-44402445D01*
X120372606Y-44481797D01*
X120482920Y-44540762D01*
X120602618Y-44577072D01*
X120727100Y-44589332D01*
X122427100Y-44589332D01*
X122551582Y-44577072D01*
X122671280Y-44540762D01*
X122781594Y-44481797D01*
X122878285Y-44402445D01*
X122957637Y-44305754D01*
X123016602Y-44195440D01*
X123052912Y-44075742D01*
X123065172Y-43951260D01*
X123065172Y-42955000D01*
X125172100Y-42955000D01*
X125172100Y-43247520D01*
X125229168Y-43534418D01*
X125341110Y-43804671D01*
X125503625Y-44047892D01*
X125710468Y-44254735D01*
X125953689Y-44417250D01*
X126223942Y-44529192D01*
X126510840Y-44586260D01*
X126803360Y-44586260D01*
X127090258Y-44529192D01*
X127360511Y-44417250D01*
X127603732Y-44254735D01*
X127810575Y-44047892D01*
X127973090Y-43804671D01*
X128085032Y-43534418D01*
X128142100Y-43247520D01*
X128142100Y-42955000D01*
X128085032Y-42668102D01*
X127973090Y-42397849D01*
X127810575Y-42154628D01*
X127603732Y-41947785D01*
X127360511Y-41785270D01*
X127090258Y-41673328D01*
X126803360Y-41616260D01*
X126510840Y-41616260D01*
X126223942Y-41673328D01*
X125953689Y-41785270D01*
X125710468Y-41947785D01*
X125503625Y-42154628D01*
X125341110Y-42397849D01*
X125229168Y-42668102D01*
X125172100Y-42955000D01*
X123065172Y-42955000D01*
X123065172Y-42251260D01*
X123052912Y-42126778D01*
X123016602Y-42007080D01*
X122957637Y-41896766D01*
X122878285Y-41800075D01*
X122781594Y-41720723D01*
X122671280Y-41661758D01*
X122551582Y-41625448D01*
X122427100Y-41613188D01*
X120727100Y-41613188D01*
X120602618Y-41625448D01*
X120482920Y-41661758D01*
X120372606Y-41720723D01*
X120275915Y-41800075D01*
X120196563Y-41896766D01*
X120137598Y-42007080D01*
X120101288Y-42126778D01*
X120089028Y-42251260D01*
X118905502Y-42251260D01*
X118864695Y-42190188D01*
X118657852Y-41983345D01*
X118414631Y-41820830D01*
X118144378Y-41708888D01*
X117857480Y-41651820D01*
X117564960Y-41651820D01*
X117278062Y-41708888D01*
X117007809Y-41820830D01*
X116764588Y-41983345D01*
X116557745Y-42190188D01*
X116395230Y-42433409D01*
X116283288Y-42703662D01*
X116226220Y-42990560D01*
X114119292Y-42990560D01*
X114119292Y-42286820D01*
X114107032Y-42162338D01*
X114070722Y-42042640D01*
X114011757Y-41932326D01*
X113932405Y-41835635D01*
X113835714Y-41756283D01*
X113725400Y-41697318D01*
X113605702Y-41661008D01*
X113481220Y-41648748D01*
X111781220Y-41648748D01*
X111656738Y-41661008D01*
X111537040Y-41697318D01*
X111426726Y-41756283D01*
X111330035Y-41835635D01*
X111250683Y-41932326D01*
X111191718Y-42042640D01*
X111155408Y-42162338D01*
X111143148Y-42286820D01*
X96268191Y-42286820D01*
X96417944Y-41925286D01*
X96538420Y-41319611D01*
X96538420Y-40702069D01*
X96417944Y-40096394D01*
X96181621Y-39525861D01*
X95838534Y-39012394D01*
X95401866Y-38575726D01*
X94888399Y-38232639D01*
X94317866Y-37996316D01*
X93712191Y-37875840D01*
X93094649Y-37875840D01*
X92488974Y-37996316D01*
X91918441Y-38232639D01*
X91404974Y-38575726D01*
X90968306Y-39012394D01*
X90625219Y-39525861D01*
X90388896Y-40096394D01*
X90268420Y-40702069D01*
X87787952Y-40702069D01*
X87787952Y-40375900D01*
X87775692Y-40251418D01*
X87739382Y-40131720D01*
X87680417Y-40021406D01*
X87601065Y-39924715D01*
X87504374Y-39845363D01*
X87394060Y-39786398D01*
X87274362Y-39750088D01*
X87149880Y-39737828D01*
X83649880Y-39737828D01*
X83525398Y-39750088D01*
X83405700Y-39786398D01*
X83295386Y-39845363D01*
X83198695Y-39924715D01*
X83119343Y-40021406D01*
X83060378Y-40131720D01*
X83024068Y-40251418D01*
X83011808Y-40375900D01*
X83011808Y-43875900D01*
X83024068Y-44000382D01*
X83060378Y-44120080D01*
X83119343Y-44230394D01*
X83198695Y-44327085D01*
X83295386Y-44406437D01*
X83372011Y-44447394D01*
X83274880Y-44437828D01*
X81524880Y-44437828D01*
X81229694Y-44466901D01*
X80945852Y-44553004D01*
X80684262Y-44692827D01*
X80454977Y-44880997D01*
X80266807Y-45110282D01*
X80126984Y-45371872D01*
X80040881Y-45655714D01*
X80011808Y-45950900D01*
X80011808Y-47700900D01*
X80040881Y-47996086D01*
X80126984Y-48279928D01*
X80266807Y-48541518D01*
X80454977Y-48770803D01*
X80684262Y-48958973D01*
X80945852Y-49098796D01*
X81229694Y-49184899D01*
X81524880Y-49213972D01*
X83274880Y-49213972D01*
X83570066Y-49184899D01*
X83853908Y-49098796D01*
X84115498Y-48958973D01*
X84264880Y-48836378D01*
X84264880Y-49207188D01*
X81781780Y-51690289D01*
X81738472Y-51725831D01*
X81596637Y-51898657D01*
X81540304Y-52004050D01*
X81491244Y-52095834D01*
X81426343Y-52309782D01*
X81404429Y-52532280D01*
X81409921Y-52588042D01*
X81409920Y-66935497D01*
X81224815Y-66811813D01*
X80899965Y-66677256D01*
X80555107Y-66608660D01*
X80203493Y-66608660D01*
X79858635Y-66677256D01*
X79533785Y-66811813D01*
X79241429Y-67007160D01*
X78992800Y-67255789D01*
X78797453Y-67548145D01*
X78662896Y-67872995D01*
X78594300Y-68217853D01*
X78594300Y-68569467D01*
X78607478Y-68635716D01*
X78389966Y-68418204D01*
X78019811Y-68170874D01*
X77608518Y-68000511D01*
X77171891Y-67913660D01*
X76726709Y-67913660D01*
X76290082Y-68000511D01*
X75878789Y-68170874D01*
X75508634Y-68418204D01*
X75193844Y-68732994D01*
X74946514Y-69103149D01*
X74776151Y-69514442D01*
X74689300Y-69951069D01*
X74689300Y-70396251D01*
X74776151Y-70832878D01*
X74946514Y-71244171D01*
X75193844Y-71614326D01*
X75508634Y-71929116D01*
X75878789Y-72176446D01*
X76290082Y-72346809D01*
X76726709Y-72433660D01*
X76827049Y-72433660D01*
X76661140Y-72599569D01*
X76617832Y-72635111D01*
X76475997Y-72807937D01*
X76420449Y-72911861D01*
X76370604Y-73005114D01*
X76332981Y-73129139D01*
X76305703Y-73219061D01*
X76294617Y-73331617D01*
X76283789Y-73441560D01*
X76289280Y-73497311D01*
X76289280Y-74959549D01*
X76283789Y-75015300D01*
X76289280Y-75071051D01*
X76305703Y-75237798D01*
X76370604Y-75451746D01*
X76475996Y-75648923D01*
X76617831Y-75821749D01*
X76661144Y-75857295D01*
X77586653Y-76782805D01*
X77622191Y-76826109D01*
X77665494Y-76861647D01*
X77665496Y-76861649D01*
X77761110Y-76940117D01*
X77795017Y-76967944D01*
X77992193Y-77073336D01*
X78206141Y-77138237D01*
X78299379Y-77147420D01*
X78422708Y-77159567D01*
X78413501Y-77168774D01*
X78261929Y-77395617D01*
X78157525Y-77647671D01*
X78104300Y-77915249D01*
X78104300Y-78188071D01*
X78157525Y-78455649D01*
X78261929Y-78707703D01*
X78346624Y-78834458D01*
X78288115Y-78882475D01*
X78208763Y-78979166D01*
X78149798Y-79089480D01*
X78113488Y-79209178D01*
X78101228Y-79333660D01*
X78101228Y-80833660D01*
X78110887Y-80931729D01*
X78019811Y-80870874D01*
X77608518Y-80700511D01*
X77171891Y-80613660D01*
X76726709Y-80613660D01*
X76290082Y-80700511D01*
X75878789Y-80870874D01*
X75508634Y-81118204D01*
X75193844Y-81432994D01*
X74946514Y-81803149D01*
X74776151Y-82214442D01*
X74689300Y-82651069D01*
X74689300Y-83096251D01*
X74776151Y-83532878D01*
X74946514Y-83944171D01*
X75193844Y-84314326D01*
X75508634Y-84629116D01*
X75878789Y-84876446D01*
X76290082Y-85046809D01*
X76726709Y-85133660D01*
X77171891Y-85133660D01*
X77608518Y-85046809D01*
X78019811Y-84876446D01*
X78389966Y-84629116D01*
X78607478Y-84411604D01*
X78594300Y-84477853D01*
X78594300Y-84829467D01*
X78662896Y-85174325D01*
X78797453Y-85499175D01*
X78931641Y-85700000D01*
X71780000Y-85700000D01*
X71780000Y-65519346D01*
X71949017Y-65688363D01*
X72298698Y-65922012D01*
X72687244Y-66082953D01*
X73099721Y-66165000D01*
X73520279Y-66165000D01*
X73932756Y-66082953D01*
X74321302Y-65922012D01*
X74670983Y-65688363D01*
X74968363Y-65390983D01*
X75202012Y-65041302D01*
X75362953Y-64652756D01*
X75445000Y-64240279D01*
X75445000Y-63819721D01*
X76855000Y-63819721D01*
X76855000Y-64240279D01*
X76937047Y-64652756D01*
X77097988Y-65041302D01*
X77331637Y-65390983D01*
X77629017Y-65688363D01*
X77978698Y-65922012D01*
X78367244Y-66082953D01*
X78779721Y-66165000D01*
X79200279Y-66165000D01*
X79612756Y-66082953D01*
X80001302Y-65922012D01*
X80350983Y-65688363D01*
X80648363Y-65390983D01*
X80882012Y-65041302D01*
X81042953Y-64652756D01*
X81125000Y-64240279D01*
X81125000Y-63819721D01*
X81042953Y-63407244D01*
X80882012Y-63018698D01*
X80648363Y-62669017D01*
X80350983Y-62371637D01*
X80001302Y-62137988D01*
X79612756Y-61977047D01*
X79200279Y-61895000D01*
X78779721Y-61895000D01*
X78367244Y-61977047D01*
X77978698Y-62137988D01*
X77629017Y-62371637D01*
X77331637Y-62669017D01*
X77097988Y-63018698D01*
X76937047Y-63407244D01*
X76855000Y-63819721D01*
X75445000Y-63819721D01*
X75362953Y-63407244D01*
X75202012Y-63018698D01*
X74968363Y-62669017D01*
X74670983Y-62371637D01*
X74591487Y-62318520D01*
X74654180Y-62299502D01*
X74764494Y-62240537D01*
X74861185Y-62161185D01*
X74940537Y-62064494D01*
X74999502Y-61954180D01*
X75035812Y-61834482D01*
X75048072Y-61710000D01*
X75048072Y-61605041D01*
X75052629Y-61616043D01*
X75204201Y-61842886D01*
X75397114Y-62035799D01*
X75623957Y-62187371D01*
X75876011Y-62291775D01*
X76143589Y-62345000D01*
X76416411Y-62345000D01*
X76683989Y-62291775D01*
X76936043Y-62187371D01*
X77162886Y-62035799D01*
X77355799Y-61842886D01*
X77507371Y-61616043D01*
X77611775Y-61363989D01*
X77665000Y-61096411D01*
X77665000Y-60823589D01*
X77611775Y-60556011D01*
X77507371Y-60303957D01*
X77355799Y-60077114D01*
X77162886Y-59884201D01*
X76936043Y-59732629D01*
X76881412Y-59710000D01*
X76936043Y-59687371D01*
X77162886Y-59535799D01*
X77355799Y-59342886D01*
X77507371Y-59116043D01*
X77611775Y-58863989D01*
X77665000Y-58596411D01*
X77665000Y-58323589D01*
X77611775Y-58056011D01*
X77507371Y-57803957D01*
X77355799Y-57577114D01*
X77238685Y-57460000D01*
X77355799Y-57342886D01*
X77507371Y-57116043D01*
X77611775Y-56863989D01*
X77665000Y-56596411D01*
X77665000Y-56323589D01*
X77611775Y-56056011D01*
X77507371Y-55803957D01*
X77355799Y-55577114D01*
X77162886Y-55384201D01*
X76936043Y-55232629D01*
X76881412Y-55210000D01*
X76936043Y-55187371D01*
X77162886Y-55035799D01*
X77355799Y-54842886D01*
X77507371Y-54616043D01*
X77611775Y-54363989D01*
X77665000Y-54096411D01*
X77665000Y-53823589D01*
X77611775Y-53556011D01*
X77507371Y-53303957D01*
X77355799Y-53077114D01*
X77162886Y-52884201D01*
X76936043Y-52732629D01*
X76683989Y-52628225D01*
X76416411Y-52575000D01*
X76143589Y-52575000D01*
X75876011Y-52628225D01*
X75623957Y-52732629D01*
X75397114Y-52884201D01*
X75204201Y-53077114D01*
X75052629Y-53303957D01*
X74948225Y-53556011D01*
X74895000Y-53823589D01*
X74895000Y-54096411D01*
X74948225Y-54363989D01*
X75052629Y-54616043D01*
X75204201Y-54842886D01*
X75397114Y-55035799D01*
X75623957Y-55187371D01*
X75678588Y-55210000D01*
X75623957Y-55232629D01*
X75397114Y-55384201D01*
X75204201Y-55577114D01*
X75052629Y-55803957D01*
X74970000Y-56003441D01*
X74887371Y-55803957D01*
X74735799Y-55577114D01*
X74542886Y-55384201D01*
X74316043Y-55232629D01*
X74063989Y-55128225D01*
X73796411Y-55075000D01*
X73523589Y-55075000D01*
X73256011Y-55128225D01*
X73003957Y-55232629D01*
X72777114Y-55384201D01*
X72584201Y-55577114D01*
X72432629Y-55803957D01*
X72328225Y-56056011D01*
X72275000Y-56323589D01*
X72275000Y-56596411D01*
X72328225Y-56863989D01*
X72432629Y-57116043D01*
X72584201Y-57342886D01*
X72701315Y-57460000D01*
X72584201Y-57577114D01*
X72432629Y-57803957D01*
X72328225Y-58056011D01*
X72275000Y-58323589D01*
X72275000Y-58596411D01*
X72328225Y-58863989D01*
X72432629Y-59116043D01*
X72584201Y-59342886D01*
X72777114Y-59535799D01*
X72841310Y-59578693D01*
X72785518Y-59584188D01*
X72665820Y-59620498D01*
X72555506Y-59679463D01*
X72458815Y-59758815D01*
X72379463Y-59855506D01*
X72320498Y-59965820D01*
X72284188Y-60085518D01*
X72271928Y-60210000D01*
X72271928Y-61710000D01*
X72284188Y-61834482D01*
X72320498Y-61954180D01*
X72379463Y-62064494D01*
X72403987Y-62094376D01*
X72298698Y-62137988D01*
X71949017Y-62371637D01*
X71780000Y-62540654D01*
X71780000Y-52379346D01*
X71949017Y-52548363D01*
X72298698Y-52782012D01*
X72687244Y-52942953D01*
X73099721Y-53025000D01*
X73520279Y-53025000D01*
X73932756Y-52942953D01*
X74321302Y-52782012D01*
X74670983Y-52548363D01*
X74968363Y-52250983D01*
X75202012Y-51901302D01*
X75362953Y-51512756D01*
X75445000Y-51100279D01*
X75445000Y-50679721D01*
X76855000Y-50679721D01*
X76855000Y-51100279D01*
X76937047Y-51512756D01*
X77097988Y-51901302D01*
X77331637Y-52250983D01*
X77629017Y-52548363D01*
X77978698Y-52782012D01*
X78367244Y-52942953D01*
X78779721Y-53025000D01*
X79200279Y-53025000D01*
X79612756Y-52942953D01*
X80001302Y-52782012D01*
X80350983Y-52548363D01*
X80648363Y-52250983D01*
X80882012Y-51901302D01*
X81042953Y-51512756D01*
X81125000Y-51100279D01*
X81125000Y-50679721D01*
X81042953Y-50267244D01*
X80882012Y-49878698D01*
X80648363Y-49529017D01*
X80350983Y-49231637D01*
X80001302Y-48997988D01*
X79612756Y-48837047D01*
X79200279Y-48755000D01*
X78779721Y-48755000D01*
X78367244Y-48837047D01*
X77978698Y-48997988D01*
X77629017Y-49231637D01*
X77331637Y-49529017D01*
X77097988Y-49878698D01*
X76937047Y-50267244D01*
X76855000Y-50679721D01*
X75445000Y-50679721D01*
X75362953Y-50267244D01*
X75202012Y-49878698D01*
X74968363Y-49529017D01*
X74670983Y-49231637D01*
X74321302Y-48997988D01*
X73932756Y-48837047D01*
X73520279Y-48755000D01*
X73099721Y-48755000D01*
X72687244Y-48837047D01*
X72298698Y-48997988D01*
X71949017Y-49231637D01*
X71780000Y-49400654D01*
X71780000Y-41125900D01*
X77261808Y-41125900D01*
X77261808Y-43125900D01*
X77288479Y-43396699D01*
X77367469Y-43657092D01*
X77495740Y-43897071D01*
X77668365Y-44107415D01*
X77878709Y-44280040D01*
X78118688Y-44408311D01*
X78379081Y-44487301D01*
X78649880Y-44513972D01*
X80149880Y-44513972D01*
X80420679Y-44487301D01*
X80681072Y-44408311D01*
X80921051Y-44280040D01*
X81131395Y-44107415D01*
X81304020Y-43897071D01*
X81432291Y-43657092D01*
X81511281Y-43396699D01*
X81537952Y-43125900D01*
X81537952Y-41125900D01*
X81511281Y-40855101D01*
X81432291Y-40594708D01*
X81304020Y-40354729D01*
X81131395Y-40144385D01*
X80921051Y-39971760D01*
X80707103Y-39857403D01*
X80692337Y-39808727D01*
X80624087Y-39681040D01*
X80532238Y-39569122D01*
X80420320Y-39477273D01*
X80292633Y-39409023D01*
X80154085Y-39366995D01*
X80010000Y-39352804D01*
X79865916Y-39366995D01*
X79727368Y-39409023D01*
X79599681Y-39477273D01*
X79487763Y-39569122D01*
X79395914Y-39681040D01*
X79365560Y-39737828D01*
X78649880Y-39737828D01*
X78379081Y-39764499D01*
X78118688Y-39843489D01*
X77878709Y-39971760D01*
X77668365Y-40144385D01*
X77495740Y-40354729D01*
X77367469Y-40594708D01*
X77288479Y-40855101D01*
X77261808Y-41125900D01*
X71780000Y-41125900D01*
X71780000Y-37490000D01*
X169520000Y-37490000D01*
X169520001Y-85700000D01*
%TA.AperFunction,Conductor*%
D29*
G36*
X169520001Y-85700000D02*
G01*
X134979085Y-85700000D01*
X135050133Y-83286600D01*
X135626327Y-83286600D01*
X137776538Y-83341169D01*
X137801368Y-83339358D01*
X137825368Y-83332738D01*
X137847616Y-83321563D01*
X137867255Y-83306262D01*
X137883533Y-83287424D01*
X137895822Y-83265772D01*
X137903651Y-83242139D01*
X137906757Y-83213396D01*
X137889045Y-80449040D01*
X143804769Y-80449040D01*
X143860520Y-80454531D01*
X143916271Y-80449040D01*
X143916272Y-80449040D01*
X144083019Y-80432617D01*
X144296967Y-80367716D01*
X144494143Y-80262324D01*
X144666969Y-80120489D01*
X144702516Y-80077175D01*
X148271208Y-76508484D01*
X148377503Y-76378963D01*
X148482896Y-76181787D01*
X148547797Y-75967839D01*
X148569711Y-75745340D01*
X148547797Y-75522842D01*
X148482896Y-75308894D01*
X148377503Y-75111718D01*
X148235668Y-74938892D01*
X148062842Y-74797057D01*
X147865666Y-74691664D01*
X147651718Y-74626763D01*
X147429220Y-74604849D01*
X147206721Y-74626763D01*
X146992773Y-74691664D01*
X146795597Y-74797057D01*
X146666076Y-74903352D01*
X143390389Y-78179040D01*
X139000972Y-78179040D01*
X139911961Y-77268051D01*
X139955269Y-77232509D01*
X140097104Y-77059683D01*
X140202496Y-76862507D01*
X140267397Y-76648559D01*
X140283820Y-76481812D01*
X140283820Y-76481803D01*
X140289310Y-76426061D01*
X140283820Y-76370319D01*
X140283820Y-65392348D01*
X140442042Y-65457886D01*
X140642001Y-65497660D01*
X140845879Y-65497660D01*
X141045838Y-65457886D01*
X141191235Y-65397660D01*
X146059948Y-65397660D01*
X146105880Y-65402184D01*
X146151812Y-65397660D01*
X146289172Y-65384131D01*
X146465420Y-65330667D01*
X146627852Y-65243846D01*
X146770224Y-65127004D01*
X146799510Y-65091319D01*
X149878989Y-62011840D01*
X149992947Y-62011840D01*
X149972715Y-62060683D01*
X149932941Y-62260642D01*
X149932941Y-62464520D01*
X149972715Y-62664479D01*
X150032942Y-62809879D01*
X150032941Y-72261290D01*
X149578121Y-72716110D01*
X149196045Y-72716110D01*
X149050648Y-72655884D01*
X148850689Y-72616110D01*
X148646811Y-72616110D01*
X148446852Y-72655884D01*
X148258494Y-72733905D01*
X148088976Y-72847173D01*
X147944813Y-72991336D01*
X147831545Y-73160854D01*
X147753524Y-73349212D01*
X147713750Y-73549171D01*
X147713750Y-73753049D01*
X147753524Y-73953008D01*
X147831545Y-74141366D01*
X147944813Y-74310884D01*
X148088976Y-74455047D01*
X148258494Y-74568315D01*
X148446852Y-74646336D01*
X148646811Y-74686110D01*
X148850689Y-74686110D01*
X149050648Y-74646336D01*
X149196045Y-74586110D01*
X149919478Y-74586110D01*
X149965410Y-74590634D01*
X150011342Y-74586110D01*
X150148702Y-74572581D01*
X150324950Y-74519117D01*
X150487382Y-74432296D01*
X150629754Y-74315454D01*
X150659040Y-74279769D01*
X151596601Y-73342208D01*
X151632285Y-73312923D01*
X151749127Y-73170551D01*
X151835948Y-73008119D01*
X151889412Y-72831871D01*
X151902941Y-72694511D01*
X151902941Y-72694510D01*
X151907465Y-72648579D01*
X151902941Y-72602647D01*
X151902941Y-62809876D01*
X151963167Y-62664479D01*
X152002941Y-62464520D01*
X152002941Y-62260642D01*
X151963167Y-62060683D01*
X151942935Y-62011840D01*
X159869860Y-62011840D01*
X159869861Y-74249492D01*
X159805663Y-74461122D01*
X159789240Y-74627869D01*
X159789240Y-75351408D01*
X159128229Y-76012420D01*
X155524072Y-76012420D01*
X155468320Y-76006929D01*
X155412568Y-76012420D01*
X155245821Y-76028843D01*
X155031873Y-76093744D01*
X154834697Y-76199136D01*
X154661871Y-76340971D01*
X154626331Y-76384277D01*
X149702584Y-81308025D01*
X149697340Y-81307508D01*
X148097340Y-81307508D01*
X147972858Y-81319768D01*
X147853160Y-81356078D01*
X147742846Y-81415043D01*
X147646155Y-81494395D01*
X147566803Y-81591086D01*
X147507838Y-81701400D01*
X147471528Y-81821098D01*
X147459268Y-81945580D01*
X147459268Y-83545580D01*
X147471528Y-83670062D01*
X147507838Y-83789760D01*
X147566803Y-83900074D01*
X147646155Y-83996765D01*
X147742846Y-84076117D01*
X147853160Y-84135082D01*
X147972858Y-84171392D01*
X148097340Y-84183652D01*
X149697340Y-84183652D01*
X149821822Y-84171392D01*
X149941520Y-84135082D01*
X150051834Y-84076117D01*
X150148525Y-83996765D01*
X150227877Y-83900074D01*
X150276959Y-83808250D01*
X150306607Y-83799256D01*
X150503783Y-83693864D01*
X150676609Y-83552029D01*
X150712156Y-83508715D01*
X152430231Y-81790640D01*
X156163848Y-81790640D01*
X156163848Y-83390640D01*
X156176108Y-83515122D01*
X156212418Y-83634820D01*
X156271383Y-83745134D01*
X156350735Y-83841825D01*
X156447426Y-83921177D01*
X156557740Y-83980142D01*
X156677438Y-84016452D01*
X156801920Y-84028712D01*
X158401920Y-84028712D01*
X158526402Y-84016452D01*
X158646100Y-83980142D01*
X158756414Y-83921177D01*
X158853105Y-83841825D01*
X158932457Y-83745134D01*
X158991422Y-83634820D01*
X159027732Y-83515122D01*
X159039992Y-83390640D01*
X159039992Y-81827209D01*
X162427280Y-81827209D01*
X162427280Y-82444751D01*
X162547756Y-83050426D01*
X162784079Y-83620959D01*
X163127166Y-84134426D01*
X163563834Y-84571094D01*
X164077301Y-84914181D01*
X164647834Y-85150504D01*
X165253509Y-85270980D01*
X165871051Y-85270980D01*
X166476726Y-85150504D01*
X167047259Y-84914181D01*
X167560726Y-84571094D01*
X167997394Y-84134426D01*
X168340481Y-83620959D01*
X168576804Y-83050426D01*
X168697280Y-82444751D01*
X168697280Y-81827209D01*
X168576804Y-81221534D01*
X168340481Y-80651001D01*
X167997394Y-80137534D01*
X167560726Y-79700866D01*
X167047259Y-79357779D01*
X166476726Y-79121456D01*
X165871051Y-79000980D01*
X165253509Y-79000980D01*
X164647834Y-79121456D01*
X164077301Y-79357779D01*
X163563834Y-79700866D01*
X163127166Y-80137534D01*
X162784079Y-80651001D01*
X162547756Y-81221534D01*
X162427280Y-81827209D01*
X159039992Y-81827209D01*
X159039992Y-81790640D01*
X159027732Y-81666158D01*
X158991422Y-81546460D01*
X158932457Y-81436146D01*
X158853105Y-81339455D01*
X158756414Y-81260103D01*
X158646100Y-81201138D01*
X158526402Y-81164828D01*
X158401920Y-81152568D01*
X156801920Y-81152568D01*
X156677438Y-81164828D01*
X156557740Y-81201138D01*
X156447426Y-81260103D01*
X156350735Y-81339455D01*
X156271383Y-81436146D01*
X156212418Y-81546460D01*
X156176108Y-81666158D01*
X156163848Y-81790640D01*
X152430231Y-81790640D01*
X155938452Y-78282420D01*
X159542609Y-78282420D01*
X159598360Y-78287911D01*
X159654111Y-78282420D01*
X159654112Y-78282420D01*
X159820859Y-78265997D01*
X160034807Y-78201096D01*
X160231983Y-78095704D01*
X160404809Y-77953869D01*
X160440356Y-77910555D01*
X161687380Y-76663532D01*
X161730689Y-76627989D01*
X161872524Y-76455163D01*
X161977916Y-76257986D01*
X162042817Y-76044038D01*
X162059240Y-75877291D01*
X162059240Y-75877283D01*
X162064730Y-75821541D01*
X162059240Y-75765799D01*
X162059240Y-74627868D01*
X162042817Y-74461121D01*
X161977916Y-74247173D01*
X161872524Y-74049997D01*
X161739860Y-73888346D01*
X161739860Y-61663792D01*
X161744384Y-61617860D01*
X161726331Y-61434568D01*
X161693877Y-61327581D01*
X161672867Y-61258320D01*
X161586046Y-61095888D01*
X161469204Y-60953516D01*
X161433515Y-60924227D01*
X160957471Y-60448182D01*
X160928184Y-60412496D01*
X160785812Y-60295654D01*
X160623380Y-60208833D01*
X160447132Y-60155369D01*
X160309772Y-60141840D01*
X160263840Y-60137316D01*
X160217908Y-60141840D01*
X149537635Y-60141840D01*
X149491700Y-60137316D01*
X149308408Y-60155368D01*
X149132159Y-60208833D01*
X149075580Y-60239075D01*
X148969728Y-60295654D01*
X148827356Y-60412496D01*
X148798070Y-60448181D01*
X145718591Y-63527660D01*
X141191235Y-63527660D01*
X141061832Y-63474059D01*
X145410153Y-59125740D01*
X147162392Y-59125740D01*
X147329139Y-59109317D01*
X147543087Y-59044416D01*
X147740263Y-58939024D01*
X147913089Y-58797189D01*
X148054924Y-58624363D01*
X148160316Y-58427187D01*
X148225217Y-58213239D01*
X148247131Y-57990740D01*
X148225217Y-57768241D01*
X148160316Y-57554293D01*
X148054924Y-57357117D01*
X147913089Y-57184291D01*
X147740263Y-57042456D01*
X147543087Y-56937064D01*
X147329139Y-56872163D01*
X147162392Y-56855740D01*
X144995772Y-56855740D01*
X144940020Y-56850249D01*
X144717521Y-56872163D01*
X144503573Y-56937064D01*
X144306397Y-57042456D01*
X144176876Y-57148751D01*
X144176874Y-57148753D01*
X144133571Y-57184291D01*
X144098033Y-57227594D01*
X138385685Y-62939944D01*
X138342371Y-62975491D01*
X138200536Y-63148317D01*
X138095145Y-63345493D01*
X138095144Y-63345494D01*
X138030243Y-63559442D01*
X138008329Y-63781940D01*
X138013820Y-63837692D01*
X138013821Y-75955927D01*
X136093781Y-77875968D01*
X135460840Y-77875968D01*
X135336358Y-77888228D01*
X135216660Y-77924538D01*
X135106346Y-77983503D01*
X135009655Y-78062855D01*
X134930303Y-78159546D01*
X134871338Y-78269860D01*
X134838219Y-78379040D01*
X133009855Y-78379040D01*
X132963920Y-78374516D01*
X132780628Y-78392568D01*
X132688024Y-78420660D01*
X132604380Y-78446033D01*
X132441948Y-78532854D01*
X132299576Y-78649696D01*
X132270290Y-78685381D01*
X129608542Y-81347129D01*
X129594820Y-81344400D01*
X129302300Y-81344400D01*
X129015402Y-81401468D01*
X128745149Y-81513410D01*
X128501928Y-81675925D01*
X128370073Y-81807780D01*
X128348062Y-81735220D01*
X128289097Y-81624906D01*
X128209745Y-81528215D01*
X128113054Y-81448863D01*
X128002740Y-81389898D01*
X127883042Y-81353588D01*
X127758560Y-81341328D01*
X126058560Y-81341328D01*
X125934078Y-81353588D01*
X125814380Y-81389898D01*
X125704066Y-81448863D01*
X125607375Y-81528215D01*
X125528023Y-81624906D01*
X125469058Y-81735220D01*
X125432748Y-81854918D01*
X125420488Y-81979400D01*
X125420488Y-83679400D01*
X125432748Y-83803882D01*
X125469058Y-83923580D01*
X125528023Y-84033894D01*
X125607375Y-84130585D01*
X125704066Y-84209937D01*
X125814380Y-84268902D01*
X125934078Y-84305212D01*
X126058560Y-84317472D01*
X127758560Y-84317472D01*
X127883042Y-84305212D01*
X128002740Y-84268902D01*
X128113054Y-84209937D01*
X128209745Y-84130585D01*
X128289097Y-84033894D01*
X128348062Y-83923580D01*
X128370073Y-83851020D01*
X128501928Y-83982875D01*
X128745149Y-84145390D01*
X129015402Y-84257332D01*
X129302300Y-84314400D01*
X129594820Y-84314400D01*
X129881718Y-84257332D01*
X130151971Y-84145390D01*
X130395192Y-83982875D01*
X130602035Y-83776032D01*
X130764550Y-83532811D01*
X130876492Y-83262558D01*
X130933560Y-82975660D01*
X130933560Y-82683140D01*
X130930831Y-82669418D01*
X133351209Y-80249040D01*
X134838219Y-80249040D01*
X134852548Y-80296277D01*
X134851438Y-80297564D01*
X134839169Y-80319228D01*
X134831363Y-80342868D01*
X134828290Y-80369110D01*
X134762386Y-85700000D01*
X102875966Y-85700000D01*
X103314473Y-85261494D01*
X103342518Y-85238478D01*
X103434367Y-85126560D01*
X103502617Y-84998873D01*
X103544645Y-84860325D01*
X103555280Y-84752345D01*
X103555280Y-84752338D01*
X103558835Y-84716241D01*
X103555280Y-84680144D01*
X103555280Y-84172886D01*
X104274220Y-83453946D01*
X104457688Y-83490440D01*
X104732872Y-83490440D01*
X105002770Y-83436754D01*
X105257007Y-83331445D01*
X105485815Y-83178560D01*
X105595280Y-83069095D01*
X105704745Y-83178560D01*
X105933553Y-83331445D01*
X106187790Y-83436754D01*
X106457688Y-83490440D01*
X106732872Y-83490440D01*
X107002770Y-83436754D01*
X107257007Y-83331445D01*
X107485815Y-83178560D01*
X107595280Y-83069095D01*
X107704745Y-83178560D01*
X107933553Y-83331445D01*
X108187790Y-83436754D01*
X108457688Y-83490440D01*
X108732872Y-83490440D01*
X109002770Y-83436754D01*
X109257007Y-83331445D01*
X109485815Y-83178560D01*
X109595280Y-83069095D01*
X109704745Y-83178560D01*
X109933553Y-83331445D01*
X110187790Y-83436754D01*
X110457688Y-83490440D01*
X110732872Y-83490440D01*
X111002770Y-83436754D01*
X111257007Y-83331445D01*
X111485815Y-83178560D01*
X111680400Y-82983975D01*
X111833285Y-82755167D01*
X111938594Y-82500930D01*
X111992280Y-82231032D01*
X111992280Y-81955848D01*
X111938594Y-81685950D01*
X111833285Y-81431713D01*
X111680400Y-81202905D01*
X111485815Y-81008320D01*
X111257007Y-80855435D01*
X111002770Y-80750126D01*
X110732872Y-80696440D01*
X110457688Y-80696440D01*
X110248381Y-80738074D01*
X107587341Y-78077034D01*
X107595280Y-78069095D01*
X107704745Y-78178560D01*
X107933553Y-78331445D01*
X108187790Y-78436754D01*
X108457688Y-78490440D01*
X108732872Y-78490440D01*
X109002770Y-78436754D01*
X109257007Y-78331445D01*
X109350950Y-78268674D01*
X109382095Y-78306625D01*
X109478786Y-78385977D01*
X109589100Y-78444942D01*
X109708798Y-78481252D01*
X109833280Y-78493512D01*
X111357280Y-78493512D01*
X111481762Y-78481252D01*
X111601460Y-78444942D01*
X111711774Y-78385977D01*
X111808465Y-78306625D01*
X111887817Y-78209934D01*
X111946782Y-78099620D01*
X111983092Y-77979922D01*
X111995352Y-77855440D01*
X111995352Y-76331440D01*
X111983092Y-76206958D01*
X111946782Y-76087260D01*
X111887817Y-75976946D01*
X111808465Y-75880255D01*
X111711774Y-75800903D01*
X111601460Y-75741938D01*
X111481762Y-75705628D01*
X111357280Y-75693368D01*
X109833280Y-75693368D01*
X109708798Y-75705628D01*
X109589100Y-75741938D01*
X109478786Y-75800903D01*
X109382095Y-75880255D01*
X109350950Y-75918206D01*
X109257007Y-75855435D01*
X109002770Y-75750126D01*
X108732872Y-75696440D01*
X108457688Y-75696440D01*
X108187790Y-75750126D01*
X107933553Y-75855435D01*
X107704745Y-76008320D01*
X107595280Y-76117785D01*
X107485815Y-76008320D01*
X107257007Y-75855435D01*
X107002770Y-75750126D01*
X106732872Y-75696440D01*
X106457688Y-75696440D01*
X106187790Y-75750126D01*
X105933553Y-75855435D01*
X105704745Y-76008320D01*
X105595280Y-76117785D01*
X105485815Y-76008320D01*
X105257007Y-75855435D01*
X105002770Y-75750126D01*
X104732872Y-75696440D01*
X104457688Y-75696440D01*
X104187790Y-75750126D01*
X103933553Y-75855435D01*
X103704745Y-76008320D01*
X103595280Y-76117785D01*
X103485815Y-76008320D01*
X103257007Y-75855435D01*
X103002770Y-75750126D01*
X102732872Y-75696440D01*
X102457688Y-75696440D01*
X102187790Y-75750126D01*
X101933553Y-75855435D01*
X101704745Y-76008320D01*
X101595280Y-76117785D01*
X101485815Y-76008320D01*
X101257007Y-75855435D01*
X101002770Y-75750126D01*
X100732872Y-75696440D01*
X100457688Y-75696440D01*
X100187790Y-75750126D01*
X99933553Y-75855435D01*
X99704745Y-76008320D01*
X99510160Y-76202905D01*
X99357275Y-76431713D01*
X99251966Y-76685950D01*
X99198280Y-76955848D01*
X99198280Y-77231032D01*
X99238553Y-77433500D01*
X90471374Y-77433500D01*
X90503960Y-77269679D01*
X90503960Y-77065801D01*
X90464186Y-76865842D01*
X90386165Y-76677484D01*
X90272897Y-76507966D01*
X90203960Y-76439029D01*
X90203960Y-74909411D01*
X90272897Y-74840474D01*
X90386165Y-74670956D01*
X90464186Y-74482598D01*
X90503960Y-74282639D01*
X90503960Y-74078761D01*
X90464186Y-73878802D01*
X90386165Y-73690444D01*
X90272897Y-73520926D01*
X90128734Y-73376763D01*
X89959216Y-73263495D01*
X89770858Y-73185474D01*
X89570899Y-73145700D01*
X89367021Y-73145700D01*
X89167062Y-73185474D01*
X88978704Y-73263495D01*
X88809186Y-73376763D01*
X88665023Y-73520926D01*
X88551755Y-73690444D01*
X88473734Y-73878802D01*
X88433960Y-74078761D01*
X88433960Y-74282639D01*
X88473734Y-74482598D01*
X88551755Y-74670956D01*
X88665023Y-74840474D01*
X88733960Y-74909411D01*
X88733961Y-76439028D01*
X88665023Y-76507966D01*
X88551755Y-76677484D01*
X88473734Y-76865842D01*
X88433960Y-77065801D01*
X88433960Y-77269679D01*
X88466546Y-77433500D01*
X84274391Y-77433500D01*
X84154654Y-77313763D01*
X83985136Y-77200495D01*
X83796778Y-77122474D01*
X83596819Y-77082700D01*
X83392941Y-77082700D01*
X83371360Y-77086993D01*
X83371360Y-76398665D01*
X83374916Y-76362560D01*
X83360725Y-76218475D01*
X83318697Y-76079927D01*
X83250447Y-75952240D01*
X83158598Y-75840322D01*
X83085047Y-75779960D01*
X82619601Y-75314514D01*
X82654300Y-75140071D01*
X82654300Y-74867249D01*
X82601075Y-74599671D01*
X82496671Y-74347617D01*
X82345099Y-74120774D01*
X82335892Y-74111567D01*
X82385711Y-74106660D01*
X82385712Y-74106660D01*
X82552459Y-74090237D01*
X82766407Y-74025336D01*
X82963583Y-73919944D01*
X83136409Y-73778109D01*
X83171956Y-73734795D01*
X84722945Y-72183807D01*
X84757525Y-72357649D01*
X84861929Y-72609703D01*
X85013501Y-72836546D01*
X85206414Y-73029459D01*
X85433257Y-73181031D01*
X85685311Y-73285435D01*
X85952889Y-73338660D01*
X86225711Y-73338660D01*
X86493289Y-73285435D01*
X86745343Y-73181031D01*
X86972186Y-73029459D01*
X87165099Y-72836546D01*
X87263913Y-72688660D01*
X95480055Y-72688660D01*
X95516160Y-72692216D01*
X95552265Y-72688660D01*
X95660245Y-72678025D01*
X95798793Y-72635997D01*
X95926480Y-72567747D01*
X96038398Y-72475898D01*
X96061419Y-72447847D01*
X101819366Y-66689900D01*
X113249759Y-66689900D01*
X113249759Y-66893778D01*
X113289533Y-67093737D01*
X113367554Y-67282095D01*
X113480822Y-67451613D01*
X113554841Y-67525632D01*
X113554840Y-73243709D01*
X113485903Y-73312646D01*
X113372635Y-73482164D01*
X113294614Y-73670522D01*
X113254840Y-73870481D01*
X113254840Y-74074359D01*
X113294614Y-74274318D01*
X113372635Y-74462676D01*
X113485903Y-74632194D01*
X113630066Y-74776357D01*
X113799584Y-74889625D01*
X113987942Y-74967646D01*
X114187901Y-75007420D01*
X114391779Y-75007420D01*
X114591738Y-74967646D01*
X114780096Y-74889625D01*
X114949614Y-74776357D01*
X115093777Y-74632194D01*
X115207045Y-74462676D01*
X115285066Y-74274318D01*
X115324840Y-74074359D01*
X115324840Y-73870481D01*
X115285066Y-73670522D01*
X115207045Y-73482164D01*
X115093777Y-73312646D01*
X115024840Y-73243709D01*
X115024840Y-67515469D01*
X115088696Y-67451613D01*
X115201964Y-67282095D01*
X115279985Y-67093737D01*
X115319759Y-66893778D01*
X115319759Y-66689900D01*
X115279985Y-66489941D01*
X115201964Y-66301583D01*
X115088696Y-66132065D01*
X114944533Y-65987902D01*
X114775015Y-65874634D01*
X114586657Y-65796613D01*
X114386698Y-65756839D01*
X114182820Y-65756839D01*
X113982861Y-65796613D01*
X113794503Y-65874634D01*
X113624985Y-65987902D01*
X113480822Y-66132065D01*
X113367554Y-66301583D01*
X113289533Y-66489941D01*
X113249759Y-66689900D01*
X101819366Y-66689900D01*
X113113187Y-55396080D01*
X113210679Y-55396080D01*
X113410638Y-55356306D01*
X113598996Y-55278285D01*
X113768514Y-55165017D01*
X113912677Y-55020854D01*
X114025945Y-54851336D01*
X114103966Y-54662978D01*
X114143740Y-54463019D01*
X114143740Y-54259141D01*
X114103966Y-54059182D01*
X114025945Y-53870824D01*
X113912677Y-53701306D01*
X113768514Y-53557143D01*
X113598996Y-53443875D01*
X113410638Y-53365854D01*
X113210679Y-53326080D01*
X113006801Y-53326080D01*
X112806842Y-53365854D01*
X112618484Y-53443875D01*
X112448966Y-53557143D01*
X112304803Y-53701306D01*
X112191535Y-53870824D01*
X112113514Y-54059182D01*
X112073740Y-54259141D01*
X112073740Y-54356633D01*
X95211714Y-71218660D01*
X87263913Y-71218660D01*
X87165099Y-71070774D01*
X86972186Y-70877861D01*
X86868620Y-70808660D01*
X86972186Y-70739459D01*
X87165099Y-70546546D01*
X87316671Y-70319703D01*
X87421075Y-70067649D01*
X87474300Y-69800071D01*
X87474300Y-69758221D01*
X91832480Y-69758221D01*
X91832480Y-69962099D01*
X91872254Y-70162058D01*
X91950275Y-70350416D01*
X92063543Y-70519934D01*
X92207706Y-70664097D01*
X92377224Y-70777365D01*
X92565582Y-70855386D01*
X92765541Y-70895160D01*
X92969419Y-70895160D01*
X93169378Y-70855386D01*
X93357736Y-70777365D01*
X93527254Y-70664097D01*
X93671417Y-70519934D01*
X93784685Y-70350416D01*
X93844912Y-70205017D01*
X94082875Y-69967053D01*
X94118564Y-69937764D01*
X94235406Y-69795392D01*
X94308563Y-69658524D01*
X94322227Y-69632961D01*
X94375692Y-69456712D01*
X94393744Y-69273420D01*
X94389220Y-69227485D01*
X94389220Y-65380907D01*
X94451986Y-65229378D01*
X94491760Y-65029419D01*
X94491760Y-64825541D01*
X94451986Y-64625582D01*
X94391760Y-64480185D01*
X94391760Y-63244669D01*
X94860668Y-62775761D01*
X97390000Y-62775761D01*
X97390000Y-62979639D01*
X97429774Y-63179598D01*
X97507795Y-63367956D01*
X97621063Y-63537474D01*
X97765226Y-63681637D01*
X97934744Y-63794905D01*
X98123102Y-63872926D01*
X98323061Y-63912700D01*
X98526939Y-63912700D01*
X98726898Y-63872926D01*
X98915256Y-63794905D01*
X99084774Y-63681637D01*
X99153711Y-63612700D01*
X101211649Y-63612700D01*
X101280586Y-63681637D01*
X101450104Y-63794905D01*
X101638462Y-63872926D01*
X101838421Y-63912700D01*
X102042299Y-63912700D01*
X102242258Y-63872926D01*
X102430616Y-63794905D01*
X102600134Y-63681637D01*
X102744297Y-63537474D01*
X102857565Y-63367956D01*
X102935586Y-63179598D01*
X102975360Y-62979639D01*
X102975360Y-62775761D01*
X102935586Y-62575802D01*
X102857565Y-62387444D01*
X102744297Y-62217926D01*
X102600134Y-62073763D01*
X102430616Y-61960495D01*
X102242258Y-61882474D01*
X102042299Y-61842700D01*
X101838421Y-61842700D01*
X101638462Y-61882474D01*
X101450104Y-61960495D01*
X101280586Y-62073763D01*
X101211649Y-62142700D01*
X99153711Y-62142700D01*
X99084774Y-62073763D01*
X98915256Y-61960495D01*
X98726898Y-61882474D01*
X98526939Y-61842700D01*
X98323061Y-61842700D01*
X98123102Y-61882474D01*
X97934744Y-61960495D01*
X97765226Y-62073763D01*
X97621063Y-62217926D01*
X97507795Y-62387444D01*
X97429774Y-62575802D01*
X97390000Y-62775761D01*
X94860668Y-62775761D01*
X106587230Y-51049200D01*
X122849428Y-51049200D01*
X122895360Y-51053724D01*
X122941292Y-51049200D01*
X123078652Y-51035671D01*
X123254900Y-50982207D01*
X123417332Y-50895386D01*
X123559704Y-50778544D01*
X123588990Y-50742859D01*
X124583790Y-49748060D01*
X131414649Y-49748060D01*
X131470400Y-49753551D01*
X131526151Y-49748060D01*
X131526152Y-49748060D01*
X131692899Y-49731637D01*
X131906847Y-49666736D01*
X132104023Y-49561344D01*
X132213813Y-49471241D01*
X139637820Y-49471241D01*
X139637820Y-49675119D01*
X139677594Y-49875078D01*
X139755615Y-50063436D01*
X139868883Y-50232954D01*
X140013046Y-50377117D01*
X140182564Y-50490385D01*
X140370922Y-50568406D01*
X140570881Y-50608180D01*
X140774759Y-50608180D01*
X140974718Y-50568406D01*
X141120115Y-50508180D01*
X143949208Y-50508180D01*
X143995140Y-50512704D01*
X144041072Y-50508180D01*
X144178432Y-50494651D01*
X144354680Y-50441187D01*
X144517112Y-50354366D01*
X144659484Y-50237524D01*
X144688770Y-50201839D01*
X149834320Y-45056290D01*
X149834321Y-55152350D01*
X149442231Y-55544440D01*
X149156635Y-55544440D01*
X149011238Y-55484214D01*
X148811279Y-55444440D01*
X148607401Y-55444440D01*
X148407442Y-55484214D01*
X148219084Y-55562235D01*
X148049566Y-55675503D01*
X147905403Y-55819666D01*
X147792135Y-55989184D01*
X147714114Y-56177542D01*
X147674340Y-56377501D01*
X147674340Y-56581379D01*
X147714114Y-56781338D01*
X147792135Y-56969696D01*
X147905403Y-57139214D01*
X148049566Y-57283377D01*
X148219084Y-57396645D01*
X148407442Y-57474666D01*
X148607401Y-57514440D01*
X148811279Y-57514440D01*
X149011238Y-57474666D01*
X149156635Y-57414440D01*
X149783588Y-57414440D01*
X149829520Y-57418964D01*
X149875452Y-57414440D01*
X150012812Y-57400911D01*
X150189060Y-57347447D01*
X150351492Y-57260626D01*
X150493864Y-57143784D01*
X150523150Y-57108099D01*
X151397979Y-56233270D01*
X151433664Y-56203984D01*
X151550506Y-56061612D01*
X151637327Y-55899180D01*
X151690791Y-55722932D01*
X151704320Y-55585572D01*
X151708844Y-55539640D01*
X151704320Y-55493708D01*
X151704320Y-45042075D01*
X151764546Y-44896678D01*
X151804320Y-44696719D01*
X151804320Y-44492841D01*
X151764546Y-44292882D01*
X151718219Y-44181040D01*
X157438151Y-44181040D01*
X159519340Y-46262230D01*
X159519341Y-56931302D01*
X159459114Y-57076702D01*
X159419340Y-57276661D01*
X159419340Y-57480539D01*
X159459114Y-57680498D01*
X159537135Y-57868856D01*
X159650403Y-58038374D01*
X159794566Y-58182537D01*
X159964084Y-58295805D01*
X160152442Y-58373826D01*
X160352401Y-58413600D01*
X160556279Y-58413600D01*
X160756238Y-58373826D01*
X160944596Y-58295805D01*
X161114114Y-58182537D01*
X161258277Y-58038374D01*
X161371545Y-57868856D01*
X161449566Y-57680498D01*
X161489340Y-57480539D01*
X161489340Y-57276661D01*
X161449566Y-57076702D01*
X161389340Y-56931305D01*
X161389340Y-45920871D01*
X161393864Y-45874939D01*
X161375811Y-45691647D01*
X161322347Y-45515401D01*
X161322347Y-45515400D01*
X161235526Y-45352968D01*
X161118684Y-45210596D01*
X161083006Y-45181316D01*
X158519070Y-42617381D01*
X158489784Y-42581696D01*
X158347412Y-42464854D01*
X158184980Y-42378033D01*
X158008732Y-42324569D01*
X157871372Y-42311040D01*
X157825440Y-42306516D01*
X157779508Y-42311040D01*
X150368211Y-42311040D01*
X150322279Y-42306516D01*
X150138987Y-42324569D01*
X150085523Y-42340787D01*
X149962740Y-42378033D01*
X149800308Y-42464854D01*
X149657936Y-42581696D01*
X149628655Y-42617375D01*
X143607851Y-48638180D01*
X141120115Y-48638180D01*
X140974718Y-48577954D01*
X140774759Y-48538180D01*
X140570881Y-48538180D01*
X140370922Y-48577954D01*
X140182564Y-48655975D01*
X140013046Y-48769243D01*
X139868883Y-48913406D01*
X139755615Y-49082924D01*
X139677594Y-49271282D01*
X139637820Y-49471241D01*
X132213813Y-49471241D01*
X132276849Y-49419509D01*
X132312396Y-49376195D01*
X139857712Y-41830880D01*
X140408532Y-41830880D01*
X140575279Y-41814457D01*
X140789227Y-41749556D01*
X140986403Y-41644164D01*
X141159229Y-41502329D01*
X141301064Y-41329503D01*
X141406456Y-41132327D01*
X141471357Y-40918379D01*
X141493271Y-40695880D01*
X141484875Y-40610629D01*
X162427280Y-40610629D01*
X162427280Y-41228171D01*
X162547756Y-41833846D01*
X162784079Y-42404379D01*
X163127166Y-42917846D01*
X163563834Y-43354514D01*
X164077301Y-43697601D01*
X164647834Y-43933924D01*
X165253509Y-44054400D01*
X165871051Y-44054400D01*
X166476726Y-43933924D01*
X167047259Y-43697601D01*
X167560726Y-43354514D01*
X167997394Y-42917846D01*
X168340481Y-42404379D01*
X168576804Y-41833846D01*
X168697280Y-41228171D01*
X168697280Y-40610629D01*
X168576804Y-40004954D01*
X168340481Y-39434421D01*
X167997394Y-38920954D01*
X167560726Y-38484286D01*
X167047259Y-38141199D01*
X166476726Y-37904876D01*
X165871051Y-37784400D01*
X165253509Y-37784400D01*
X164647834Y-37904876D01*
X164077301Y-38141199D01*
X163563834Y-38484286D01*
X163127166Y-38920954D01*
X162784079Y-39434421D01*
X162547756Y-40004954D01*
X162427280Y-40610629D01*
X141484875Y-40610629D01*
X141471357Y-40473381D01*
X141406456Y-40259433D01*
X141301064Y-40062257D01*
X141159229Y-39889431D01*
X140986403Y-39747596D01*
X140789227Y-39642204D01*
X140575279Y-39577303D01*
X140408532Y-39560880D01*
X139443321Y-39560880D01*
X139387579Y-39555390D01*
X139331837Y-39560880D01*
X139331828Y-39560880D01*
X139165081Y-39577303D01*
X138951133Y-39642204D01*
X138753957Y-39747596D01*
X138581131Y-39889431D01*
X138545589Y-39932739D01*
X131000269Y-47478060D01*
X124452241Y-47478060D01*
X124396499Y-47472570D01*
X124340758Y-47478060D01*
X124340748Y-47478060D01*
X124174001Y-47494483D01*
X123960053Y-47559384D01*
X123762877Y-47664776D01*
X123590051Y-47806611D01*
X123554504Y-47849925D01*
X123544352Y-47860077D01*
X123438057Y-47989598D01*
X123332664Y-48186774D01*
X123267763Y-48400722D01*
X123265711Y-48421560D01*
X122508071Y-49179200D01*
X106245872Y-49179200D01*
X106199940Y-49174676D01*
X106154008Y-49179200D01*
X106016648Y-49192729D01*
X105840400Y-49246193D01*
X105677968Y-49333014D01*
X105535596Y-49449856D01*
X105506316Y-49485534D01*
X92828096Y-62163755D01*
X92792417Y-62193036D01*
X92675575Y-62335408D01*
X92641561Y-62399045D01*
X92588754Y-62497840D01*
X92535289Y-62674089D01*
X92517236Y-62857380D01*
X92521761Y-62903322D01*
X92521760Y-64480184D01*
X92461534Y-64625582D01*
X92421760Y-64825541D01*
X92421760Y-65029419D01*
X92461534Y-65229378D01*
X92519221Y-65368646D01*
X92519220Y-68884138D01*
X92377224Y-68942955D01*
X92207706Y-69056223D01*
X92063543Y-69200386D01*
X91950275Y-69369904D01*
X91872254Y-69558262D01*
X91832480Y-69758221D01*
X87474300Y-69758221D01*
X87474300Y-69527249D01*
X87421075Y-69259671D01*
X87316671Y-69007617D01*
X87165099Y-68780774D01*
X86972186Y-68587861D01*
X86745343Y-68436289D01*
X86493289Y-68331885D01*
X86225711Y-68278660D01*
X85952889Y-68278660D01*
X85685311Y-68331885D01*
X85433257Y-68436289D01*
X85302980Y-68523338D01*
X85302980Y-54330831D01*
X87999441Y-51634371D01*
X88042749Y-51598829D01*
X88184584Y-51426003D01*
X88289976Y-51228827D01*
X88354877Y-51014879D01*
X88371300Y-50848132D01*
X88371300Y-50848131D01*
X88376791Y-50792380D01*
X88371300Y-50736628D01*
X88371300Y-50325920D01*
X90675828Y-50325920D01*
X90675828Y-52025920D01*
X90688088Y-52150402D01*
X90724398Y-52270100D01*
X90783363Y-52380414D01*
X90862715Y-52477105D01*
X90959406Y-52556457D01*
X91069720Y-52615422D01*
X91142280Y-52637433D01*
X91010425Y-52769288D01*
X90847910Y-53012509D01*
X90735968Y-53282762D01*
X90678900Y-53569660D01*
X90678900Y-53862180D01*
X90735968Y-54149078D01*
X90847910Y-54419331D01*
X91010425Y-54662552D01*
X91217268Y-54869395D01*
X91460489Y-55031910D01*
X91730742Y-55143852D01*
X92017640Y-55200920D01*
X92310160Y-55200920D01*
X92597058Y-55143852D01*
X92867311Y-55031910D01*
X93110532Y-54869395D01*
X93317375Y-54662552D01*
X93479890Y-54419331D01*
X93591832Y-54149078D01*
X93648900Y-53862180D01*
X93648900Y-53569660D01*
X93591832Y-53282762D01*
X93479890Y-53012509D01*
X93317375Y-52769288D01*
X93185520Y-52637433D01*
X93258080Y-52615422D01*
X93368394Y-52556457D01*
X93465085Y-52477105D01*
X93544437Y-52380414D01*
X93603402Y-52270100D01*
X93639712Y-52150402D01*
X93651972Y-52025920D01*
X93651972Y-50325920D01*
X93639712Y-50201438D01*
X93603402Y-50081740D01*
X93544437Y-49971426D01*
X93465085Y-49874735D01*
X93368394Y-49795383D01*
X93258080Y-49736418D01*
X93138382Y-49700108D01*
X93013900Y-49687848D01*
X91313900Y-49687848D01*
X91189418Y-49700108D01*
X91069720Y-49736418D01*
X90959406Y-49795383D01*
X90862715Y-49874735D01*
X90783363Y-49971426D01*
X90724398Y-50081740D01*
X90688088Y-50201438D01*
X90675828Y-50325920D01*
X88371300Y-50325920D01*
X88371300Y-49103408D01*
X88354877Y-48936661D01*
X88289976Y-48722713D01*
X88184584Y-48525537D01*
X88042749Y-48352711D01*
X87869923Y-48210876D01*
X87672747Y-48105484D01*
X87458799Y-48040583D01*
X87236300Y-48018669D01*
X87013802Y-48040583D01*
X86799854Y-48105484D01*
X86602678Y-48210876D01*
X86534880Y-48266517D01*
X86534880Y-44513972D01*
X87149880Y-44513972D01*
X87274362Y-44501712D01*
X87394060Y-44465402D01*
X87504374Y-44406437D01*
X87601065Y-44327085D01*
X87680417Y-44230394D01*
X87739382Y-44120080D01*
X87775692Y-44000382D01*
X87787952Y-43875900D01*
X87787952Y-40702069D01*
X90268420Y-40702069D01*
X90268420Y-41319611D01*
X90388896Y-41925286D01*
X90625219Y-42495819D01*
X90968306Y-43009286D01*
X91404974Y-43445954D01*
X91918441Y-43789041D01*
X92488974Y-44025364D01*
X93094649Y-44145840D01*
X93712191Y-44145840D01*
X94317866Y-44025364D01*
X94888399Y-43789041D01*
X95401866Y-43445954D01*
X95838534Y-43009286D01*
X96181621Y-42495819D01*
X96268191Y-42286820D01*
X111143148Y-42286820D01*
X111143148Y-43986820D01*
X111155408Y-44111302D01*
X111191718Y-44231000D01*
X111250683Y-44341314D01*
X111330035Y-44438005D01*
X111426726Y-44517357D01*
X111537040Y-44576322D01*
X111656738Y-44612632D01*
X111781220Y-44624892D01*
X113481220Y-44624892D01*
X113605702Y-44612632D01*
X113725400Y-44576322D01*
X113835714Y-44517357D01*
X113932405Y-44438005D01*
X114011757Y-44341314D01*
X114070722Y-44231000D01*
X114107032Y-44111302D01*
X114119292Y-43986820D01*
X114119292Y-42990560D01*
X116226220Y-42990560D01*
X116226220Y-43283080D01*
X116283288Y-43569978D01*
X116395230Y-43840231D01*
X116557745Y-44083452D01*
X116764588Y-44290295D01*
X117007809Y-44452810D01*
X117278062Y-44564752D01*
X117564960Y-44621820D01*
X117857480Y-44621820D01*
X118144378Y-44564752D01*
X118414631Y-44452810D01*
X118657852Y-44290295D01*
X118864695Y-44083452D01*
X119027210Y-43840231D01*
X119139152Y-43569978D01*
X119196220Y-43283080D01*
X119196220Y-42990560D01*
X119139152Y-42703662D01*
X119027210Y-42433409D01*
X118905502Y-42251260D01*
X120089028Y-42251260D01*
X120089028Y-43951260D01*
X120101288Y-44075742D01*
X120137598Y-44195440D01*
X120196563Y-44305754D01*
X120275915Y-44402445D01*
X120372606Y-44481797D01*
X120482920Y-44540762D01*
X120602618Y-44577072D01*
X120727100Y-44589332D01*
X122427100Y-44589332D01*
X122551582Y-44577072D01*
X122671280Y-44540762D01*
X122781594Y-44481797D01*
X122878285Y-44402445D01*
X122957637Y-44305754D01*
X123016602Y-44195440D01*
X123052912Y-44075742D01*
X123065172Y-43951260D01*
X123065172Y-42955000D01*
X125172100Y-42955000D01*
X125172100Y-43247520D01*
X125229168Y-43534418D01*
X125341110Y-43804671D01*
X125503625Y-44047892D01*
X125710468Y-44254735D01*
X125953689Y-44417250D01*
X126223942Y-44529192D01*
X126510840Y-44586260D01*
X126803360Y-44586260D01*
X127090258Y-44529192D01*
X127360511Y-44417250D01*
X127603732Y-44254735D01*
X127810575Y-44047892D01*
X127973090Y-43804671D01*
X128085032Y-43534418D01*
X128142100Y-43247520D01*
X128142100Y-42955000D01*
X128085032Y-42668102D01*
X127973090Y-42397849D01*
X127810575Y-42154628D01*
X127603732Y-41947785D01*
X127360511Y-41785270D01*
X127090258Y-41673328D01*
X126803360Y-41616260D01*
X126510840Y-41616260D01*
X126223942Y-41673328D01*
X125953689Y-41785270D01*
X125710468Y-41947785D01*
X125503625Y-42154628D01*
X125341110Y-42397849D01*
X125229168Y-42668102D01*
X125172100Y-42955000D01*
X123065172Y-42955000D01*
X123065172Y-42251260D01*
X123052912Y-42126778D01*
X123016602Y-42007080D01*
X122957637Y-41896766D01*
X122878285Y-41800075D01*
X122781594Y-41720723D01*
X122671280Y-41661758D01*
X122551582Y-41625448D01*
X122427100Y-41613188D01*
X120727100Y-41613188D01*
X120602618Y-41625448D01*
X120482920Y-41661758D01*
X120372606Y-41720723D01*
X120275915Y-41800075D01*
X120196563Y-41896766D01*
X120137598Y-42007080D01*
X120101288Y-42126778D01*
X120089028Y-42251260D01*
X118905502Y-42251260D01*
X118864695Y-42190188D01*
X118657852Y-41983345D01*
X118414631Y-41820830D01*
X118144378Y-41708888D01*
X117857480Y-41651820D01*
X117564960Y-41651820D01*
X117278062Y-41708888D01*
X117007809Y-41820830D01*
X116764588Y-41983345D01*
X116557745Y-42190188D01*
X116395230Y-42433409D01*
X116283288Y-42703662D01*
X116226220Y-42990560D01*
X114119292Y-42990560D01*
X114119292Y-42286820D01*
X114107032Y-42162338D01*
X114070722Y-42042640D01*
X114011757Y-41932326D01*
X113932405Y-41835635D01*
X113835714Y-41756283D01*
X113725400Y-41697318D01*
X113605702Y-41661008D01*
X113481220Y-41648748D01*
X111781220Y-41648748D01*
X111656738Y-41661008D01*
X111537040Y-41697318D01*
X111426726Y-41756283D01*
X111330035Y-41835635D01*
X111250683Y-41932326D01*
X111191718Y-42042640D01*
X111155408Y-42162338D01*
X111143148Y-42286820D01*
X96268191Y-42286820D01*
X96417944Y-41925286D01*
X96538420Y-41319611D01*
X96538420Y-40702069D01*
X96417944Y-40096394D01*
X96181621Y-39525861D01*
X95838534Y-39012394D01*
X95401866Y-38575726D01*
X94888399Y-38232639D01*
X94317866Y-37996316D01*
X93712191Y-37875840D01*
X93094649Y-37875840D01*
X92488974Y-37996316D01*
X91918441Y-38232639D01*
X91404974Y-38575726D01*
X90968306Y-39012394D01*
X90625219Y-39525861D01*
X90388896Y-40096394D01*
X90268420Y-40702069D01*
X87787952Y-40702069D01*
X87787952Y-40375900D01*
X87775692Y-40251418D01*
X87739382Y-40131720D01*
X87680417Y-40021406D01*
X87601065Y-39924715D01*
X87504374Y-39845363D01*
X87394060Y-39786398D01*
X87274362Y-39750088D01*
X87149880Y-39737828D01*
X83649880Y-39737828D01*
X83525398Y-39750088D01*
X83405700Y-39786398D01*
X83295386Y-39845363D01*
X83198695Y-39924715D01*
X83119343Y-40021406D01*
X83060378Y-40131720D01*
X83024068Y-40251418D01*
X83011808Y-40375900D01*
X83011808Y-43875900D01*
X83024068Y-44000382D01*
X83060378Y-44120080D01*
X83119343Y-44230394D01*
X83198695Y-44327085D01*
X83295386Y-44406437D01*
X83372011Y-44447394D01*
X83274880Y-44437828D01*
X81524880Y-44437828D01*
X81229694Y-44466901D01*
X80945852Y-44553004D01*
X80684262Y-44692827D01*
X80454977Y-44880997D01*
X80266807Y-45110282D01*
X80126984Y-45371872D01*
X80040881Y-45655714D01*
X80011808Y-45950900D01*
X80011808Y-47700900D01*
X80040881Y-47996086D01*
X80126984Y-48279928D01*
X80266807Y-48541518D01*
X80454977Y-48770803D01*
X80684262Y-48958973D01*
X80945852Y-49098796D01*
X81229694Y-49184899D01*
X81524880Y-49213972D01*
X83274880Y-49213972D01*
X83570066Y-49184899D01*
X83853908Y-49098796D01*
X84115498Y-48958973D01*
X84264880Y-48836378D01*
X84264880Y-49207188D01*
X81781780Y-51690289D01*
X81738472Y-51725831D01*
X81596637Y-51898657D01*
X81540304Y-52004050D01*
X81491244Y-52095834D01*
X81426343Y-52309782D01*
X81404429Y-52532280D01*
X81409921Y-52588042D01*
X81409920Y-66935497D01*
X81224815Y-66811813D01*
X80899965Y-66677256D01*
X80555107Y-66608660D01*
X80203493Y-66608660D01*
X79858635Y-66677256D01*
X79533785Y-66811813D01*
X79241429Y-67007160D01*
X78992800Y-67255789D01*
X78797453Y-67548145D01*
X78662896Y-67872995D01*
X78594300Y-68217853D01*
X78594300Y-68569467D01*
X78607478Y-68635716D01*
X78389966Y-68418204D01*
X78019811Y-68170874D01*
X77608518Y-68000511D01*
X77171891Y-67913660D01*
X76726709Y-67913660D01*
X76290082Y-68000511D01*
X75878789Y-68170874D01*
X75508634Y-68418204D01*
X75193844Y-68732994D01*
X74946514Y-69103149D01*
X74776151Y-69514442D01*
X74689300Y-69951069D01*
X74689300Y-70396251D01*
X74776151Y-70832878D01*
X74946514Y-71244171D01*
X75193844Y-71614326D01*
X75508634Y-71929116D01*
X75878789Y-72176446D01*
X76290082Y-72346809D01*
X76726709Y-72433660D01*
X76827049Y-72433660D01*
X76661140Y-72599569D01*
X76617832Y-72635111D01*
X76475997Y-72807937D01*
X76420449Y-72911861D01*
X76370604Y-73005114D01*
X76332981Y-73129139D01*
X76305703Y-73219061D01*
X76294617Y-73331617D01*
X76283789Y-73441560D01*
X76289280Y-73497311D01*
X76289280Y-74959549D01*
X76283789Y-75015300D01*
X76289280Y-75071051D01*
X76305703Y-75237798D01*
X76370604Y-75451746D01*
X76475996Y-75648923D01*
X76617831Y-75821749D01*
X76661144Y-75857295D01*
X77586653Y-76782805D01*
X77622191Y-76826109D01*
X77665494Y-76861647D01*
X77665496Y-76861649D01*
X77761110Y-76940117D01*
X77795017Y-76967944D01*
X77992193Y-77073336D01*
X78206141Y-77138237D01*
X78299379Y-77147420D01*
X78422708Y-77159567D01*
X78413501Y-77168774D01*
X78261929Y-77395617D01*
X78157525Y-77647671D01*
X78104300Y-77915249D01*
X78104300Y-78188071D01*
X78157525Y-78455649D01*
X78261929Y-78707703D01*
X78346624Y-78834458D01*
X78288115Y-78882475D01*
X78208763Y-78979166D01*
X78149798Y-79089480D01*
X78113488Y-79209178D01*
X78101228Y-79333660D01*
X78101228Y-80833660D01*
X78110887Y-80931729D01*
X78019811Y-80870874D01*
X77608518Y-80700511D01*
X77171891Y-80613660D01*
X76726709Y-80613660D01*
X76290082Y-80700511D01*
X75878789Y-80870874D01*
X75508634Y-81118204D01*
X75193844Y-81432994D01*
X74946514Y-81803149D01*
X74776151Y-82214442D01*
X74689300Y-82651069D01*
X74689300Y-83096251D01*
X74776151Y-83532878D01*
X74946514Y-83944171D01*
X75193844Y-84314326D01*
X75508634Y-84629116D01*
X75878789Y-84876446D01*
X76290082Y-85046809D01*
X76726709Y-85133660D01*
X77171891Y-85133660D01*
X77608518Y-85046809D01*
X78019811Y-84876446D01*
X78389966Y-84629116D01*
X78607478Y-84411604D01*
X78594300Y-84477853D01*
X78594300Y-84829467D01*
X78662896Y-85174325D01*
X78797453Y-85499175D01*
X78931641Y-85700000D01*
X71780000Y-85700000D01*
X71780000Y-65519346D01*
X71949017Y-65688363D01*
X72298698Y-65922012D01*
X72687244Y-66082953D01*
X73099721Y-66165000D01*
X73520279Y-66165000D01*
X73932756Y-66082953D01*
X74321302Y-65922012D01*
X74670983Y-65688363D01*
X74968363Y-65390983D01*
X75202012Y-65041302D01*
X75362953Y-64652756D01*
X75445000Y-64240279D01*
X75445000Y-63819721D01*
X76855000Y-63819721D01*
X76855000Y-64240279D01*
X76937047Y-64652756D01*
X77097988Y-65041302D01*
X77331637Y-65390983D01*
X77629017Y-65688363D01*
X77978698Y-65922012D01*
X78367244Y-66082953D01*
X78779721Y-66165000D01*
X79200279Y-66165000D01*
X79612756Y-66082953D01*
X80001302Y-65922012D01*
X80350983Y-65688363D01*
X80648363Y-65390983D01*
X80882012Y-65041302D01*
X81042953Y-64652756D01*
X81125000Y-64240279D01*
X81125000Y-63819721D01*
X81042953Y-63407244D01*
X80882012Y-63018698D01*
X80648363Y-62669017D01*
X80350983Y-62371637D01*
X80001302Y-62137988D01*
X79612756Y-61977047D01*
X79200279Y-61895000D01*
X78779721Y-61895000D01*
X78367244Y-61977047D01*
X77978698Y-62137988D01*
X77629017Y-62371637D01*
X77331637Y-62669017D01*
X77097988Y-63018698D01*
X76937047Y-63407244D01*
X76855000Y-63819721D01*
X75445000Y-63819721D01*
X75362953Y-63407244D01*
X75202012Y-63018698D01*
X74968363Y-62669017D01*
X74670983Y-62371637D01*
X74591487Y-62318520D01*
X74654180Y-62299502D01*
X74764494Y-62240537D01*
X74861185Y-62161185D01*
X74940537Y-62064494D01*
X74999502Y-61954180D01*
X75035812Y-61834482D01*
X75048072Y-61710000D01*
X75048072Y-61605041D01*
X75052629Y-61616043D01*
X75204201Y-61842886D01*
X75397114Y-62035799D01*
X75623957Y-62187371D01*
X75876011Y-62291775D01*
X76143589Y-62345000D01*
X76416411Y-62345000D01*
X76683989Y-62291775D01*
X76936043Y-62187371D01*
X77162886Y-62035799D01*
X77355799Y-61842886D01*
X77507371Y-61616043D01*
X77611775Y-61363989D01*
X77665000Y-61096411D01*
X77665000Y-60823589D01*
X77611775Y-60556011D01*
X77507371Y-60303957D01*
X77355799Y-60077114D01*
X77162886Y-59884201D01*
X76936043Y-59732629D01*
X76881412Y-59710000D01*
X76936043Y-59687371D01*
X77162886Y-59535799D01*
X77355799Y-59342886D01*
X77507371Y-59116043D01*
X77611775Y-58863989D01*
X77665000Y-58596411D01*
X77665000Y-58323589D01*
X77611775Y-58056011D01*
X77507371Y-57803957D01*
X77355799Y-57577114D01*
X77238685Y-57460000D01*
X77355799Y-57342886D01*
X77507371Y-57116043D01*
X77611775Y-56863989D01*
X77665000Y-56596411D01*
X77665000Y-56323589D01*
X77611775Y-56056011D01*
X77507371Y-55803957D01*
X77355799Y-55577114D01*
X77162886Y-55384201D01*
X76936043Y-55232629D01*
X76881412Y-55210000D01*
X76936043Y-55187371D01*
X77162886Y-55035799D01*
X77355799Y-54842886D01*
X77507371Y-54616043D01*
X77611775Y-54363989D01*
X77665000Y-54096411D01*
X77665000Y-53823589D01*
X77611775Y-53556011D01*
X77507371Y-53303957D01*
X77355799Y-53077114D01*
X77162886Y-52884201D01*
X76936043Y-52732629D01*
X76683989Y-52628225D01*
X76416411Y-52575000D01*
X76143589Y-52575000D01*
X75876011Y-52628225D01*
X75623957Y-52732629D01*
X75397114Y-52884201D01*
X75204201Y-53077114D01*
X75052629Y-53303957D01*
X74948225Y-53556011D01*
X74895000Y-53823589D01*
X74895000Y-54096411D01*
X74948225Y-54363989D01*
X75052629Y-54616043D01*
X75204201Y-54842886D01*
X75397114Y-55035799D01*
X75623957Y-55187371D01*
X75678588Y-55210000D01*
X75623957Y-55232629D01*
X75397114Y-55384201D01*
X75204201Y-55577114D01*
X75052629Y-55803957D01*
X74970000Y-56003441D01*
X74887371Y-55803957D01*
X74735799Y-55577114D01*
X74542886Y-55384201D01*
X74316043Y-55232629D01*
X74063989Y-55128225D01*
X73796411Y-55075000D01*
X73523589Y-55075000D01*
X73256011Y-55128225D01*
X73003957Y-55232629D01*
X72777114Y-55384201D01*
X72584201Y-55577114D01*
X72432629Y-55803957D01*
X72328225Y-56056011D01*
X72275000Y-56323589D01*
X72275000Y-56596411D01*
X72328225Y-56863989D01*
X72432629Y-57116043D01*
X72584201Y-57342886D01*
X72701315Y-57460000D01*
X72584201Y-57577114D01*
X72432629Y-57803957D01*
X72328225Y-58056011D01*
X72275000Y-58323589D01*
X72275000Y-58596411D01*
X72328225Y-58863989D01*
X72432629Y-59116043D01*
X72584201Y-59342886D01*
X72777114Y-59535799D01*
X72841310Y-59578693D01*
X72785518Y-59584188D01*
X72665820Y-59620498D01*
X72555506Y-59679463D01*
X72458815Y-59758815D01*
X72379463Y-59855506D01*
X72320498Y-59965820D01*
X72284188Y-60085518D01*
X72271928Y-60210000D01*
X72271928Y-61710000D01*
X72284188Y-61834482D01*
X72320498Y-61954180D01*
X72379463Y-62064494D01*
X72403987Y-62094376D01*
X72298698Y-62137988D01*
X71949017Y-62371637D01*
X71780000Y-62540654D01*
X71780000Y-52379346D01*
X71949017Y-52548363D01*
X72298698Y-52782012D01*
X72687244Y-52942953D01*
X73099721Y-53025000D01*
X73520279Y-53025000D01*
X73932756Y-52942953D01*
X74321302Y-52782012D01*
X74670983Y-52548363D01*
X74968363Y-52250983D01*
X75202012Y-51901302D01*
X75362953Y-51512756D01*
X75445000Y-51100279D01*
X75445000Y-50679721D01*
X76855000Y-50679721D01*
X76855000Y-51100279D01*
X76937047Y-51512756D01*
X77097988Y-51901302D01*
X77331637Y-52250983D01*
X77629017Y-52548363D01*
X77978698Y-52782012D01*
X78367244Y-52942953D01*
X78779721Y-53025000D01*
X79200279Y-53025000D01*
X79612756Y-52942953D01*
X80001302Y-52782012D01*
X80350983Y-52548363D01*
X80648363Y-52250983D01*
X80882012Y-51901302D01*
X81042953Y-51512756D01*
X81125000Y-51100279D01*
X81125000Y-50679721D01*
X81042953Y-50267244D01*
X80882012Y-49878698D01*
X80648363Y-49529017D01*
X80350983Y-49231637D01*
X80001302Y-48997988D01*
X79612756Y-48837047D01*
X79200279Y-48755000D01*
X78779721Y-48755000D01*
X78367244Y-48837047D01*
X77978698Y-48997988D01*
X77629017Y-49231637D01*
X77331637Y-49529017D01*
X77097988Y-49878698D01*
X76937047Y-50267244D01*
X76855000Y-50679721D01*
X75445000Y-50679721D01*
X75362953Y-50267244D01*
X75202012Y-49878698D01*
X74968363Y-49529017D01*
X74670983Y-49231637D01*
X74321302Y-48997988D01*
X73932756Y-48837047D01*
X73520279Y-48755000D01*
X73099721Y-48755000D01*
X72687244Y-48837047D01*
X72298698Y-48997988D01*
X71949017Y-49231637D01*
X71780000Y-49400654D01*
X71780000Y-41125900D01*
X77261808Y-41125900D01*
X77261808Y-43125900D01*
X77288479Y-43396699D01*
X77367469Y-43657092D01*
X77495740Y-43897071D01*
X77668365Y-44107415D01*
X77878709Y-44280040D01*
X78118688Y-44408311D01*
X78379081Y-44487301D01*
X78649880Y-44513972D01*
X80149880Y-44513972D01*
X80420679Y-44487301D01*
X80681072Y-44408311D01*
X80921051Y-44280040D01*
X81131395Y-44107415D01*
X81304020Y-43897071D01*
X81432291Y-43657092D01*
X81511281Y-43396699D01*
X81537952Y-43125900D01*
X81537952Y-41125900D01*
X81511281Y-40855101D01*
X81432291Y-40594708D01*
X81304020Y-40354729D01*
X81131395Y-40144385D01*
X80921051Y-39971760D01*
X80707103Y-39857403D01*
X80692337Y-39808727D01*
X80624087Y-39681040D01*
X80532238Y-39569122D01*
X80420320Y-39477273D01*
X80292633Y-39409023D01*
X80154085Y-39366995D01*
X80010000Y-39352804D01*
X79865916Y-39366995D01*
X79727368Y-39409023D01*
X79599681Y-39477273D01*
X79487763Y-39569122D01*
X79395914Y-39681040D01*
X79365560Y-39737828D01*
X78649880Y-39737828D01*
X78379081Y-39764499D01*
X78118688Y-39843489D01*
X77878709Y-39971760D01*
X77668365Y-40144385D01*
X77495740Y-40354729D01*
X77367469Y-40594708D01*
X77288479Y-40855101D01*
X77261808Y-41125900D01*
X71780000Y-41125900D01*
X71780000Y-37490000D01*
X169520000Y-37490000D01*
X169520001Y-85700000D01*
G37*
%TD.AperFunction*%
D28*
X82614918Y-79405494D02*
X82622278Y-79411534D01*
X82622278Y-79450511D01*
X82621336Y-79455620D01*
X82622278Y-79522812D01*
X82622278Y-79553807D01*
X82622785Y-79558951D01*
X82622857Y-79564111D01*
X82626322Y-79594867D01*
X82632025Y-79652773D01*
X82633496Y-79687703D01*
X82648156Y-79748020D01*
X82661120Y-79808733D01*
X82679556Y-79851534D01*
X82684719Y-79866289D01*
X82696993Y-79911254D01*
X82724710Y-79966802D01*
X82750861Y-80023111D01*
X82778366Y-80060745D01*
X82786674Y-80073968D01*
X82808642Y-80115067D01*
X82848028Y-80163060D01*
X82886051Y-80212135D01*
X82921234Y-80242700D01*
X82932281Y-80253747D01*
X82962844Y-80288928D01*
X83011912Y-80326945D01*
X83059911Y-80366337D01*
X83101013Y-80388307D01*
X83114238Y-80396616D01*
X83151868Y-80424118D01*
X83208169Y-80450265D01*
X83263725Y-80477986D01*
X83308687Y-80490259D01*
X83323435Y-80495420D01*
X83366236Y-80513856D01*
X83426949Y-80526821D01*
X83487276Y-80541483D01*
X83533837Y-80543444D01*
X83549366Y-80545193D01*
X83595207Y-80553645D01*
X83657293Y-80552773D01*
X83719350Y-80553644D01*
X83765183Y-80545194D01*
X83780719Y-80543444D01*
X83827279Y-80541483D01*
X83887606Y-80526821D01*
X83948319Y-80513856D01*
X83991116Y-80495421D01*
X84005868Y-80490259D01*
X84050830Y-80477986D01*
X84106378Y-80450269D01*
X84162687Y-80424118D01*
X84200321Y-80396613D01*
X84213544Y-80388305D01*
X84254643Y-80366337D01*
X84257277Y-80364175D01*
X84259911Y-80366337D01*
X84301013Y-80388307D01*
X84314238Y-80396616D01*
X84351868Y-80424118D01*
X84408169Y-80450265D01*
X84463725Y-80477986D01*
X84508687Y-80490259D01*
X84523435Y-80495420D01*
X84566236Y-80513856D01*
X84626949Y-80526821D01*
X84687276Y-80541483D01*
X84733837Y-80543444D01*
X84749366Y-80545193D01*
X84795207Y-80553645D01*
X84813978Y-80553381D01*
X84757525Y-80689671D01*
X84704300Y-80957249D01*
X84704300Y-81230071D01*
X84757525Y-81497649D01*
X84861929Y-81749703D01*
X85013501Y-81976546D01*
X85206414Y-82169459D01*
X85433257Y-82321031D01*
X85685311Y-82425435D01*
X85952889Y-82478660D01*
X86225711Y-82478660D01*
X86493289Y-82425435D01*
X86745343Y-82321031D01*
X86972186Y-82169459D01*
X87165099Y-81976546D01*
X87316671Y-81749703D01*
X87421075Y-81497649D01*
X87474300Y-81230071D01*
X87474300Y-80957249D01*
X87421075Y-80689671D01*
X87361511Y-80545871D01*
X87365183Y-80545194D01*
X87380719Y-80543444D01*
X87427279Y-80541483D01*
X87487606Y-80526821D01*
X87548319Y-80513856D01*
X87591116Y-80495421D01*
X87605868Y-80490259D01*
X87650830Y-80477986D01*
X87706378Y-80450269D01*
X87762687Y-80424118D01*
X87800321Y-80396613D01*
X87813544Y-80388305D01*
X87854643Y-80366337D01*
X87902636Y-80326951D01*
X87951711Y-80288928D01*
X87982276Y-80253745D01*
X87993323Y-80242698D01*
X88028504Y-80212135D01*
X88066521Y-80163067D01*
X88105913Y-80115068D01*
X88127883Y-80073966D01*
X88136192Y-80060741D01*
X88163694Y-80023111D01*
X88189841Y-79966810D01*
X88217562Y-79911254D01*
X88229836Y-79866289D01*
X88234995Y-79851546D01*
X88253432Y-79808744D01*
X88266399Y-79748023D01*
X88281059Y-79687703D01*
X88282529Y-79652790D01*
X88288235Y-79594858D01*
X88291698Y-79564123D01*
X88291770Y-79558960D01*
X88292278Y-79553807D01*
X88292278Y-79552702D01*
X91763567Y-79552702D01*
X91404974Y-79792306D01*
X90968306Y-80228974D01*
X90625219Y-80742441D01*
X90388896Y-81312974D01*
X90268420Y-81918649D01*
X90268420Y-82536191D01*
X90388896Y-83141866D01*
X90625219Y-83712399D01*
X90914434Y-84145240D01*
X85335247Y-84145240D01*
X83969740Y-82779734D01*
X83969740Y-81767006D01*
X83973296Y-81730901D01*
X83959105Y-81586816D01*
X83954369Y-81571203D01*
X83917077Y-81448268D01*
X83848827Y-81320581D01*
X83756978Y-81208663D01*
X83728933Y-81185647D01*
X82404673Y-79861388D01*
X82496671Y-79723703D01*
X82601075Y-79471649D01*
X82614317Y-79405079D01*
X82614918Y-79405494D01*
%TA.AperFunction,Conductor*%
D29*
G36*
X82614918Y-79405494D02*
G01*
X82622278Y-79411534D01*
X82622278Y-79450511D01*
X82621336Y-79455620D01*
X82622278Y-79522812D01*
X82622278Y-79553807D01*
X82622785Y-79558951D01*
X82622857Y-79564111D01*
X82626322Y-79594867D01*
X82632025Y-79652773D01*
X82633496Y-79687703D01*
X82648156Y-79748020D01*
X82661120Y-79808733D01*
X82679556Y-79851534D01*
X82684719Y-79866289D01*
X82696993Y-79911254D01*
X82724710Y-79966802D01*
X82750861Y-80023111D01*
X82778366Y-80060745D01*
X82786674Y-80073968D01*
X82808642Y-80115067D01*
X82848028Y-80163060D01*
X82886051Y-80212135D01*
X82921234Y-80242700D01*
X82932281Y-80253747D01*
X82962844Y-80288928D01*
X83011912Y-80326945D01*
X83059911Y-80366337D01*
X83101013Y-80388307D01*
X83114238Y-80396616D01*
X83151868Y-80424118D01*
X83208169Y-80450265D01*
X83263725Y-80477986D01*
X83308687Y-80490259D01*
X83323435Y-80495420D01*
X83366236Y-80513856D01*
X83426949Y-80526821D01*
X83487276Y-80541483D01*
X83533837Y-80543444D01*
X83549366Y-80545193D01*
X83595207Y-80553645D01*
X83657293Y-80552773D01*
X83719350Y-80553644D01*
X83765183Y-80545194D01*
X83780719Y-80543444D01*
X83827279Y-80541483D01*
X83887606Y-80526821D01*
X83948319Y-80513856D01*
X83991116Y-80495421D01*
X84005868Y-80490259D01*
X84050830Y-80477986D01*
X84106378Y-80450269D01*
X84162687Y-80424118D01*
X84200321Y-80396613D01*
X84213544Y-80388305D01*
X84254643Y-80366337D01*
X84257277Y-80364175D01*
X84259911Y-80366337D01*
X84301013Y-80388307D01*
X84314238Y-80396616D01*
X84351868Y-80424118D01*
X84408169Y-80450265D01*
X84463725Y-80477986D01*
X84508687Y-80490259D01*
X84523435Y-80495420D01*
X84566236Y-80513856D01*
X84626949Y-80526821D01*
X84687276Y-80541483D01*
X84733837Y-80543444D01*
X84749366Y-80545193D01*
X84795207Y-80553645D01*
X84813978Y-80553381D01*
X84757525Y-80689671D01*
X84704300Y-80957249D01*
X84704300Y-81230071D01*
X84757525Y-81497649D01*
X84861929Y-81749703D01*
X85013501Y-81976546D01*
X85206414Y-82169459D01*
X85433257Y-82321031D01*
X85685311Y-82425435D01*
X85952889Y-82478660D01*
X86225711Y-82478660D01*
X86493289Y-82425435D01*
X86745343Y-82321031D01*
X86972186Y-82169459D01*
X87165099Y-81976546D01*
X87316671Y-81749703D01*
X87421075Y-81497649D01*
X87474300Y-81230071D01*
X87474300Y-80957249D01*
X87421075Y-80689671D01*
X87361511Y-80545871D01*
X87365183Y-80545194D01*
X87380719Y-80543444D01*
X87427279Y-80541483D01*
X87487606Y-80526821D01*
X87548319Y-80513856D01*
X87591116Y-80495421D01*
X87605868Y-80490259D01*
X87650830Y-80477986D01*
X87706378Y-80450269D01*
X87762687Y-80424118D01*
X87800321Y-80396613D01*
X87813544Y-80388305D01*
X87854643Y-80366337D01*
X87902636Y-80326951D01*
X87951711Y-80288928D01*
X87982276Y-80253745D01*
X87993323Y-80242698D01*
X88028504Y-80212135D01*
X88066521Y-80163067D01*
X88105913Y-80115068D01*
X88127883Y-80073966D01*
X88136192Y-80060741D01*
X88163694Y-80023111D01*
X88189841Y-79966810D01*
X88217562Y-79911254D01*
X88229836Y-79866289D01*
X88234995Y-79851546D01*
X88253432Y-79808744D01*
X88266399Y-79748023D01*
X88281059Y-79687703D01*
X88282529Y-79652790D01*
X88288235Y-79594858D01*
X88291698Y-79564123D01*
X88291770Y-79558960D01*
X88292278Y-79553807D01*
X88292278Y-79552702D01*
X91763567Y-79552702D01*
X91404974Y-79792306D01*
X90968306Y-80228974D01*
X90625219Y-80742441D01*
X90388896Y-81312974D01*
X90268420Y-81918649D01*
X90268420Y-82536191D01*
X90388896Y-83141866D01*
X90625219Y-83712399D01*
X90914434Y-84145240D01*
X85335247Y-84145240D01*
X83969740Y-82779734D01*
X83969740Y-81767006D01*
X83973296Y-81730901D01*
X83959105Y-81586816D01*
X83954369Y-81571203D01*
X83917077Y-81448268D01*
X83848827Y-81320581D01*
X83756978Y-81208663D01*
X83728933Y-81185647D01*
X82404673Y-79861388D01*
X82496671Y-79723703D01*
X82601075Y-79471649D01*
X82614317Y-79405079D01*
X82614918Y-79405494D01*
G37*
%TD.AperFunction*%
%TD*%
M02*
