%TF.GenerationSoftware,KiCad,Pcbnew,(5.1.7)-1*%
%TF.CreationDate,2020-11-11T14:22:04+03:00*%
%TF.ProjectId,MT7628_USB_MODEM,4d543736-3238-45f5-9553-425f4d4f4445,rev?*%
%TF.SameCoordinates,Original*%
%TF.FileFunction,Legend,Top*%
%TF.FilePolarity,Positive*%
%FSLAX46Y46*%
G04 Gerber Fmt 4.6, Leading zero omitted, Abs format (unit mm)*
G04 Created by KiCad (PCBNEW (5.1.7)-1) date 2020-11-11 14:22:04*
%MOMM*%
%LPD*%
G01*
G04 APERTURE LIST*
%ADD10C,0.120000*%
%ADD11C,0.200000*%
%ADD12C,0.100000*%
%ADD13C,0.150000*%
%ADD14C,0.254000*%
G04 APERTURE END LIST*
D10*
%TO.C,D1*%
X150217820Y-68818760D02*
X150217820Y-65368760D01*
X150217820Y-68818760D02*
X150217820Y-70768760D01*
X145097820Y-68818760D02*
X145097820Y-66868760D01*
X145097820Y-68818760D02*
X145097820Y-70768760D01*
%TO.C,D2*%
X150034940Y-51516280D02*
X150034940Y-48066280D01*
X150034940Y-51516280D02*
X150034940Y-53466280D01*
X144914940Y-51516280D02*
X144914940Y-49566280D01*
X144914940Y-51516280D02*
X144914940Y-53466280D01*
%TO.C,R25*%
X130115840Y-75987678D02*
X130115840Y-75513162D01*
X129070840Y-75987678D02*
X129070840Y-75513162D01*
%TO.C,J7*%
X125578560Y-84159400D02*
X125578560Y-82829400D01*
X126908560Y-84159400D02*
X125578560Y-84159400D01*
X128178560Y-84159400D02*
X128178560Y-81499400D01*
X128178560Y-81499400D02*
X130778560Y-81499400D01*
X128178560Y-84159400D02*
X130778560Y-84159400D01*
X130778560Y-84159400D02*
X130778560Y-81499400D01*
%TO.C,Q1*%
X128724120Y-77571480D02*
X130184120Y-77571480D01*
X128724120Y-80731480D02*
X130884120Y-80731480D01*
X128724120Y-80731480D02*
X128724120Y-79801480D01*
X128724120Y-77571480D02*
X128724120Y-78501480D01*
%TO.C,C10*%
X160265692Y-72135320D02*
X158843188Y-72135320D01*
X160265692Y-73955320D02*
X158843188Y-73955320D01*
%TO.C,C9*%
X159678952Y-54726160D02*
X158256448Y-54726160D01*
X159678952Y-56546160D02*
X158256448Y-56546160D01*
%TO.C,C2*%
X150152048Y-76000020D02*
X151574552Y-76000020D01*
X150152048Y-74180020D02*
X151574552Y-74180020D01*
%TO.C,C1*%
X149435768Y-58730560D02*
X150858272Y-58730560D01*
X149435768Y-56910560D02*
X150858272Y-56910560D01*
%TO.C,C6*%
X145731560Y-63217732D02*
X145731560Y-62695228D01*
X147201560Y-63217732D02*
X147201560Y-62695228D01*
%TO.C,J2*%
X71379300Y-84888660D02*
X71379300Y-68158660D01*
X71379300Y-84888660D02*
X78989300Y-84888660D01*
X71379300Y-68158660D02*
X78989300Y-68158660D01*
X87349300Y-84888660D02*
X87349300Y-68158660D01*
X87349300Y-84888660D02*
X81789300Y-84888660D01*
X87349300Y-68158660D02*
X81789300Y-68158660D01*
X78789300Y-85083660D02*
X79289300Y-85583660D01*
X79289300Y-85583660D02*
X78289300Y-85583660D01*
X78289300Y-85583660D02*
X78789300Y-85083660D01*
%TO.C,TR1*%
X112095280Y-83093440D02*
X112095280Y-76093440D01*
X99095280Y-83093440D02*
X112095280Y-83093440D01*
X99095280Y-76093440D02*
X99095280Y-83093440D01*
X112095280Y-76093440D02*
X99095280Y-76093440D01*
%TO.C,J4*%
X90833900Y-52445920D02*
X93493900Y-52445920D01*
X90833900Y-52445920D02*
X90833900Y-57585920D01*
X90833900Y-57585920D02*
X93493900Y-57585920D01*
X93493900Y-52445920D02*
X93493900Y-57585920D01*
X93493900Y-49845920D02*
X93493900Y-51175920D01*
X92163900Y-49845920D02*
X93493900Y-49845920D01*
%TO.C,J3*%
X86499880Y-38375900D02*
X86499880Y-37325900D01*
X85449880Y-37325900D02*
X86499880Y-37325900D01*
X80399880Y-46725900D02*
X71599880Y-46725900D01*
X71599880Y-46725900D02*
X71599880Y-37525900D01*
X86299880Y-44025900D02*
X86299880Y-46725900D01*
X86299880Y-46725900D02*
X84399880Y-46725900D01*
X71599880Y-37525900D02*
X86299880Y-37525900D01*
X86299880Y-37525900D02*
X86299880Y-40125900D01*
%TO.C,J1*%
X77240000Y-51150000D02*
X75060000Y-51150000D01*
X77240000Y-63770000D02*
X75060000Y-63770000D01*
X80740000Y-51150000D02*
X88710000Y-51150000D01*
X88710000Y-51150000D02*
X88710000Y-50150000D01*
X88710000Y-50150000D02*
X89330000Y-50150000D01*
X89330000Y-50150000D02*
X89330000Y-64770000D01*
X89330000Y-64770000D02*
X88710000Y-64770000D01*
X88710000Y-64770000D02*
X88710000Y-63770000D01*
X88710000Y-63770000D02*
X80740000Y-63770000D01*
X72210000Y-62650000D02*
X72210000Y-52270000D01*
X72060000Y-60560000D02*
X72060000Y-61360000D01*
%TO.C,R24*%
X91992076Y-48314280D02*
X92446204Y-48314280D01*
X91992076Y-46844280D02*
X92446204Y-46844280D01*
D11*
%TO.C,D5*%
X128573940Y-50721060D02*
X128573940Y-50721060D01*
X128573940Y-50821060D02*
X128573940Y-50821060D01*
X128573940Y-50721060D02*
X128573940Y-50721060D01*
D12*
X131673940Y-52471060D02*
X131673940Y-52471060D01*
X129573940Y-52471060D02*
X131673940Y-52471060D01*
X129573940Y-52471060D02*
X129573940Y-52471060D01*
X131673940Y-52471060D02*
X129573940Y-52471060D01*
X131673940Y-52471060D02*
X131673940Y-71171060D01*
X131673940Y-52471060D02*
X131673940Y-52471060D01*
X131673940Y-71171060D02*
X131673940Y-52471060D01*
X131673940Y-71171060D02*
X131673940Y-71171060D01*
X129573940Y-71171060D02*
X129573940Y-71171060D01*
X131673940Y-71171060D02*
X129573940Y-71171060D01*
X131673940Y-71171060D02*
X131673940Y-71171060D01*
X129573940Y-71171060D02*
X131673940Y-71171060D01*
X96473940Y-71171060D02*
X96473940Y-69071060D01*
X96473940Y-71171060D02*
X96473940Y-71171060D01*
X96473940Y-69071060D02*
X96473940Y-71171060D01*
X96473940Y-69071060D02*
X96473940Y-69071060D01*
X96473940Y-52471060D02*
X96473940Y-54321060D01*
X96473940Y-52471060D02*
X96473940Y-52471060D01*
X96473940Y-54321060D02*
X96473940Y-52471060D01*
X96473940Y-54321060D02*
X96473940Y-54321060D01*
D11*
X128573940Y-50821060D02*
G75*
G02*
X128573940Y-50721060I0J50000D01*
G01*
X128573940Y-50721060D02*
G75*
G02*
X128573940Y-50821060I0J-50000D01*
G01*
X128573940Y-50821060D02*
G75*
G03*
X128573940Y-50721060I0J50000D01*
G01*
D10*
%TO.C,D6*%
X101544600Y-37479960D02*
X101544600Y-44464960D01*
X105414600Y-37479960D02*
X101544600Y-37479960D01*
X105414600Y-44464960D02*
X105414600Y-37479960D01*
%TO.C,D4*%
X156331540Y-73243240D02*
X156331540Y-69358240D01*
X156331540Y-69358240D02*
X154061540Y-69358240D01*
X154061540Y-69358240D02*
X154061540Y-73243240D01*
%TO.C,D3*%
X153421460Y-52015120D02*
X153421460Y-55900120D01*
X155691460Y-52015120D02*
X153421460Y-52015120D01*
X155691460Y-55900120D02*
X155691460Y-52015120D01*
%TO.C,L2*%
X159752520Y-61405280D02*
X159752520Y-63705280D01*
X152352520Y-61405280D02*
X159752520Y-61405280D01*
X152352520Y-63705280D02*
X152352520Y-61405280D01*
X152352520Y-68805280D02*
X152352520Y-66505280D01*
X159752520Y-68805280D02*
X152352520Y-68805280D01*
X159752520Y-66505280D02*
X159752520Y-68805280D01*
%TO.C,L1*%
X159219120Y-44054540D02*
X159219120Y-46354540D01*
X151819120Y-44054540D02*
X159219120Y-44054540D01*
X151819120Y-46354540D02*
X151819120Y-44054540D01*
X151819120Y-51454540D02*
X151819120Y-49154540D01*
X159219120Y-51454540D02*
X151819120Y-51454540D01*
X159219120Y-49154540D02*
X159219120Y-51454540D01*
%TO.C,SW1*%
X121098360Y-82887080D02*
X114278360Y-82887080D01*
X121098360Y-78667080D02*
X114278360Y-78667080D01*
X121098360Y-82887080D02*
X121098360Y-81577080D01*
X121098360Y-79977080D02*
X121098360Y-78667080D01*
X114278360Y-82887080D02*
X114278360Y-81577080D01*
X114278360Y-79977080D02*
X114278360Y-78667080D01*
X121338360Y-83127080D02*
X119955360Y-83127080D01*
X121338360Y-83127080D02*
X121338360Y-81744080D01*
X119498360Y-81412080D02*
X119498360Y-80142080D01*
X119498360Y-80142080D02*
X115878360Y-80142080D01*
X115878360Y-80142080D02*
X115878360Y-81412080D01*
X115878360Y-81412080D02*
X119498360Y-81412080D01*
X119498360Y-81292080D02*
X118291693Y-81292080D01*
X119498360Y-81172080D02*
X118291693Y-81172080D01*
X119498360Y-81052080D02*
X118291693Y-81052080D01*
X119498360Y-80932080D02*
X118291693Y-80932080D01*
X119498360Y-80812080D02*
X118291693Y-80812080D01*
X119498360Y-80692080D02*
X118291693Y-80692080D01*
X119498360Y-80572080D02*
X118291693Y-80572080D01*
X119498360Y-80452080D02*
X118291693Y-80452080D01*
X119498360Y-80332080D02*
X118291693Y-80332080D01*
X119498360Y-80212080D02*
X118291693Y-80212080D01*
X118291693Y-81412080D02*
X118291693Y-80142080D01*
%TO.C,R23*%
X90552038Y-72109860D02*
X90077522Y-72109860D01*
X90552038Y-71064860D02*
X90077522Y-71064860D01*
%TO.C,R22*%
X90544418Y-70535060D02*
X90069902Y-70535060D01*
X90544418Y-69490060D02*
X90069902Y-69490060D01*
%TO.C,R19*%
X112371400Y-46891942D02*
X112371400Y-47366458D01*
X111326400Y-46891942D02*
X111326400Y-47366458D01*
%TO.C,R17*%
X132126758Y-41746700D02*
X131652242Y-41746700D01*
X132126758Y-40701700D02*
X131652242Y-40701700D01*
%TO.C,R11*%
X141268182Y-47991500D02*
X141742698Y-47991500D01*
X141268182Y-49036500D02*
X141742698Y-49036500D01*
%TO.C,R10*%
X144400800Y-66419462D02*
X144400800Y-66893978D01*
X143355800Y-66419462D02*
X143355800Y-66893978D01*
%TO.C,R9*%
X144433820Y-49005222D02*
X144433820Y-49479738D01*
X143388820Y-49005222D02*
X143388820Y-49479738D01*
%TO.C,R5*%
X147780480Y-63411638D02*
X147780480Y-62937122D01*
X148825480Y-63411638D02*
X148825480Y-62937122D01*
%TO.C,J6*%
X113901220Y-44466820D02*
X113901220Y-41806820D01*
X113901220Y-44466820D02*
X119041220Y-44466820D01*
X119041220Y-44466820D02*
X119041220Y-41806820D01*
X113901220Y-41806820D02*
X119041220Y-41806820D01*
X111301220Y-41806820D02*
X112631220Y-41806820D01*
X111301220Y-43136820D02*
X111301220Y-41806820D01*
%TO.C,J5*%
X122847100Y-44431260D02*
X122847100Y-41771260D01*
X122847100Y-44431260D02*
X127987100Y-44431260D01*
X127987100Y-44431260D02*
X127987100Y-41771260D01*
X122847100Y-41771260D02*
X127987100Y-41771260D01*
X120247100Y-41771260D02*
X121577100Y-41771260D01*
X120247100Y-43101260D02*
X120247100Y-41771260D01*
%TO.C,F1*%
X99548880Y-39535351D02*
X99548880Y-39245289D01*
X100968880Y-39535351D02*
X100968880Y-39245289D01*
%TO.C,D7*%
X136247140Y-40533440D02*
X133562140Y-40533440D01*
X133562140Y-40533440D02*
X133562140Y-42453440D01*
X133562140Y-42453440D02*
X136247140Y-42453440D01*
%TO.C,C12*%
X109386040Y-39103708D02*
X109386040Y-39626212D01*
X107916040Y-39103708D02*
X107916040Y-39626212D01*
%TO.C,C16*%
X127246748Y-49358220D02*
X127769252Y-49358220D01*
X127246748Y-47888220D02*
X127769252Y-47888220D01*
%TO.C,R21*%
X114037640Y-46891942D02*
X114037640Y-47366458D01*
X112992640Y-46891942D02*
X112992640Y-47366458D01*
%TO.C,R20*%
X120316520Y-46891942D02*
X120316520Y-47366458D01*
X119271520Y-46891942D02*
X119271520Y-47366458D01*
%TO.C,R18*%
X118701080Y-46891942D02*
X118701080Y-47366458D01*
X117656080Y-46891942D02*
X117656080Y-47366458D01*
%TO.C,R16*%
X91034340Y-62809658D02*
X91034340Y-62335142D01*
X92079340Y-62809658D02*
X92079340Y-62335142D01*
%TO.C,R15*%
X92654860Y-62809658D02*
X92654860Y-62335142D01*
X93699860Y-62809658D02*
X93699860Y-62335142D01*
%TO.C,R14*%
X90544418Y-67278780D02*
X90069902Y-67278780D01*
X90544418Y-66233780D02*
X90069902Y-66233780D01*
%TO.C,R13*%
X90069902Y-67836520D02*
X90544418Y-67836520D01*
X90069902Y-68881520D02*
X90544418Y-68881520D01*
%TO.C,R12*%
X141265642Y-65395580D02*
X141740158Y-65395580D01*
X141265642Y-66440580D02*
X141740158Y-66440580D01*
%TO.C,R8*%
X143970480Y-62993538D02*
X143970480Y-62519022D01*
X145015480Y-62993538D02*
X145015480Y-62519022D01*
%TO.C,R7*%
X143385915Y-45663638D02*
X143385915Y-45189122D01*
X144430915Y-45663638D02*
X144430915Y-45189122D01*
%TO.C,R6*%
X146536678Y-74235840D02*
X146062162Y-74235840D01*
X146536678Y-73190840D02*
X146062162Y-73190840D01*
%TO.C,R4*%
X150501880Y-62950322D02*
X150501880Y-63424838D01*
X149456880Y-62950322D02*
X149456880Y-63424838D01*
%TO.C,R3*%
X146419838Y-56953680D02*
X145945322Y-56953680D01*
X146419838Y-55908680D02*
X145945322Y-55908680D01*
%TO.C,R2*%
X147384240Y-45644338D02*
X147384240Y-45169822D01*
X148429240Y-45644338D02*
X148429240Y-45169822D01*
%TO.C,R1*%
X150082780Y-45159662D02*
X150082780Y-45634178D01*
X149037780Y-45159662D02*
X149037780Y-45634178D01*
%TO.C,C15*%
X127251828Y-45866380D02*
X127774332Y-45866380D01*
X127251828Y-47336380D02*
X127774332Y-47336380D01*
%TO.C,C14*%
X160871920Y-81340640D02*
G75*
G03*
X160871920Y-81340640I-3270000J0D01*
G01*
X154371920Y-81340640D02*
X160831920Y-81340640D01*
X154371920Y-81300640D02*
X160831920Y-81300640D01*
X154371920Y-81260640D02*
X160831920Y-81260640D01*
X154373920Y-81220640D02*
X160829920Y-81220640D01*
X154374920Y-81180640D02*
X160828920Y-81180640D01*
X154377920Y-81140640D02*
X160825920Y-81140640D01*
X154379920Y-81100640D02*
X156561920Y-81100640D01*
X158641920Y-81100640D02*
X160823920Y-81100640D01*
X154383920Y-81060640D02*
X156561920Y-81060640D01*
X158641920Y-81060640D02*
X160819920Y-81060640D01*
X154386920Y-81020640D02*
X156561920Y-81020640D01*
X158641920Y-81020640D02*
X160816920Y-81020640D01*
X154390920Y-80980640D02*
X156561920Y-80980640D01*
X158641920Y-80980640D02*
X160812920Y-80980640D01*
X154395920Y-80940640D02*
X156561920Y-80940640D01*
X158641920Y-80940640D02*
X160807920Y-80940640D01*
X154400920Y-80900640D02*
X156561920Y-80900640D01*
X158641920Y-80900640D02*
X160802920Y-80900640D01*
X154406920Y-80860640D02*
X156561920Y-80860640D01*
X158641920Y-80860640D02*
X160796920Y-80860640D01*
X154412920Y-80820640D02*
X156561920Y-80820640D01*
X158641920Y-80820640D02*
X160790920Y-80820640D01*
X154419920Y-80780640D02*
X156561920Y-80780640D01*
X158641920Y-80780640D02*
X160783920Y-80780640D01*
X154426920Y-80740640D02*
X156561920Y-80740640D01*
X158641920Y-80740640D02*
X160776920Y-80740640D01*
X154434920Y-80700640D02*
X156561920Y-80700640D01*
X158641920Y-80700640D02*
X160768920Y-80700640D01*
X154442920Y-80660640D02*
X156561920Y-80660640D01*
X158641920Y-80660640D02*
X160760920Y-80660640D01*
X154451920Y-80619640D02*
X156561920Y-80619640D01*
X158641920Y-80619640D02*
X160751920Y-80619640D01*
X154460920Y-80579640D02*
X156561920Y-80579640D01*
X158641920Y-80579640D02*
X160742920Y-80579640D01*
X154470920Y-80539640D02*
X156561920Y-80539640D01*
X158641920Y-80539640D02*
X160732920Y-80539640D01*
X154480920Y-80499640D02*
X156561920Y-80499640D01*
X158641920Y-80499640D02*
X160722920Y-80499640D01*
X154491920Y-80459640D02*
X156561920Y-80459640D01*
X158641920Y-80459640D02*
X160711920Y-80459640D01*
X154503920Y-80419640D02*
X156561920Y-80419640D01*
X158641920Y-80419640D02*
X160699920Y-80419640D01*
X154515920Y-80379640D02*
X156561920Y-80379640D01*
X158641920Y-80379640D02*
X160687920Y-80379640D01*
X154527920Y-80339640D02*
X156561920Y-80339640D01*
X158641920Y-80339640D02*
X160675920Y-80339640D01*
X154540920Y-80299640D02*
X156561920Y-80299640D01*
X158641920Y-80299640D02*
X160662920Y-80299640D01*
X154554920Y-80259640D02*
X156561920Y-80259640D01*
X158641920Y-80259640D02*
X160648920Y-80259640D01*
X154568920Y-80219640D02*
X156561920Y-80219640D01*
X158641920Y-80219640D02*
X160634920Y-80219640D01*
X154583920Y-80179640D02*
X156561920Y-80179640D01*
X158641920Y-80179640D02*
X160619920Y-80179640D01*
X154599920Y-80139640D02*
X156561920Y-80139640D01*
X158641920Y-80139640D02*
X160603920Y-80139640D01*
X154615920Y-80099640D02*
X156561920Y-80099640D01*
X158641920Y-80099640D02*
X160587920Y-80099640D01*
X154631920Y-80059640D02*
X156561920Y-80059640D01*
X158641920Y-80059640D02*
X160571920Y-80059640D01*
X154649920Y-80019640D02*
X156561920Y-80019640D01*
X158641920Y-80019640D02*
X160553920Y-80019640D01*
X154667920Y-79979640D02*
X156561920Y-79979640D01*
X158641920Y-79979640D02*
X160535920Y-79979640D01*
X154685920Y-79939640D02*
X156561920Y-79939640D01*
X158641920Y-79939640D02*
X160517920Y-79939640D01*
X154705920Y-79899640D02*
X156561920Y-79899640D01*
X158641920Y-79899640D02*
X160497920Y-79899640D01*
X154725920Y-79859640D02*
X156561920Y-79859640D01*
X158641920Y-79859640D02*
X160477920Y-79859640D01*
X154745920Y-79819640D02*
X156561920Y-79819640D01*
X158641920Y-79819640D02*
X160457920Y-79819640D01*
X154767920Y-79779640D02*
X156561920Y-79779640D01*
X158641920Y-79779640D02*
X160435920Y-79779640D01*
X154789920Y-79739640D02*
X156561920Y-79739640D01*
X158641920Y-79739640D02*
X160413920Y-79739640D01*
X154811920Y-79699640D02*
X156561920Y-79699640D01*
X158641920Y-79699640D02*
X160391920Y-79699640D01*
X154835920Y-79659640D02*
X156561920Y-79659640D01*
X158641920Y-79659640D02*
X160367920Y-79659640D01*
X154859920Y-79619640D02*
X156561920Y-79619640D01*
X158641920Y-79619640D02*
X160343920Y-79619640D01*
X154885920Y-79579640D02*
X156561920Y-79579640D01*
X158641920Y-79579640D02*
X160317920Y-79579640D01*
X154911920Y-79539640D02*
X156561920Y-79539640D01*
X158641920Y-79539640D02*
X160291920Y-79539640D01*
X154937920Y-79499640D02*
X156561920Y-79499640D01*
X158641920Y-79499640D02*
X160265920Y-79499640D01*
X154965920Y-79459640D02*
X156561920Y-79459640D01*
X158641920Y-79459640D02*
X160237920Y-79459640D01*
X154994920Y-79419640D02*
X156561920Y-79419640D01*
X158641920Y-79419640D02*
X160208920Y-79419640D01*
X155023920Y-79379640D02*
X156561920Y-79379640D01*
X158641920Y-79379640D02*
X160179920Y-79379640D01*
X155053920Y-79339640D02*
X156561920Y-79339640D01*
X158641920Y-79339640D02*
X160149920Y-79339640D01*
X155085920Y-79299640D02*
X156561920Y-79299640D01*
X158641920Y-79299640D02*
X160117920Y-79299640D01*
X155117920Y-79259640D02*
X156561920Y-79259640D01*
X158641920Y-79259640D02*
X160085920Y-79259640D01*
X155151920Y-79219640D02*
X156561920Y-79219640D01*
X158641920Y-79219640D02*
X160051920Y-79219640D01*
X155185920Y-79179640D02*
X156561920Y-79179640D01*
X158641920Y-79179640D02*
X160017920Y-79179640D01*
X155221920Y-79139640D02*
X156561920Y-79139640D01*
X158641920Y-79139640D02*
X159981920Y-79139640D01*
X155258920Y-79099640D02*
X156561920Y-79099640D01*
X158641920Y-79099640D02*
X159944920Y-79099640D01*
X155296920Y-79059640D02*
X156561920Y-79059640D01*
X158641920Y-79059640D02*
X159906920Y-79059640D01*
X155336920Y-79019640D02*
X159866920Y-79019640D01*
X155377920Y-78979640D02*
X159825920Y-78979640D01*
X155419920Y-78939640D02*
X159783920Y-78939640D01*
X155464920Y-78899640D02*
X159738920Y-78899640D01*
X155509920Y-78859640D02*
X159693920Y-78859640D01*
X155557920Y-78819640D02*
X159645920Y-78819640D01*
X155606920Y-78779640D02*
X159596920Y-78779640D01*
X155657920Y-78739640D02*
X159545920Y-78739640D01*
X155711920Y-78699640D02*
X159491920Y-78699640D01*
X155767920Y-78659640D02*
X159435920Y-78659640D01*
X155825920Y-78619640D02*
X159377920Y-78619640D01*
X155887920Y-78579640D02*
X159315920Y-78579640D01*
X155951920Y-78539640D02*
X159251920Y-78539640D01*
X156020920Y-78499640D02*
X159182920Y-78499640D01*
X156092920Y-78459640D02*
X159110920Y-78459640D01*
X156169920Y-78419640D02*
X159033920Y-78419640D01*
X156251920Y-78379640D02*
X158951920Y-78379640D01*
X156339920Y-78339640D02*
X158863920Y-78339640D01*
X156436920Y-78299640D02*
X158766920Y-78299640D01*
X156542920Y-78259640D02*
X158660920Y-78259640D01*
X156661920Y-78219640D02*
X158541920Y-78219640D01*
X156799920Y-78179640D02*
X158403920Y-78179640D01*
X156968920Y-78139640D02*
X158234920Y-78139640D01*
X157199920Y-78099640D02*
X158003920Y-78099640D01*
X155762920Y-84840881D02*
X155762920Y-84210881D01*
X155447920Y-84525881D02*
X156077920Y-84525881D01*
%TO.C,C13*%
X152167340Y-81495580D02*
G75*
G03*
X152167340Y-81495580I-3270000J0D01*
G01*
X145667340Y-81495580D02*
X152127340Y-81495580D01*
X145667340Y-81455580D02*
X152127340Y-81455580D01*
X145667340Y-81415580D02*
X152127340Y-81415580D01*
X145669340Y-81375580D02*
X152125340Y-81375580D01*
X145670340Y-81335580D02*
X152124340Y-81335580D01*
X145673340Y-81295580D02*
X152121340Y-81295580D01*
X145675340Y-81255580D02*
X147857340Y-81255580D01*
X149937340Y-81255580D02*
X152119340Y-81255580D01*
X145679340Y-81215580D02*
X147857340Y-81215580D01*
X149937340Y-81215580D02*
X152115340Y-81215580D01*
X145682340Y-81175580D02*
X147857340Y-81175580D01*
X149937340Y-81175580D02*
X152112340Y-81175580D01*
X145686340Y-81135580D02*
X147857340Y-81135580D01*
X149937340Y-81135580D02*
X152108340Y-81135580D01*
X145691340Y-81095580D02*
X147857340Y-81095580D01*
X149937340Y-81095580D02*
X152103340Y-81095580D01*
X145696340Y-81055580D02*
X147857340Y-81055580D01*
X149937340Y-81055580D02*
X152098340Y-81055580D01*
X145702340Y-81015580D02*
X147857340Y-81015580D01*
X149937340Y-81015580D02*
X152092340Y-81015580D01*
X145708340Y-80975580D02*
X147857340Y-80975580D01*
X149937340Y-80975580D02*
X152086340Y-80975580D01*
X145715340Y-80935580D02*
X147857340Y-80935580D01*
X149937340Y-80935580D02*
X152079340Y-80935580D01*
X145722340Y-80895580D02*
X147857340Y-80895580D01*
X149937340Y-80895580D02*
X152072340Y-80895580D01*
X145730340Y-80855580D02*
X147857340Y-80855580D01*
X149937340Y-80855580D02*
X152064340Y-80855580D01*
X145738340Y-80815580D02*
X147857340Y-80815580D01*
X149937340Y-80815580D02*
X152056340Y-80815580D01*
X145747340Y-80774580D02*
X147857340Y-80774580D01*
X149937340Y-80774580D02*
X152047340Y-80774580D01*
X145756340Y-80734580D02*
X147857340Y-80734580D01*
X149937340Y-80734580D02*
X152038340Y-80734580D01*
X145766340Y-80694580D02*
X147857340Y-80694580D01*
X149937340Y-80694580D02*
X152028340Y-80694580D01*
X145776340Y-80654580D02*
X147857340Y-80654580D01*
X149937340Y-80654580D02*
X152018340Y-80654580D01*
X145787340Y-80614580D02*
X147857340Y-80614580D01*
X149937340Y-80614580D02*
X152007340Y-80614580D01*
X145799340Y-80574580D02*
X147857340Y-80574580D01*
X149937340Y-80574580D02*
X151995340Y-80574580D01*
X145811340Y-80534580D02*
X147857340Y-80534580D01*
X149937340Y-80534580D02*
X151983340Y-80534580D01*
X145823340Y-80494580D02*
X147857340Y-80494580D01*
X149937340Y-80494580D02*
X151971340Y-80494580D01*
X145836340Y-80454580D02*
X147857340Y-80454580D01*
X149937340Y-80454580D02*
X151958340Y-80454580D01*
X145850340Y-80414580D02*
X147857340Y-80414580D01*
X149937340Y-80414580D02*
X151944340Y-80414580D01*
X145864340Y-80374580D02*
X147857340Y-80374580D01*
X149937340Y-80374580D02*
X151930340Y-80374580D01*
X145879340Y-80334580D02*
X147857340Y-80334580D01*
X149937340Y-80334580D02*
X151915340Y-80334580D01*
X145895340Y-80294580D02*
X147857340Y-80294580D01*
X149937340Y-80294580D02*
X151899340Y-80294580D01*
X145911340Y-80254580D02*
X147857340Y-80254580D01*
X149937340Y-80254580D02*
X151883340Y-80254580D01*
X145927340Y-80214580D02*
X147857340Y-80214580D01*
X149937340Y-80214580D02*
X151867340Y-80214580D01*
X145945340Y-80174580D02*
X147857340Y-80174580D01*
X149937340Y-80174580D02*
X151849340Y-80174580D01*
X145963340Y-80134580D02*
X147857340Y-80134580D01*
X149937340Y-80134580D02*
X151831340Y-80134580D01*
X145981340Y-80094580D02*
X147857340Y-80094580D01*
X149937340Y-80094580D02*
X151813340Y-80094580D01*
X146001340Y-80054580D02*
X147857340Y-80054580D01*
X149937340Y-80054580D02*
X151793340Y-80054580D01*
X146021340Y-80014580D02*
X147857340Y-80014580D01*
X149937340Y-80014580D02*
X151773340Y-80014580D01*
X146041340Y-79974580D02*
X147857340Y-79974580D01*
X149937340Y-79974580D02*
X151753340Y-79974580D01*
X146063340Y-79934580D02*
X147857340Y-79934580D01*
X149937340Y-79934580D02*
X151731340Y-79934580D01*
X146085340Y-79894580D02*
X147857340Y-79894580D01*
X149937340Y-79894580D02*
X151709340Y-79894580D01*
X146107340Y-79854580D02*
X147857340Y-79854580D01*
X149937340Y-79854580D02*
X151687340Y-79854580D01*
X146131340Y-79814580D02*
X147857340Y-79814580D01*
X149937340Y-79814580D02*
X151663340Y-79814580D01*
X146155340Y-79774580D02*
X147857340Y-79774580D01*
X149937340Y-79774580D02*
X151639340Y-79774580D01*
X146181340Y-79734580D02*
X147857340Y-79734580D01*
X149937340Y-79734580D02*
X151613340Y-79734580D01*
X146207340Y-79694580D02*
X147857340Y-79694580D01*
X149937340Y-79694580D02*
X151587340Y-79694580D01*
X146233340Y-79654580D02*
X147857340Y-79654580D01*
X149937340Y-79654580D02*
X151561340Y-79654580D01*
X146261340Y-79614580D02*
X147857340Y-79614580D01*
X149937340Y-79614580D02*
X151533340Y-79614580D01*
X146290340Y-79574580D02*
X147857340Y-79574580D01*
X149937340Y-79574580D02*
X151504340Y-79574580D01*
X146319340Y-79534580D02*
X147857340Y-79534580D01*
X149937340Y-79534580D02*
X151475340Y-79534580D01*
X146349340Y-79494580D02*
X147857340Y-79494580D01*
X149937340Y-79494580D02*
X151445340Y-79494580D01*
X146381340Y-79454580D02*
X147857340Y-79454580D01*
X149937340Y-79454580D02*
X151413340Y-79454580D01*
X146413340Y-79414580D02*
X147857340Y-79414580D01*
X149937340Y-79414580D02*
X151381340Y-79414580D01*
X146447340Y-79374580D02*
X147857340Y-79374580D01*
X149937340Y-79374580D02*
X151347340Y-79374580D01*
X146481340Y-79334580D02*
X147857340Y-79334580D01*
X149937340Y-79334580D02*
X151313340Y-79334580D01*
X146517340Y-79294580D02*
X147857340Y-79294580D01*
X149937340Y-79294580D02*
X151277340Y-79294580D01*
X146554340Y-79254580D02*
X147857340Y-79254580D01*
X149937340Y-79254580D02*
X151240340Y-79254580D01*
X146592340Y-79214580D02*
X147857340Y-79214580D01*
X149937340Y-79214580D02*
X151202340Y-79214580D01*
X146632340Y-79174580D02*
X151162340Y-79174580D01*
X146673340Y-79134580D02*
X151121340Y-79134580D01*
X146715340Y-79094580D02*
X151079340Y-79094580D01*
X146760340Y-79054580D02*
X151034340Y-79054580D01*
X146805340Y-79014580D02*
X150989340Y-79014580D01*
X146853340Y-78974580D02*
X150941340Y-78974580D01*
X146902340Y-78934580D02*
X150892340Y-78934580D01*
X146953340Y-78894580D02*
X150841340Y-78894580D01*
X147007340Y-78854580D02*
X150787340Y-78854580D01*
X147063340Y-78814580D02*
X150731340Y-78814580D01*
X147121340Y-78774580D02*
X150673340Y-78774580D01*
X147183340Y-78734580D02*
X150611340Y-78734580D01*
X147247340Y-78694580D02*
X150547340Y-78694580D01*
X147316340Y-78654580D02*
X150478340Y-78654580D01*
X147388340Y-78614580D02*
X150406340Y-78614580D01*
X147465340Y-78574580D02*
X150329340Y-78574580D01*
X147547340Y-78534580D02*
X150247340Y-78534580D01*
X147635340Y-78494580D02*
X150159340Y-78494580D01*
X147732340Y-78454580D02*
X150062340Y-78454580D01*
X147838340Y-78414580D02*
X149956340Y-78414580D01*
X147957340Y-78374580D02*
X149837340Y-78374580D01*
X148095340Y-78334580D02*
X149699340Y-78334580D01*
X148264340Y-78294580D02*
X149530340Y-78294580D01*
X148495340Y-78254580D02*
X149299340Y-78254580D01*
X147058340Y-84995821D02*
X147058340Y-84365821D01*
X146743340Y-84680821D02*
X147373340Y-84680821D01*
%TO.C,C11*%
X140380840Y-80564040D02*
G75*
G03*
X140380840Y-80564040I-4120000J0D01*
G01*
X140340840Y-80564040D02*
X132180840Y-80564040D01*
X140340840Y-80604040D02*
X132180840Y-80604040D01*
X140340840Y-80644040D02*
X132180840Y-80644040D01*
X140339840Y-80684040D02*
X132181840Y-80684040D01*
X140337840Y-80724040D02*
X132183840Y-80724040D01*
X140336840Y-80764040D02*
X132184840Y-80764040D01*
X140334840Y-80804040D02*
X137300840Y-80804040D01*
X135220840Y-80804040D02*
X132186840Y-80804040D01*
X140331840Y-80844040D02*
X137300840Y-80844040D01*
X135220840Y-80844040D02*
X132189840Y-80844040D01*
X140328840Y-80884040D02*
X137300840Y-80884040D01*
X135220840Y-80884040D02*
X132192840Y-80884040D01*
X140325840Y-80924040D02*
X137300840Y-80924040D01*
X135220840Y-80924040D02*
X132195840Y-80924040D01*
X140321840Y-80964040D02*
X137300840Y-80964040D01*
X135220840Y-80964040D02*
X132199840Y-80964040D01*
X140317840Y-81004040D02*
X137300840Y-81004040D01*
X135220840Y-81004040D02*
X132203840Y-81004040D01*
X140312840Y-81044040D02*
X137300840Y-81044040D01*
X135220840Y-81044040D02*
X132208840Y-81044040D01*
X140308840Y-81084040D02*
X137300840Y-81084040D01*
X135220840Y-81084040D02*
X132212840Y-81084040D01*
X140302840Y-81124040D02*
X137300840Y-81124040D01*
X135220840Y-81124040D02*
X132218840Y-81124040D01*
X140297840Y-81164040D02*
X137300840Y-81164040D01*
X135220840Y-81164040D02*
X132223840Y-81164040D01*
X140290840Y-81204040D02*
X137300840Y-81204040D01*
X135220840Y-81204040D02*
X132230840Y-81204040D01*
X140284840Y-81244040D02*
X137300840Y-81244040D01*
X135220840Y-81244040D02*
X132236840Y-81244040D01*
X140277840Y-81285040D02*
X137300840Y-81285040D01*
X135220840Y-81285040D02*
X132243840Y-81285040D01*
X140270840Y-81325040D02*
X137300840Y-81325040D01*
X135220840Y-81325040D02*
X132250840Y-81325040D01*
X140262840Y-81365040D02*
X137300840Y-81365040D01*
X135220840Y-81365040D02*
X132258840Y-81365040D01*
X140254840Y-81405040D02*
X137300840Y-81405040D01*
X135220840Y-81405040D02*
X132266840Y-81405040D01*
X140245840Y-81445040D02*
X137300840Y-81445040D01*
X135220840Y-81445040D02*
X132275840Y-81445040D01*
X140236840Y-81485040D02*
X137300840Y-81485040D01*
X135220840Y-81485040D02*
X132284840Y-81485040D01*
X140227840Y-81525040D02*
X137300840Y-81525040D01*
X135220840Y-81525040D02*
X132293840Y-81525040D01*
X140217840Y-81565040D02*
X137300840Y-81565040D01*
X135220840Y-81565040D02*
X132303840Y-81565040D01*
X140207840Y-81605040D02*
X137300840Y-81605040D01*
X135220840Y-81605040D02*
X132313840Y-81605040D01*
X140196840Y-81645040D02*
X137300840Y-81645040D01*
X135220840Y-81645040D02*
X132324840Y-81645040D01*
X140185840Y-81685040D02*
X137300840Y-81685040D01*
X135220840Y-81685040D02*
X132335840Y-81685040D01*
X140174840Y-81725040D02*
X137300840Y-81725040D01*
X135220840Y-81725040D02*
X132346840Y-81725040D01*
X140162840Y-81765040D02*
X137300840Y-81765040D01*
X135220840Y-81765040D02*
X132358840Y-81765040D01*
X140149840Y-81805040D02*
X137300840Y-81805040D01*
X135220840Y-81805040D02*
X132371840Y-81805040D01*
X140137840Y-81845040D02*
X137300840Y-81845040D01*
X135220840Y-81845040D02*
X132383840Y-81845040D01*
X140123840Y-81885040D02*
X137300840Y-81885040D01*
X135220840Y-81885040D02*
X132397840Y-81885040D01*
X140110840Y-81925040D02*
X137300840Y-81925040D01*
X135220840Y-81925040D02*
X132410840Y-81925040D01*
X140095840Y-81965040D02*
X137300840Y-81965040D01*
X135220840Y-81965040D02*
X132425840Y-81965040D01*
X140081840Y-82005040D02*
X137300840Y-82005040D01*
X135220840Y-82005040D02*
X132439840Y-82005040D01*
X140065840Y-82045040D02*
X137300840Y-82045040D01*
X135220840Y-82045040D02*
X132455840Y-82045040D01*
X140050840Y-82085040D02*
X137300840Y-82085040D01*
X135220840Y-82085040D02*
X132470840Y-82085040D01*
X140034840Y-82125040D02*
X137300840Y-82125040D01*
X135220840Y-82125040D02*
X132486840Y-82125040D01*
X140017840Y-82165040D02*
X137300840Y-82165040D01*
X135220840Y-82165040D02*
X132503840Y-82165040D01*
X140000840Y-82205040D02*
X137300840Y-82205040D01*
X135220840Y-82205040D02*
X132520840Y-82205040D01*
X139982840Y-82245040D02*
X137300840Y-82245040D01*
X135220840Y-82245040D02*
X132538840Y-82245040D01*
X139964840Y-82285040D02*
X137300840Y-82285040D01*
X135220840Y-82285040D02*
X132556840Y-82285040D01*
X139946840Y-82325040D02*
X137300840Y-82325040D01*
X135220840Y-82325040D02*
X132574840Y-82325040D01*
X139926840Y-82365040D02*
X137300840Y-82365040D01*
X135220840Y-82365040D02*
X132594840Y-82365040D01*
X139907840Y-82405040D02*
X137300840Y-82405040D01*
X135220840Y-82405040D02*
X132613840Y-82405040D01*
X139887840Y-82445040D02*
X137300840Y-82445040D01*
X135220840Y-82445040D02*
X132633840Y-82445040D01*
X139866840Y-82485040D02*
X137300840Y-82485040D01*
X135220840Y-82485040D02*
X132654840Y-82485040D01*
X139844840Y-82525040D02*
X137300840Y-82525040D01*
X135220840Y-82525040D02*
X132676840Y-82525040D01*
X139822840Y-82565040D02*
X137300840Y-82565040D01*
X135220840Y-82565040D02*
X132698840Y-82565040D01*
X139800840Y-82605040D02*
X137300840Y-82605040D01*
X135220840Y-82605040D02*
X132720840Y-82605040D01*
X139777840Y-82645040D02*
X137300840Y-82645040D01*
X135220840Y-82645040D02*
X132743840Y-82645040D01*
X139753840Y-82685040D02*
X137300840Y-82685040D01*
X135220840Y-82685040D02*
X132767840Y-82685040D01*
X139729840Y-82725040D02*
X137300840Y-82725040D01*
X135220840Y-82725040D02*
X132791840Y-82725040D01*
X139704840Y-82765040D02*
X137300840Y-82765040D01*
X135220840Y-82765040D02*
X132816840Y-82765040D01*
X139678840Y-82805040D02*
X137300840Y-82805040D01*
X135220840Y-82805040D02*
X132842840Y-82805040D01*
X139652840Y-82845040D02*
X137300840Y-82845040D01*
X135220840Y-82845040D02*
X132868840Y-82845040D01*
X139625840Y-82885040D02*
X132895840Y-82885040D01*
X139598840Y-82925040D02*
X132922840Y-82925040D01*
X139569840Y-82965040D02*
X132951840Y-82965040D01*
X139540840Y-83005040D02*
X132980840Y-83005040D01*
X139510840Y-83045040D02*
X133010840Y-83045040D01*
X139480840Y-83085040D02*
X133040840Y-83085040D01*
X139449840Y-83125040D02*
X133071840Y-83125040D01*
X139416840Y-83165040D02*
X133104840Y-83165040D01*
X139384840Y-83205040D02*
X133136840Y-83205040D01*
X139350840Y-83245040D02*
X133170840Y-83245040D01*
X139315840Y-83285040D02*
X133205840Y-83285040D01*
X139279840Y-83325040D02*
X133241840Y-83325040D01*
X139243840Y-83365040D02*
X133277840Y-83365040D01*
X139205840Y-83405040D02*
X133315840Y-83405040D01*
X139167840Y-83445040D02*
X133353840Y-83445040D01*
X139127840Y-83485040D02*
X133393840Y-83485040D01*
X139086840Y-83525040D02*
X133434840Y-83525040D01*
X139044840Y-83565040D02*
X133476840Y-83565040D01*
X139001840Y-83605040D02*
X133519840Y-83605040D01*
X138957840Y-83645040D02*
X133563840Y-83645040D01*
X138911840Y-83685040D02*
X133609840Y-83685040D01*
X138864840Y-83725040D02*
X133656840Y-83725040D01*
X138816840Y-83765040D02*
X133704840Y-83765040D01*
X138765840Y-83805040D02*
X133755840Y-83805040D01*
X138714840Y-83845040D02*
X133806840Y-83845040D01*
X138660840Y-83885040D02*
X133860840Y-83885040D01*
X138605840Y-83925040D02*
X133915840Y-83925040D01*
X138547840Y-83965040D02*
X133973840Y-83965040D01*
X138488840Y-84005040D02*
X134032840Y-84005040D01*
X138426840Y-84045040D02*
X134094840Y-84045040D01*
X138362840Y-84085040D02*
X134158840Y-84085040D01*
X138294840Y-84125040D02*
X134226840Y-84125040D01*
X138224840Y-84165040D02*
X134296840Y-84165040D01*
X138150840Y-84205040D02*
X134370840Y-84205040D01*
X138073840Y-84245040D02*
X134447840Y-84245040D01*
X137991840Y-84285040D02*
X134529840Y-84285040D01*
X137905840Y-84325040D02*
X134615840Y-84325040D01*
X137812840Y-84365040D02*
X134708840Y-84365040D01*
X137713840Y-84405040D02*
X134807840Y-84405040D01*
X137606840Y-84445040D02*
X134914840Y-84445040D01*
X137489840Y-84485040D02*
X135031840Y-84485040D01*
X137358840Y-84525040D02*
X135162840Y-84525040D01*
X137208840Y-84565040D02*
X135312840Y-84565040D01*
X137028840Y-84605040D02*
X135492840Y-84605040D01*
X136793840Y-84645040D02*
X135727840Y-84645040D01*
X138575840Y-76154342D02*
X138575840Y-76954342D01*
X138975840Y-76554342D02*
X138175840Y-76554342D01*
%TO.C,C8*%
X141736140Y-63202492D02*
X141736140Y-62679988D01*
X143206140Y-63202492D02*
X143206140Y-62679988D01*
%TO.C,C7*%
X141118920Y-45800912D02*
X141118920Y-45278408D01*
X142588920Y-45800912D02*
X142588920Y-45278408D01*
%TO.C,C5*%
X145210130Y-45907632D02*
X145210130Y-45385128D01*
X146680130Y-45907632D02*
X146680130Y-45385128D01*
%TO.C,C4*%
X153528700Y-70813068D02*
X153528700Y-71335572D01*
X152058700Y-70813068D02*
X152058700Y-71335572D01*
%TO.C,C3*%
X153135000Y-53767088D02*
X153135000Y-54289592D01*
X151665000Y-53767088D02*
X151665000Y-54289592D01*
%TO.C,D1*%
D13*
X151510200Y-69556855D02*
X150510200Y-69556855D01*
X150510200Y-69318760D01*
X150557820Y-69175902D01*
X150653058Y-69080664D01*
X150748296Y-69033045D01*
X150938772Y-68985426D01*
X151081629Y-68985426D01*
X151272105Y-69033045D01*
X151367343Y-69080664D01*
X151462581Y-69175902D01*
X151510200Y-69318760D01*
X151510200Y-69556855D01*
X151510200Y-68033045D02*
X151510200Y-68604474D01*
X151510200Y-68318760D02*
X150510200Y-68318760D01*
X150653058Y-68413998D01*
X150748296Y-68509236D01*
X150795915Y-68604474D01*
%TO.C,D2*%
X151327320Y-52254375D02*
X150327320Y-52254375D01*
X150327320Y-52016280D01*
X150374940Y-51873422D01*
X150470178Y-51778184D01*
X150565416Y-51730565D01*
X150755892Y-51682946D01*
X150898749Y-51682946D01*
X151089225Y-51730565D01*
X151184463Y-51778184D01*
X151279701Y-51873422D01*
X151327320Y-52016280D01*
X151327320Y-52254375D01*
X150422559Y-51301994D02*
X150374940Y-51254375D01*
X150327320Y-51159137D01*
X150327320Y-50921041D01*
X150374940Y-50825803D01*
X150422559Y-50778184D01*
X150517797Y-50730565D01*
X150613035Y-50730565D01*
X150755892Y-50778184D01*
X151327320Y-51349613D01*
X151327320Y-50730565D01*
%TO.C,R25*%
X126545102Y-76091040D02*
X126211769Y-75614850D01*
X125973674Y-76091040D02*
X125973674Y-75091040D01*
X126354626Y-75091040D01*
X126449864Y-75138660D01*
X126497483Y-75186279D01*
X126545102Y-75281517D01*
X126545102Y-75424374D01*
X126497483Y-75519612D01*
X126449864Y-75567231D01*
X126354626Y-75614850D01*
X125973674Y-75614850D01*
X126926055Y-75186279D02*
X126973674Y-75138660D01*
X127068912Y-75091040D01*
X127307007Y-75091040D01*
X127402245Y-75138660D01*
X127449864Y-75186279D01*
X127497483Y-75281517D01*
X127497483Y-75376755D01*
X127449864Y-75519612D01*
X126878436Y-76091040D01*
X127497483Y-76091040D01*
X128402245Y-75091040D02*
X127926055Y-75091040D01*
X127878436Y-75567231D01*
X127926055Y-75519612D01*
X128021293Y-75471993D01*
X128259388Y-75471993D01*
X128354626Y-75519612D01*
X128402245Y-75567231D01*
X128449864Y-75662469D01*
X128449864Y-75900564D01*
X128402245Y-75995802D01*
X128354626Y-76043421D01*
X128259388Y-76091040D01*
X128021293Y-76091040D01*
X127926055Y-76043421D01*
X127878436Y-75995802D01*
%TO.C,J7*%
X123755826Y-82391000D02*
X123755826Y-83105286D01*
X123708207Y-83248143D01*
X123612969Y-83343381D01*
X123470112Y-83391000D01*
X123374874Y-83391000D01*
X124136779Y-82391000D02*
X124803445Y-82391000D01*
X124374874Y-83391000D01*
%TO.C,Q1*%
X126495821Y-79676239D02*
X126400583Y-79628620D01*
X126305345Y-79533381D01*
X126162488Y-79390524D01*
X126067250Y-79342905D01*
X125972012Y-79342905D01*
X126019631Y-79581000D02*
X125924393Y-79533381D01*
X125829155Y-79438143D01*
X125781536Y-79247667D01*
X125781536Y-78914334D01*
X125829155Y-78723858D01*
X125924393Y-78628620D01*
X126019631Y-78581000D01*
X126210107Y-78581000D01*
X126305345Y-78628620D01*
X126400583Y-78723858D01*
X126448202Y-78914334D01*
X126448202Y-79247667D01*
X126400583Y-79438143D01*
X126305345Y-79533381D01*
X126210107Y-79581000D01*
X126019631Y-79581000D01*
X127400583Y-79581000D02*
X126829155Y-79581000D01*
X127114869Y-79581000D02*
X127114869Y-78581000D01*
X127019631Y-78723858D01*
X126924393Y-78819096D01*
X126829155Y-78866715D01*
%TO.C,C10*%
X162710682Y-73471042D02*
X162663063Y-73518661D01*
X162520206Y-73566280D01*
X162424968Y-73566280D01*
X162282111Y-73518661D01*
X162186873Y-73423423D01*
X162139254Y-73328185D01*
X162091635Y-73137709D01*
X162091635Y-72994852D01*
X162139254Y-72804376D01*
X162186873Y-72709138D01*
X162282111Y-72613900D01*
X162424968Y-72566280D01*
X162520206Y-72566280D01*
X162663063Y-72613900D01*
X162710682Y-72661519D01*
X163663063Y-73566280D02*
X163091635Y-73566280D01*
X163377349Y-73566280D02*
X163377349Y-72566280D01*
X163282111Y-72709138D01*
X163186873Y-72804376D01*
X163091635Y-72851995D01*
X164282111Y-72566280D02*
X164377349Y-72566280D01*
X164472587Y-72613900D01*
X164520206Y-72661519D01*
X164567825Y-72756757D01*
X164615444Y-72947233D01*
X164615444Y-73185328D01*
X164567825Y-73375804D01*
X164520206Y-73471042D01*
X164472587Y-73518661D01*
X164377349Y-73566280D01*
X164282111Y-73566280D01*
X164186873Y-73518661D01*
X164139254Y-73471042D01*
X164091635Y-73375804D01*
X164044016Y-73185328D01*
X164044016Y-72947233D01*
X164091635Y-72756757D01*
X164139254Y-72661519D01*
X164186873Y-72613900D01*
X164282111Y-72566280D01*
%TO.C,C9*%
X162263793Y-56061882D02*
X162216174Y-56109501D01*
X162073317Y-56157120D01*
X161978079Y-56157120D01*
X161835221Y-56109501D01*
X161739983Y-56014263D01*
X161692364Y-55919025D01*
X161644745Y-55728549D01*
X161644745Y-55585692D01*
X161692364Y-55395216D01*
X161739983Y-55299978D01*
X161835221Y-55204740D01*
X161978079Y-55157120D01*
X162073317Y-55157120D01*
X162216174Y-55204740D01*
X162263793Y-55252359D01*
X162739983Y-56157120D02*
X162930460Y-56157120D01*
X163025698Y-56109501D01*
X163073317Y-56061882D01*
X163168555Y-55919025D01*
X163216174Y-55728549D01*
X163216174Y-55347597D01*
X163168555Y-55252359D01*
X163120936Y-55204740D01*
X163025698Y-55157120D01*
X162835221Y-55157120D01*
X162739983Y-55204740D01*
X162692364Y-55252359D01*
X162644745Y-55347597D01*
X162644745Y-55585692D01*
X162692364Y-55680930D01*
X162739983Y-55728549D01*
X162835221Y-55776168D01*
X163025698Y-55776168D01*
X163120936Y-55728549D01*
X163168555Y-55680930D01*
X163216174Y-55585692D01*
%TO.C,C2*%
X150696633Y-73597162D02*
X150649014Y-73644781D01*
X150506157Y-73692400D01*
X150410919Y-73692400D01*
X150268061Y-73644781D01*
X150172823Y-73549543D01*
X150125204Y-73454305D01*
X150077585Y-73263829D01*
X150077585Y-73120972D01*
X150125204Y-72930496D01*
X150172823Y-72835258D01*
X150268061Y-72740020D01*
X150410919Y-72692400D01*
X150506157Y-72692400D01*
X150649014Y-72740020D01*
X150696633Y-72787639D01*
X151077585Y-72787639D02*
X151125204Y-72740020D01*
X151220442Y-72692400D01*
X151458538Y-72692400D01*
X151553776Y-72740020D01*
X151601395Y-72787639D01*
X151649014Y-72882877D01*
X151649014Y-72978115D01*
X151601395Y-73120972D01*
X151029966Y-73692400D01*
X151649014Y-73692400D01*
%TO.C,C1*%
X149980353Y-56327702D02*
X149932734Y-56375321D01*
X149789877Y-56422940D01*
X149694639Y-56422940D01*
X149551781Y-56375321D01*
X149456543Y-56280083D01*
X149408924Y-56184845D01*
X149361305Y-55994369D01*
X149361305Y-55851512D01*
X149408924Y-55661036D01*
X149456543Y-55565798D01*
X149551781Y-55470560D01*
X149694639Y-55422940D01*
X149789877Y-55422940D01*
X149932734Y-55470560D01*
X149980353Y-55518179D01*
X150932734Y-56422940D02*
X150361305Y-56422940D01*
X150647020Y-56422940D02*
X150647020Y-55422940D01*
X150551781Y-55565798D01*
X150456543Y-55661036D01*
X150361305Y-55708655D01*
%TO.C,C6*%
X146793222Y-60410386D02*
X146840841Y-60458005D01*
X146888460Y-60600862D01*
X146888460Y-60696100D01*
X146840841Y-60838958D01*
X146745603Y-60934196D01*
X146650365Y-60981815D01*
X146459889Y-61029434D01*
X146317032Y-61029434D01*
X146126556Y-60981815D01*
X146031318Y-60934196D01*
X145936080Y-60838958D01*
X145888460Y-60696100D01*
X145888460Y-60600862D01*
X145936080Y-60458005D01*
X145983699Y-60410386D01*
X145888460Y-59553243D02*
X145888460Y-59743720D01*
X145936080Y-59838958D01*
X145983699Y-59886577D01*
X146126556Y-59981815D01*
X146317032Y-60029434D01*
X146697984Y-60029434D01*
X146793222Y-59981815D01*
X146840841Y-59934196D01*
X146888460Y-59838958D01*
X146888460Y-59648481D01*
X146840841Y-59553243D01*
X146793222Y-59505624D01*
X146697984Y-59458005D01*
X146459889Y-59458005D01*
X146364651Y-59505624D01*
X146317032Y-59553243D01*
X146269413Y-59648481D01*
X146269413Y-59838958D01*
X146317032Y-59934196D01*
X146364651Y-59981815D01*
X146459889Y-60029434D01*
%TO.C,J2*%
X69441680Y-76856993D02*
X70155966Y-76856993D01*
X70298823Y-76904612D01*
X70394061Y-76999850D01*
X70441680Y-77142707D01*
X70441680Y-77237945D01*
X69536919Y-76428421D02*
X69489300Y-76380802D01*
X69441680Y-76285564D01*
X69441680Y-76047469D01*
X69489300Y-75952231D01*
X69536919Y-75904612D01*
X69632157Y-75856993D01*
X69727395Y-75856993D01*
X69870252Y-75904612D01*
X70441680Y-76476040D01*
X70441680Y-75856993D01*
%TO.C,TR1*%
X104333375Y-79045820D02*
X104904803Y-79045820D01*
X104619089Y-80045820D02*
X104619089Y-79045820D01*
X105809565Y-80045820D02*
X105476232Y-79569630D01*
X105238137Y-80045820D02*
X105238137Y-79045820D01*
X105619089Y-79045820D01*
X105714327Y-79093440D01*
X105761946Y-79141059D01*
X105809565Y-79236297D01*
X105809565Y-79379154D01*
X105761946Y-79474392D01*
X105714327Y-79522011D01*
X105619089Y-79569630D01*
X105238137Y-79569630D01*
X106761946Y-80045820D02*
X106190518Y-80045820D01*
X106476232Y-80045820D02*
X106476232Y-79045820D01*
X106380994Y-79188678D01*
X106285756Y-79283916D01*
X106190518Y-79331535D01*
%TO.C,J4*%
X91769606Y-48603920D02*
X91769606Y-49318206D01*
X91721987Y-49461063D01*
X91626749Y-49556301D01*
X91483892Y-49603920D01*
X91388654Y-49603920D01*
X92674368Y-48937254D02*
X92674368Y-49603920D01*
X92436273Y-48556301D02*
X92198178Y-49270587D01*
X92817225Y-49270587D01*
%TO.C,J3*%
X76616546Y-47328280D02*
X76616546Y-48042566D01*
X76568927Y-48185423D01*
X76473689Y-48280661D01*
X76330832Y-48328280D01*
X76235594Y-48328280D01*
X76997499Y-47328280D02*
X77616546Y-47328280D01*
X77283213Y-47709233D01*
X77426070Y-47709233D01*
X77521308Y-47756852D01*
X77568927Y-47804471D01*
X77616546Y-47899709D01*
X77616546Y-48137804D01*
X77568927Y-48233042D01*
X77521308Y-48280661D01*
X77426070Y-48328280D01*
X77140356Y-48328280D01*
X77045118Y-48280661D01*
X76997499Y-48233042D01*
%TO.C,J1*%
X70112380Y-57793333D02*
X70826666Y-57793333D01*
X70969523Y-57840952D01*
X71064761Y-57936190D01*
X71112380Y-58079047D01*
X71112380Y-58174285D01*
X71112380Y-56793333D02*
X71112380Y-57364761D01*
X71112380Y-57079047D02*
X70112380Y-57079047D01*
X70255238Y-57174285D01*
X70350476Y-57269523D01*
X70398095Y-57364761D01*
%TO.C,R24*%
X91576282Y-46381660D02*
X91242949Y-45905470D01*
X91004854Y-46381660D02*
X91004854Y-45381660D01*
X91385806Y-45381660D01*
X91481044Y-45429280D01*
X91528663Y-45476899D01*
X91576282Y-45572137D01*
X91576282Y-45714994D01*
X91528663Y-45810232D01*
X91481044Y-45857851D01*
X91385806Y-45905470D01*
X91004854Y-45905470D01*
X91957235Y-45476899D02*
X92004854Y-45429280D01*
X92100092Y-45381660D01*
X92338187Y-45381660D01*
X92433425Y-45429280D01*
X92481044Y-45476899D01*
X92528663Y-45572137D01*
X92528663Y-45667375D01*
X92481044Y-45810232D01*
X91909616Y-46381660D01*
X92528663Y-46381660D01*
X93385806Y-45714994D02*
X93385806Y-46381660D01*
X93147711Y-45334041D02*
X92909616Y-46048327D01*
X93528663Y-46048327D01*
%TO.C,D5*%
D14*
X134472559Y-63195683D02*
X134472559Y-61925683D01*
X134774940Y-61925683D01*
X134956368Y-61986160D01*
X135077320Y-62107112D01*
X135137797Y-62228064D01*
X135198273Y-62469969D01*
X135198273Y-62651398D01*
X135137797Y-62893302D01*
X135077320Y-63014255D01*
X134956368Y-63135207D01*
X134774940Y-63195683D01*
X134472559Y-63195683D01*
X136347320Y-61925683D02*
X135742559Y-61925683D01*
X135682082Y-62530445D01*
X135742559Y-62469969D01*
X135863511Y-62409493D01*
X136165892Y-62409493D01*
X136286844Y-62469969D01*
X136347320Y-62530445D01*
X136407797Y-62651398D01*
X136407797Y-62953779D01*
X136347320Y-63074731D01*
X136286844Y-63135207D01*
X136165892Y-63195683D01*
X135863511Y-63195683D01*
X135742559Y-63135207D01*
X135682082Y-63074731D01*
%TO.C,D6*%
D13*
X103982780Y-41915215D02*
X102982780Y-41915215D01*
X102982780Y-41677120D01*
X103030400Y-41534262D01*
X103125638Y-41439024D01*
X103220876Y-41391405D01*
X103411352Y-41343786D01*
X103554209Y-41343786D01*
X103744685Y-41391405D01*
X103839923Y-41439024D01*
X103935161Y-41534262D01*
X103982780Y-41677120D01*
X103982780Y-41915215D01*
X102982780Y-40486643D02*
X102982780Y-40677120D01*
X103030400Y-40772358D01*
X103078019Y-40819977D01*
X103220876Y-40915215D01*
X103411352Y-40962834D01*
X103792304Y-40962834D01*
X103887542Y-40915215D01*
X103935161Y-40867596D01*
X103982780Y-40772358D01*
X103982780Y-40581881D01*
X103935161Y-40486643D01*
X103887542Y-40439024D01*
X103792304Y-40391405D01*
X103554209Y-40391405D01*
X103458971Y-40439024D01*
X103411352Y-40486643D01*
X103363733Y-40581881D01*
X103363733Y-40772358D01*
X103411352Y-40867596D01*
X103458971Y-40915215D01*
X103554209Y-40962834D01*
%TO.C,D4*%
X157561540Y-71657435D02*
X156561540Y-71657435D01*
X156561540Y-71419340D01*
X156609160Y-71276482D01*
X156704398Y-71181244D01*
X156799636Y-71133625D01*
X156990112Y-71086006D01*
X157132969Y-71086006D01*
X157323445Y-71133625D01*
X157418683Y-71181244D01*
X157513921Y-71276482D01*
X157561540Y-71419340D01*
X157561540Y-71657435D01*
X156894874Y-70228863D02*
X157561540Y-70228863D01*
X156513921Y-70466959D02*
X157228207Y-70705054D01*
X157228207Y-70086006D01*
%TO.C,D3*%
X155097740Y-58324515D02*
X154097740Y-58324515D01*
X154097740Y-58086420D01*
X154145360Y-57943562D01*
X154240598Y-57848324D01*
X154335836Y-57800705D01*
X154526312Y-57753086D01*
X154669169Y-57753086D01*
X154859645Y-57800705D01*
X154954883Y-57848324D01*
X155050121Y-57943562D01*
X155097740Y-58086420D01*
X155097740Y-58324515D01*
X154097740Y-57419753D02*
X154097740Y-56800705D01*
X154478693Y-57134039D01*
X154478693Y-56991181D01*
X154526312Y-56895943D01*
X154573931Y-56848324D01*
X154669169Y-56800705D01*
X154907264Y-56800705D01*
X155002502Y-56848324D01*
X155050121Y-56895943D01*
X155097740Y-56991181D01*
X155097740Y-57276896D01*
X155050121Y-57372134D01*
X155002502Y-57419753D01*
%TO.C,L2*%
X155915933Y-63566300D02*
X155439742Y-63566300D01*
X155439742Y-62566300D01*
X156201647Y-62661539D02*
X156249266Y-62613920D01*
X156344504Y-62566300D01*
X156582600Y-62566300D01*
X156677838Y-62613920D01*
X156725457Y-62661539D01*
X156773076Y-62756777D01*
X156773076Y-62852015D01*
X156725457Y-62994872D01*
X156154028Y-63566300D01*
X156773076Y-63566300D01*
%TO.C,L1*%
X155352453Y-43756920D02*
X154876262Y-43756920D01*
X154876262Y-42756920D01*
X156209596Y-43756920D02*
X155638167Y-43756920D01*
X155923881Y-43756920D02*
X155923881Y-42756920D01*
X155828643Y-42899778D01*
X155733405Y-42995016D01*
X155638167Y-43042635D01*
%TO.C,SW1*%
X116355026Y-84291841D02*
X116497883Y-84339460D01*
X116735979Y-84339460D01*
X116831217Y-84291841D01*
X116878836Y-84244222D01*
X116926455Y-84148984D01*
X116926455Y-84053746D01*
X116878836Y-83958508D01*
X116831217Y-83910889D01*
X116735979Y-83863270D01*
X116545502Y-83815651D01*
X116450264Y-83768032D01*
X116402645Y-83720413D01*
X116355026Y-83625175D01*
X116355026Y-83529937D01*
X116402645Y-83434699D01*
X116450264Y-83387080D01*
X116545502Y-83339460D01*
X116783598Y-83339460D01*
X116926455Y-83387080D01*
X117259788Y-83339460D02*
X117497883Y-84339460D01*
X117688360Y-83625175D01*
X117878836Y-84339460D01*
X118116931Y-83339460D01*
X119021693Y-84339460D02*
X118450264Y-84339460D01*
X118735979Y-84339460D02*
X118735979Y-83339460D01*
X118640740Y-83482318D01*
X118545502Y-83577556D01*
X118450264Y-83625175D01*
%TO.C,R23*%
X92641182Y-72090540D02*
X92307849Y-71614350D01*
X92069754Y-72090540D02*
X92069754Y-71090540D01*
X92450706Y-71090540D01*
X92545944Y-71138160D01*
X92593563Y-71185779D01*
X92641182Y-71281017D01*
X92641182Y-71423874D01*
X92593563Y-71519112D01*
X92545944Y-71566731D01*
X92450706Y-71614350D01*
X92069754Y-71614350D01*
X93022135Y-71185779D02*
X93069754Y-71138160D01*
X93164992Y-71090540D01*
X93403087Y-71090540D01*
X93498325Y-71138160D01*
X93545944Y-71185779D01*
X93593563Y-71281017D01*
X93593563Y-71376255D01*
X93545944Y-71519112D01*
X92974516Y-72090540D01*
X93593563Y-72090540D01*
X93926897Y-71090540D02*
X94545944Y-71090540D01*
X94212611Y-71471493D01*
X94355468Y-71471493D01*
X94450706Y-71519112D01*
X94498325Y-71566731D01*
X94545944Y-71661969D01*
X94545944Y-71900064D01*
X94498325Y-71995302D01*
X94450706Y-72042921D01*
X94355468Y-72090540D01*
X94069754Y-72090540D01*
X93974516Y-72042921D01*
X93926897Y-71995302D01*
%TO.C,R22*%
X92633562Y-70541140D02*
X92300229Y-70064950D01*
X92062134Y-70541140D02*
X92062134Y-69541140D01*
X92443086Y-69541140D01*
X92538324Y-69588760D01*
X92585943Y-69636379D01*
X92633562Y-69731617D01*
X92633562Y-69874474D01*
X92585943Y-69969712D01*
X92538324Y-70017331D01*
X92443086Y-70064950D01*
X92062134Y-70064950D01*
X93014515Y-69636379D02*
X93062134Y-69588760D01*
X93157372Y-69541140D01*
X93395467Y-69541140D01*
X93490705Y-69588760D01*
X93538324Y-69636379D01*
X93585943Y-69731617D01*
X93585943Y-69826855D01*
X93538324Y-69969712D01*
X92966896Y-70541140D01*
X93585943Y-70541140D01*
X93966896Y-69636379D02*
X94014515Y-69588760D01*
X94109753Y-69541140D01*
X94347848Y-69541140D01*
X94443086Y-69588760D01*
X94490705Y-69636379D01*
X94538324Y-69731617D01*
X94538324Y-69826855D01*
X94490705Y-69969712D01*
X93919277Y-70541140D01*
X94538324Y-70541140D01*
%TO.C,R19*%
X110807760Y-47741577D02*
X110331570Y-48074910D01*
X110807760Y-48313005D02*
X109807760Y-48313005D01*
X109807760Y-47932053D01*
X109855380Y-47836815D01*
X109902999Y-47789196D01*
X109998237Y-47741577D01*
X110141094Y-47741577D01*
X110236332Y-47789196D01*
X110283951Y-47836815D01*
X110331570Y-47932053D01*
X110331570Y-48313005D01*
X110807760Y-46789196D02*
X110807760Y-47360624D01*
X110807760Y-47074910D02*
X109807760Y-47074910D01*
X109950618Y-47170148D01*
X110045856Y-47265386D01*
X110093475Y-47360624D01*
X110807760Y-46313005D02*
X110807760Y-46122529D01*
X110760141Y-46027291D01*
X110712522Y-45979672D01*
X110569665Y-45884434D01*
X110379189Y-45836815D01*
X109998237Y-45836815D01*
X109902999Y-45884434D01*
X109855380Y-45932053D01*
X109807760Y-46027291D01*
X109807760Y-46217767D01*
X109855380Y-46313005D01*
X109902999Y-46360624D01*
X109998237Y-46408243D01*
X110236332Y-46408243D01*
X110331570Y-46360624D01*
X110379189Y-46313005D01*
X110426808Y-46217767D01*
X110426808Y-46027291D01*
X110379189Y-45932053D01*
X110331570Y-45884434D01*
X110236332Y-45836815D01*
%TO.C,R17*%
X131246642Y-43106580D02*
X130913309Y-42630390D01*
X130675214Y-43106580D02*
X130675214Y-42106580D01*
X131056166Y-42106580D01*
X131151404Y-42154200D01*
X131199023Y-42201819D01*
X131246642Y-42297057D01*
X131246642Y-42439914D01*
X131199023Y-42535152D01*
X131151404Y-42582771D01*
X131056166Y-42630390D01*
X130675214Y-42630390D01*
X132199023Y-43106580D02*
X131627595Y-43106580D01*
X131913309Y-43106580D02*
X131913309Y-42106580D01*
X131818071Y-42249438D01*
X131722833Y-42344676D01*
X131627595Y-42392295D01*
X132532357Y-42106580D02*
X133199023Y-42106580D01*
X132770452Y-43106580D01*
%TO.C,R11*%
X141025642Y-51620680D02*
X140692309Y-51144490D01*
X140454214Y-51620680D02*
X140454214Y-50620680D01*
X140835166Y-50620680D01*
X140930404Y-50668300D01*
X140978023Y-50715919D01*
X141025642Y-50811157D01*
X141025642Y-50954014D01*
X140978023Y-51049252D01*
X140930404Y-51096871D01*
X140835166Y-51144490D01*
X140454214Y-51144490D01*
X141978023Y-51620680D02*
X141406595Y-51620680D01*
X141692309Y-51620680D02*
X141692309Y-50620680D01*
X141597071Y-50763538D01*
X141501833Y-50858776D01*
X141406595Y-50906395D01*
X142930404Y-51620680D02*
X142358976Y-51620680D01*
X142644690Y-51620680D02*
X142644690Y-50620680D01*
X142549452Y-50763538D01*
X142454214Y-50858776D01*
X142358976Y-50906395D01*
%TO.C,R10*%
X144330680Y-70276957D02*
X143854490Y-70610290D01*
X144330680Y-70848385D02*
X143330680Y-70848385D01*
X143330680Y-70467433D01*
X143378300Y-70372195D01*
X143425919Y-70324576D01*
X143521157Y-70276957D01*
X143664014Y-70276957D01*
X143759252Y-70324576D01*
X143806871Y-70372195D01*
X143854490Y-70467433D01*
X143854490Y-70848385D01*
X144330680Y-69324576D02*
X144330680Y-69896004D01*
X144330680Y-69610290D02*
X143330680Y-69610290D01*
X143473538Y-69705528D01*
X143568776Y-69800766D01*
X143616395Y-69896004D01*
X143330680Y-68705528D02*
X143330680Y-68610290D01*
X143378300Y-68515052D01*
X143425919Y-68467433D01*
X143521157Y-68419814D01*
X143711633Y-68372195D01*
X143949728Y-68372195D01*
X144140204Y-68419814D01*
X144235442Y-68467433D01*
X144283061Y-68515052D01*
X144330680Y-68610290D01*
X144330680Y-68705528D01*
X144283061Y-68800766D01*
X144235442Y-68848385D01*
X144140204Y-68896004D01*
X143949728Y-68943623D01*
X143711633Y-68943623D01*
X143521157Y-68896004D01*
X143425919Y-68848385D01*
X143378300Y-68800766D01*
X143330680Y-68705528D01*
%TO.C,R9*%
X144472920Y-51964886D02*
X143996730Y-52298220D01*
X144472920Y-52536315D02*
X143472920Y-52536315D01*
X143472920Y-52155362D01*
X143520540Y-52060124D01*
X143568159Y-52012505D01*
X143663397Y-51964886D01*
X143806254Y-51964886D01*
X143901492Y-52012505D01*
X143949111Y-52060124D01*
X143996730Y-52155362D01*
X143996730Y-52536315D01*
X144472920Y-51488696D02*
X144472920Y-51298220D01*
X144425301Y-51202981D01*
X144377682Y-51155362D01*
X144234825Y-51060124D01*
X144044349Y-51012505D01*
X143663397Y-51012505D01*
X143568159Y-51060124D01*
X143520540Y-51107743D01*
X143472920Y-51202981D01*
X143472920Y-51393458D01*
X143520540Y-51488696D01*
X143568159Y-51536315D01*
X143663397Y-51583934D01*
X143901492Y-51583934D01*
X143996730Y-51536315D01*
X144044349Y-51488696D01*
X144091968Y-51393458D01*
X144091968Y-51202981D01*
X144044349Y-51107743D01*
X143996730Y-51060124D01*
X143901492Y-51012505D01*
%TO.C,R5*%
X148793460Y-60671006D02*
X148317270Y-61004340D01*
X148793460Y-61242435D02*
X147793460Y-61242435D01*
X147793460Y-60861482D01*
X147841080Y-60766244D01*
X147888699Y-60718625D01*
X147983937Y-60671006D01*
X148126794Y-60671006D01*
X148222032Y-60718625D01*
X148269651Y-60766244D01*
X148317270Y-60861482D01*
X148317270Y-61242435D01*
X147793460Y-59766244D02*
X147793460Y-60242435D01*
X148269651Y-60290054D01*
X148222032Y-60242435D01*
X148174413Y-60147197D01*
X148174413Y-59909101D01*
X148222032Y-59813863D01*
X148269651Y-59766244D01*
X148364889Y-59718625D01*
X148602984Y-59718625D01*
X148698222Y-59766244D01*
X148745841Y-59813863D01*
X148793460Y-59909101D01*
X148793460Y-60147197D01*
X148745841Y-60242435D01*
X148698222Y-60290054D01*
%TO.C,J6*%
X109282906Y-42487600D02*
X109282906Y-43201886D01*
X109235287Y-43344743D01*
X109140049Y-43439981D01*
X108997192Y-43487600D01*
X108901954Y-43487600D01*
X110187668Y-42487600D02*
X109997192Y-42487600D01*
X109901954Y-42535220D01*
X109854335Y-42582839D01*
X109759097Y-42725696D01*
X109711478Y-42916172D01*
X109711478Y-43297124D01*
X109759097Y-43392362D01*
X109806716Y-43439981D01*
X109901954Y-43487600D01*
X110092430Y-43487600D01*
X110187668Y-43439981D01*
X110235287Y-43392362D01*
X110282906Y-43297124D01*
X110282906Y-43059029D01*
X110235287Y-42963791D01*
X110187668Y-42916172D01*
X110092430Y-42868553D01*
X109901954Y-42868553D01*
X109806716Y-42916172D01*
X109759097Y-42963791D01*
X109711478Y-43059029D01*
%TO.C,J5*%
X118111946Y-42446960D02*
X118111946Y-43161246D01*
X118064327Y-43304103D01*
X117969089Y-43399341D01*
X117826232Y-43446960D01*
X117730994Y-43446960D01*
X119064327Y-42446960D02*
X118588137Y-42446960D01*
X118540518Y-42923151D01*
X118588137Y-42875532D01*
X118683375Y-42827913D01*
X118921470Y-42827913D01*
X119016708Y-42875532D01*
X119064327Y-42923151D01*
X119111946Y-43018389D01*
X119111946Y-43256484D01*
X119064327Y-43351722D01*
X119016708Y-43399341D01*
X118921470Y-43446960D01*
X118683375Y-43446960D01*
X118588137Y-43399341D01*
X118540518Y-43351722D01*
%TO.C,F1*%
X100283971Y-42553213D02*
X100283971Y-42886546D01*
X100807780Y-42886546D02*
X99807780Y-42886546D01*
X99807780Y-42410356D01*
X100807780Y-41505594D02*
X100807780Y-42077022D01*
X100807780Y-41791308D02*
X99807780Y-41791308D01*
X99950638Y-41886546D01*
X100045876Y-41981784D01*
X100093495Y-42077022D01*
%TO.C,D7*%
X134509044Y-40295820D02*
X134509044Y-39295820D01*
X134747140Y-39295820D01*
X134889997Y-39343440D01*
X134985235Y-39438678D01*
X135032854Y-39533916D01*
X135080473Y-39724392D01*
X135080473Y-39867249D01*
X135032854Y-40057725D01*
X134985235Y-40152963D01*
X134889997Y-40248201D01*
X134747140Y-40295820D01*
X134509044Y-40295820D01*
X135413806Y-39295820D02*
X136080473Y-39295820D01*
X135651901Y-40295820D01*
%TO.C,C12*%
X110688182Y-40007817D02*
X110735801Y-40055436D01*
X110783420Y-40198293D01*
X110783420Y-40293531D01*
X110735801Y-40436388D01*
X110640563Y-40531626D01*
X110545325Y-40579245D01*
X110354849Y-40626864D01*
X110211992Y-40626864D01*
X110021516Y-40579245D01*
X109926278Y-40531626D01*
X109831040Y-40436388D01*
X109783420Y-40293531D01*
X109783420Y-40198293D01*
X109831040Y-40055436D01*
X109878659Y-40007817D01*
X110783420Y-39055436D02*
X110783420Y-39626864D01*
X110783420Y-39341150D02*
X109783420Y-39341150D01*
X109926278Y-39436388D01*
X110021516Y-39531626D01*
X110069135Y-39626864D01*
X109878659Y-38674483D02*
X109831040Y-38626864D01*
X109783420Y-38531626D01*
X109783420Y-38293531D01*
X109831040Y-38198293D01*
X109878659Y-38150674D01*
X109973897Y-38103055D01*
X110069135Y-38103055D01*
X110211992Y-38150674D01*
X110783420Y-38722102D01*
X110783420Y-38103055D01*
%TO.C,C16*%
X130398322Y-49064182D02*
X130350703Y-49111801D01*
X130207846Y-49159420D01*
X130112608Y-49159420D01*
X129969751Y-49111801D01*
X129874513Y-49016563D01*
X129826894Y-48921325D01*
X129779275Y-48730849D01*
X129779275Y-48587992D01*
X129826894Y-48397516D01*
X129874513Y-48302278D01*
X129969751Y-48207040D01*
X130112608Y-48159420D01*
X130207846Y-48159420D01*
X130350703Y-48207040D01*
X130398322Y-48254659D01*
X131350703Y-49159420D02*
X130779275Y-49159420D01*
X131064989Y-49159420D02*
X131064989Y-48159420D01*
X130969751Y-48302278D01*
X130874513Y-48397516D01*
X130779275Y-48445135D01*
X132207846Y-48159420D02*
X132017370Y-48159420D01*
X131922132Y-48207040D01*
X131874513Y-48254659D01*
X131779275Y-48397516D01*
X131731656Y-48587992D01*
X131731656Y-48968944D01*
X131779275Y-49064182D01*
X131826894Y-49111801D01*
X131922132Y-49159420D01*
X132112608Y-49159420D01*
X132207846Y-49111801D01*
X132255465Y-49064182D01*
X132303084Y-48968944D01*
X132303084Y-48730849D01*
X132255465Y-48635611D01*
X132207846Y-48587992D01*
X132112608Y-48540373D01*
X131922132Y-48540373D01*
X131826894Y-48587992D01*
X131779275Y-48635611D01*
X131731656Y-48730849D01*
%TO.C,R21*%
X115519460Y-47836057D02*
X115043270Y-48169390D01*
X115519460Y-48407485D02*
X114519460Y-48407485D01*
X114519460Y-48026533D01*
X114567080Y-47931295D01*
X114614699Y-47883676D01*
X114709937Y-47836057D01*
X114852794Y-47836057D01*
X114948032Y-47883676D01*
X114995651Y-47931295D01*
X115043270Y-48026533D01*
X115043270Y-48407485D01*
X114614699Y-47455104D02*
X114567080Y-47407485D01*
X114519460Y-47312247D01*
X114519460Y-47074152D01*
X114567080Y-46978914D01*
X114614699Y-46931295D01*
X114709937Y-46883676D01*
X114805175Y-46883676D01*
X114948032Y-46931295D01*
X115519460Y-47502723D01*
X115519460Y-46883676D01*
X115519460Y-45931295D02*
X115519460Y-46502723D01*
X115519460Y-46217009D02*
X114519460Y-46217009D01*
X114662318Y-46312247D01*
X114757556Y-46407485D01*
X114805175Y-46502723D01*
%TO.C,R20*%
X121762780Y-47843677D02*
X121286590Y-48177010D01*
X121762780Y-48415105D02*
X120762780Y-48415105D01*
X120762780Y-48034153D01*
X120810400Y-47938915D01*
X120858019Y-47891296D01*
X120953257Y-47843677D01*
X121096114Y-47843677D01*
X121191352Y-47891296D01*
X121238971Y-47938915D01*
X121286590Y-48034153D01*
X121286590Y-48415105D01*
X120858019Y-47462724D02*
X120810400Y-47415105D01*
X120762780Y-47319867D01*
X120762780Y-47081772D01*
X120810400Y-46986534D01*
X120858019Y-46938915D01*
X120953257Y-46891296D01*
X121048495Y-46891296D01*
X121191352Y-46938915D01*
X121762780Y-47510343D01*
X121762780Y-46891296D01*
X120762780Y-46272248D02*
X120762780Y-46177010D01*
X120810400Y-46081772D01*
X120858019Y-46034153D01*
X120953257Y-45986534D01*
X121143733Y-45938915D01*
X121381828Y-45938915D01*
X121572304Y-45986534D01*
X121667542Y-46034153D01*
X121715161Y-46081772D01*
X121762780Y-46177010D01*
X121762780Y-46272248D01*
X121715161Y-46367486D01*
X121667542Y-46415105D01*
X121572304Y-46462724D01*
X121381828Y-46510343D01*
X121143733Y-46510343D01*
X120953257Y-46462724D01*
X120858019Y-46415105D01*
X120810400Y-46367486D01*
X120762780Y-46272248D01*
%TO.C,R18*%
X117127280Y-47843677D02*
X116651090Y-48177010D01*
X117127280Y-48415105D02*
X116127280Y-48415105D01*
X116127280Y-48034153D01*
X116174900Y-47938915D01*
X116222519Y-47891296D01*
X116317757Y-47843677D01*
X116460614Y-47843677D01*
X116555852Y-47891296D01*
X116603471Y-47938915D01*
X116651090Y-48034153D01*
X116651090Y-48415105D01*
X117127280Y-46891296D02*
X117127280Y-47462724D01*
X117127280Y-47177010D02*
X116127280Y-47177010D01*
X116270138Y-47272248D01*
X116365376Y-47367486D01*
X116412995Y-47462724D01*
X116555852Y-46319867D02*
X116508233Y-46415105D01*
X116460614Y-46462724D01*
X116365376Y-46510343D01*
X116317757Y-46510343D01*
X116222519Y-46462724D01*
X116174900Y-46415105D01*
X116127280Y-46319867D01*
X116127280Y-46129391D01*
X116174900Y-46034153D01*
X116222519Y-45986534D01*
X116317757Y-45938915D01*
X116365376Y-45938915D01*
X116460614Y-45986534D01*
X116508233Y-46034153D01*
X116555852Y-46129391D01*
X116555852Y-46319867D01*
X116603471Y-46415105D01*
X116651090Y-46462724D01*
X116746328Y-46510343D01*
X116936804Y-46510343D01*
X117032042Y-46462724D01*
X117079661Y-46415105D01*
X117127280Y-46319867D01*
X117127280Y-46129391D01*
X117079661Y-46034153D01*
X117032042Y-45986534D01*
X116936804Y-45938915D01*
X116746328Y-45938915D01*
X116651090Y-45986534D01*
X116603471Y-46034153D01*
X116555852Y-46129391D01*
%TO.C,R16*%
X92027000Y-60149977D02*
X91550810Y-60483310D01*
X92027000Y-60721405D02*
X91027000Y-60721405D01*
X91027000Y-60340453D01*
X91074620Y-60245215D01*
X91122239Y-60197596D01*
X91217477Y-60149977D01*
X91360334Y-60149977D01*
X91455572Y-60197596D01*
X91503191Y-60245215D01*
X91550810Y-60340453D01*
X91550810Y-60721405D01*
X92027000Y-59197596D02*
X92027000Y-59769024D01*
X92027000Y-59483310D02*
X91027000Y-59483310D01*
X91169858Y-59578548D01*
X91265096Y-59673786D01*
X91312715Y-59769024D01*
X91027000Y-58340453D02*
X91027000Y-58530929D01*
X91074620Y-58626167D01*
X91122239Y-58673786D01*
X91265096Y-58769024D01*
X91455572Y-58816643D01*
X91836524Y-58816643D01*
X91931762Y-58769024D01*
X91979381Y-58721405D01*
X92027000Y-58626167D01*
X92027000Y-58435691D01*
X91979381Y-58340453D01*
X91931762Y-58292834D01*
X91836524Y-58245215D01*
X91598429Y-58245215D01*
X91503191Y-58292834D01*
X91455572Y-58340453D01*
X91407953Y-58435691D01*
X91407953Y-58626167D01*
X91455572Y-58721405D01*
X91503191Y-58769024D01*
X91598429Y-58816643D01*
%TO.C,R15*%
X93627200Y-60220597D02*
X93151010Y-60553930D01*
X93627200Y-60792025D02*
X92627200Y-60792025D01*
X92627200Y-60411073D01*
X92674820Y-60315835D01*
X92722439Y-60268216D01*
X92817677Y-60220597D01*
X92960534Y-60220597D01*
X93055772Y-60268216D01*
X93103391Y-60315835D01*
X93151010Y-60411073D01*
X93151010Y-60792025D01*
X93627200Y-59268216D02*
X93627200Y-59839644D01*
X93627200Y-59553930D02*
X92627200Y-59553930D01*
X92770058Y-59649168D01*
X92865296Y-59744406D01*
X92912915Y-59839644D01*
X92627200Y-58363454D02*
X92627200Y-58839644D01*
X93103391Y-58887263D01*
X93055772Y-58839644D01*
X93008153Y-58744406D01*
X93008153Y-58506311D01*
X93055772Y-58411073D01*
X93103391Y-58363454D01*
X93198629Y-58315835D01*
X93436724Y-58315835D01*
X93531962Y-58363454D01*
X93579581Y-58411073D01*
X93627200Y-58506311D01*
X93627200Y-58744406D01*
X93579581Y-58839644D01*
X93531962Y-58887263D01*
%TO.C,R14*%
X92633562Y-67208660D02*
X92300229Y-66732470D01*
X92062134Y-67208660D02*
X92062134Y-66208660D01*
X92443086Y-66208660D01*
X92538324Y-66256280D01*
X92585943Y-66303899D01*
X92633562Y-66399137D01*
X92633562Y-66541994D01*
X92585943Y-66637232D01*
X92538324Y-66684851D01*
X92443086Y-66732470D01*
X92062134Y-66732470D01*
X93585943Y-67208660D02*
X93014515Y-67208660D01*
X93300229Y-67208660D02*
X93300229Y-66208660D01*
X93204991Y-66351518D01*
X93109753Y-66446756D01*
X93014515Y-66494375D01*
X94443086Y-66541994D02*
X94443086Y-67208660D01*
X94204991Y-66161041D02*
X93966896Y-66875327D01*
X94585943Y-66875327D01*
%TO.C,R13*%
X92633562Y-68811400D02*
X92300229Y-68335210D01*
X92062134Y-68811400D02*
X92062134Y-67811400D01*
X92443086Y-67811400D01*
X92538324Y-67859020D01*
X92585943Y-67906639D01*
X92633562Y-68001877D01*
X92633562Y-68144734D01*
X92585943Y-68239972D01*
X92538324Y-68287591D01*
X92443086Y-68335210D01*
X92062134Y-68335210D01*
X93585943Y-68811400D02*
X93014515Y-68811400D01*
X93300229Y-68811400D02*
X93300229Y-67811400D01*
X93204991Y-67954258D01*
X93109753Y-68049496D01*
X93014515Y-68097115D01*
X93919277Y-67811400D02*
X94538324Y-67811400D01*
X94204991Y-68192353D01*
X94347848Y-68192353D01*
X94443086Y-68239972D01*
X94490705Y-68287591D01*
X94538324Y-68382829D01*
X94538324Y-68620924D01*
X94490705Y-68716162D01*
X94443086Y-68763781D01*
X94347848Y-68811400D01*
X94062134Y-68811400D01*
X93966896Y-68763781D01*
X93919277Y-68716162D01*
%TO.C,R12*%
X140870702Y-67843660D02*
X140537369Y-67367470D01*
X140299274Y-67843660D02*
X140299274Y-66843660D01*
X140680226Y-66843660D01*
X140775464Y-66891280D01*
X140823083Y-66938899D01*
X140870702Y-67034137D01*
X140870702Y-67176994D01*
X140823083Y-67272232D01*
X140775464Y-67319851D01*
X140680226Y-67367470D01*
X140299274Y-67367470D01*
X141823083Y-67843660D02*
X141251655Y-67843660D01*
X141537369Y-67843660D02*
X141537369Y-66843660D01*
X141442131Y-66986518D01*
X141346893Y-67081756D01*
X141251655Y-67129375D01*
X142204036Y-66938899D02*
X142251655Y-66891280D01*
X142346893Y-66843660D01*
X142584988Y-66843660D01*
X142680226Y-66891280D01*
X142727845Y-66938899D01*
X142775464Y-67034137D01*
X142775464Y-67129375D01*
X142727845Y-67272232D01*
X142156417Y-67843660D01*
X142775464Y-67843660D01*
%TO.C,R8*%
X144986000Y-60334186D02*
X144509810Y-60667520D01*
X144986000Y-60905615D02*
X143986000Y-60905615D01*
X143986000Y-60524662D01*
X144033620Y-60429424D01*
X144081239Y-60381805D01*
X144176477Y-60334186D01*
X144319334Y-60334186D01*
X144414572Y-60381805D01*
X144462191Y-60429424D01*
X144509810Y-60524662D01*
X144509810Y-60905615D01*
X144414572Y-59762758D02*
X144366953Y-59857996D01*
X144319334Y-59905615D01*
X144224096Y-59953234D01*
X144176477Y-59953234D01*
X144081239Y-59905615D01*
X144033620Y-59857996D01*
X143986000Y-59762758D01*
X143986000Y-59572281D01*
X144033620Y-59477043D01*
X144081239Y-59429424D01*
X144176477Y-59381805D01*
X144224096Y-59381805D01*
X144319334Y-59429424D01*
X144366953Y-59477043D01*
X144414572Y-59572281D01*
X144414572Y-59762758D01*
X144462191Y-59857996D01*
X144509810Y-59905615D01*
X144605048Y-59953234D01*
X144795524Y-59953234D01*
X144890762Y-59905615D01*
X144938381Y-59857996D01*
X144986000Y-59762758D01*
X144986000Y-59572281D01*
X144938381Y-59477043D01*
X144890762Y-59429424D01*
X144795524Y-59381805D01*
X144605048Y-59381805D01*
X144509810Y-59429424D01*
X144462191Y-59477043D01*
X144414572Y-59572281D01*
%TO.C,R7*%
X144345555Y-42923006D02*
X143869365Y-43256340D01*
X144345555Y-43494435D02*
X143345555Y-43494435D01*
X143345555Y-43113482D01*
X143393175Y-43018244D01*
X143440794Y-42970625D01*
X143536032Y-42923006D01*
X143678889Y-42923006D01*
X143774127Y-42970625D01*
X143821746Y-43018244D01*
X143869365Y-43113482D01*
X143869365Y-43494435D01*
X143345555Y-42589673D02*
X143345555Y-41923006D01*
X144345555Y-42351578D01*
%TO.C,R6*%
X143566853Y-74175880D02*
X143233520Y-73699690D01*
X142995424Y-74175880D02*
X142995424Y-73175880D01*
X143376377Y-73175880D01*
X143471615Y-73223500D01*
X143519234Y-73271119D01*
X143566853Y-73366357D01*
X143566853Y-73509214D01*
X143519234Y-73604452D01*
X143471615Y-73652071D01*
X143376377Y-73699690D01*
X142995424Y-73699690D01*
X144423996Y-73175880D02*
X144233520Y-73175880D01*
X144138281Y-73223500D01*
X144090662Y-73271119D01*
X143995424Y-73413976D01*
X143947805Y-73604452D01*
X143947805Y-73985404D01*
X143995424Y-74080642D01*
X144043043Y-74128261D01*
X144138281Y-74175880D01*
X144328758Y-74175880D01*
X144423996Y-74128261D01*
X144471615Y-74080642D01*
X144519234Y-73985404D01*
X144519234Y-73747309D01*
X144471615Y-73652071D01*
X144423996Y-73604452D01*
X144328758Y-73556833D01*
X144138281Y-73556833D01*
X144043043Y-73604452D01*
X143995424Y-73652071D01*
X143947805Y-73747309D01*
%TO.C,R4*%
X150523200Y-60700446D02*
X150047010Y-61033780D01*
X150523200Y-61271875D02*
X149523200Y-61271875D01*
X149523200Y-60890922D01*
X149570820Y-60795684D01*
X149618439Y-60748065D01*
X149713677Y-60700446D01*
X149856534Y-60700446D01*
X149951772Y-60748065D01*
X149999391Y-60795684D01*
X150047010Y-60890922D01*
X150047010Y-61271875D01*
X149856534Y-59843303D02*
X150523200Y-59843303D01*
X149475581Y-60081399D02*
X150189867Y-60319494D01*
X150189867Y-59700446D01*
%TO.C,R3*%
X146015913Y-58313560D02*
X145682580Y-57837370D01*
X145444484Y-58313560D02*
X145444484Y-57313560D01*
X145825437Y-57313560D01*
X145920675Y-57361180D01*
X145968294Y-57408799D01*
X146015913Y-57504037D01*
X146015913Y-57646894D01*
X145968294Y-57742132D01*
X145920675Y-57789751D01*
X145825437Y-57837370D01*
X145444484Y-57837370D01*
X146349246Y-57313560D02*
X146968294Y-57313560D01*
X146634960Y-57694513D01*
X146777818Y-57694513D01*
X146873056Y-57742132D01*
X146920675Y-57789751D01*
X146968294Y-57884989D01*
X146968294Y-58123084D01*
X146920675Y-58218322D01*
X146873056Y-58265941D01*
X146777818Y-58313560D01*
X146492103Y-58313560D01*
X146396865Y-58265941D01*
X146349246Y-58218322D01*
%TO.C,R2*%
X148384520Y-43088606D02*
X147908330Y-43421940D01*
X148384520Y-43660035D02*
X147384520Y-43660035D01*
X147384520Y-43279082D01*
X147432140Y-43183844D01*
X147479759Y-43136225D01*
X147574997Y-43088606D01*
X147717854Y-43088606D01*
X147813092Y-43136225D01*
X147860711Y-43183844D01*
X147908330Y-43279082D01*
X147908330Y-43660035D01*
X147479759Y-42707654D02*
X147432140Y-42660035D01*
X147384520Y-42564797D01*
X147384520Y-42326701D01*
X147432140Y-42231463D01*
X147479759Y-42183844D01*
X147574997Y-42136225D01*
X147670235Y-42136225D01*
X147813092Y-42183844D01*
X148384520Y-42755273D01*
X148384520Y-42136225D01*
%TO.C,R1*%
X150149820Y-42883886D02*
X149673630Y-43217220D01*
X150149820Y-43455315D02*
X149149820Y-43455315D01*
X149149820Y-43074362D01*
X149197440Y-42979124D01*
X149245059Y-42931505D01*
X149340297Y-42883886D01*
X149483154Y-42883886D01*
X149578392Y-42931505D01*
X149626011Y-42979124D01*
X149673630Y-43074362D01*
X149673630Y-43455315D01*
X150149820Y-41931505D02*
X150149820Y-42502934D01*
X150149820Y-42217220D02*
X149149820Y-42217220D01*
X149292678Y-42312458D01*
X149387916Y-42407696D01*
X149435535Y-42502934D01*
%TO.C,C15*%
X130332242Y-47039802D02*
X130284623Y-47087421D01*
X130141766Y-47135040D01*
X130046528Y-47135040D01*
X129903671Y-47087421D01*
X129808433Y-46992183D01*
X129760814Y-46896945D01*
X129713195Y-46706469D01*
X129713195Y-46563612D01*
X129760814Y-46373136D01*
X129808433Y-46277898D01*
X129903671Y-46182660D01*
X130046528Y-46135040D01*
X130141766Y-46135040D01*
X130284623Y-46182660D01*
X130332242Y-46230279D01*
X131284623Y-47135040D02*
X130713195Y-47135040D01*
X130998909Y-47135040D02*
X130998909Y-46135040D01*
X130903671Y-46277898D01*
X130808433Y-46373136D01*
X130713195Y-46420755D01*
X132189385Y-46135040D02*
X131713195Y-46135040D01*
X131665576Y-46611231D01*
X131713195Y-46563612D01*
X131808433Y-46515993D01*
X132046528Y-46515993D01*
X132141766Y-46563612D01*
X132189385Y-46611231D01*
X132237004Y-46706469D01*
X132237004Y-46944564D01*
X132189385Y-47039802D01*
X132141766Y-47087421D01*
X132046528Y-47135040D01*
X131808433Y-47135040D01*
X131713195Y-47087421D01*
X131665576Y-47039802D01*
%TO.C,C14*%
X154456402Y-78636097D02*
X154504021Y-78683716D01*
X154551640Y-78826573D01*
X154551640Y-78921811D01*
X154504021Y-79064668D01*
X154408783Y-79159906D01*
X154313545Y-79207525D01*
X154123069Y-79255144D01*
X153980212Y-79255144D01*
X153789736Y-79207525D01*
X153694498Y-79159906D01*
X153599260Y-79064668D01*
X153551640Y-78921811D01*
X153551640Y-78826573D01*
X153599260Y-78683716D01*
X153646879Y-78636097D01*
X154551640Y-77683716D02*
X154551640Y-78255144D01*
X154551640Y-77969430D02*
X153551640Y-77969430D01*
X153694498Y-78064668D01*
X153789736Y-78159906D01*
X153837355Y-78255144D01*
X153884974Y-76826573D02*
X154551640Y-76826573D01*
X153504021Y-77064668D02*
X154218307Y-77302763D01*
X154218307Y-76683716D01*
%TO.C,C13*%
X145474962Y-78859617D02*
X145522581Y-78907236D01*
X145570200Y-79050093D01*
X145570200Y-79145331D01*
X145522581Y-79288188D01*
X145427343Y-79383426D01*
X145332105Y-79431045D01*
X145141629Y-79478664D01*
X144998772Y-79478664D01*
X144808296Y-79431045D01*
X144713058Y-79383426D01*
X144617820Y-79288188D01*
X144570200Y-79145331D01*
X144570200Y-79050093D01*
X144617820Y-78907236D01*
X144665439Y-78859617D01*
X145570200Y-77907236D02*
X145570200Y-78478664D01*
X145570200Y-78192950D02*
X144570200Y-78192950D01*
X144713058Y-78288188D01*
X144808296Y-78383426D01*
X144855915Y-78478664D01*
X144570200Y-77573902D02*
X144570200Y-76954855D01*
X144951153Y-77288188D01*
X144951153Y-77145331D01*
X144998772Y-77050093D01*
X145046391Y-77002474D01*
X145141629Y-76954855D01*
X145379724Y-76954855D01*
X145474962Y-77002474D01*
X145522581Y-77050093D01*
X145570200Y-77145331D01*
X145570200Y-77431045D01*
X145522581Y-77526283D01*
X145474962Y-77573902D01*
%TO.C,C11*%
X141784342Y-81333577D02*
X141831961Y-81381196D01*
X141879580Y-81524053D01*
X141879580Y-81619291D01*
X141831961Y-81762148D01*
X141736723Y-81857386D01*
X141641485Y-81905005D01*
X141451009Y-81952624D01*
X141308152Y-81952624D01*
X141117676Y-81905005D01*
X141022438Y-81857386D01*
X140927200Y-81762148D01*
X140879580Y-81619291D01*
X140879580Y-81524053D01*
X140927200Y-81381196D01*
X140974819Y-81333577D01*
X141879580Y-80381196D02*
X141879580Y-80952624D01*
X141879580Y-80666910D02*
X140879580Y-80666910D01*
X141022438Y-80762148D01*
X141117676Y-80857386D01*
X141165295Y-80952624D01*
X141879580Y-79428815D02*
X141879580Y-80000243D01*
X141879580Y-79714529D02*
X140879580Y-79714529D01*
X141022438Y-79809767D01*
X141117676Y-79905005D01*
X141165295Y-80000243D01*
%TO.C,C8*%
X142886702Y-60273226D02*
X142934321Y-60320845D01*
X142981940Y-60463702D01*
X142981940Y-60558940D01*
X142934321Y-60701798D01*
X142839083Y-60797036D01*
X142743845Y-60844655D01*
X142553369Y-60892274D01*
X142410512Y-60892274D01*
X142220036Y-60844655D01*
X142124798Y-60797036D01*
X142029560Y-60701798D01*
X141981940Y-60558940D01*
X141981940Y-60463702D01*
X142029560Y-60320845D01*
X142077179Y-60273226D01*
X142410512Y-59701798D02*
X142362893Y-59797036D01*
X142315274Y-59844655D01*
X142220036Y-59892274D01*
X142172417Y-59892274D01*
X142077179Y-59844655D01*
X142029560Y-59797036D01*
X141981940Y-59701798D01*
X141981940Y-59511321D01*
X142029560Y-59416083D01*
X142077179Y-59368464D01*
X142172417Y-59320845D01*
X142220036Y-59320845D01*
X142315274Y-59368464D01*
X142362893Y-59416083D01*
X142410512Y-59511321D01*
X142410512Y-59701798D01*
X142458131Y-59797036D01*
X142505750Y-59844655D01*
X142600988Y-59892274D01*
X142791464Y-59892274D01*
X142886702Y-59844655D01*
X142934321Y-59797036D01*
X142981940Y-59701798D01*
X142981940Y-59511321D01*
X142934321Y-59416083D01*
X142886702Y-59368464D01*
X142791464Y-59320845D01*
X142600988Y-59320845D01*
X142505750Y-59368464D01*
X142458131Y-59416083D01*
X142410512Y-59511321D01*
%TO.C,C7*%
X142193282Y-42853946D02*
X142240901Y-42901565D01*
X142288520Y-43044422D01*
X142288520Y-43139660D01*
X142240901Y-43282518D01*
X142145663Y-43377756D01*
X142050425Y-43425375D01*
X141859949Y-43472994D01*
X141717092Y-43472994D01*
X141526616Y-43425375D01*
X141431378Y-43377756D01*
X141336140Y-43282518D01*
X141288520Y-43139660D01*
X141288520Y-43044422D01*
X141336140Y-42901565D01*
X141383759Y-42853946D01*
X141288520Y-42520613D02*
X141288520Y-41853946D01*
X142288520Y-42282518D01*
%TO.C,C5*%
X146383552Y-42869146D02*
X146431171Y-42916765D01*
X146478790Y-43059622D01*
X146478790Y-43154860D01*
X146431171Y-43297718D01*
X146335933Y-43392956D01*
X146240695Y-43440575D01*
X146050219Y-43488194D01*
X145907362Y-43488194D01*
X145716886Y-43440575D01*
X145621648Y-43392956D01*
X145526410Y-43297718D01*
X145478790Y-43154860D01*
X145478790Y-43059622D01*
X145526410Y-42916765D01*
X145574029Y-42869146D01*
X145478790Y-41964384D02*
X145478790Y-42440575D01*
X145954981Y-42488194D01*
X145907362Y-42440575D01*
X145859743Y-42345337D01*
X145859743Y-42107241D01*
X145907362Y-42012003D01*
X145954981Y-41964384D01*
X146050219Y-41916765D01*
X146288314Y-41916765D01*
X146383552Y-41964384D01*
X146431171Y-42012003D01*
X146478790Y-42107241D01*
X146478790Y-42345337D01*
X146431171Y-42440575D01*
X146383552Y-42488194D01*
%TO.C,C4*%
X151474442Y-71309526D02*
X151522061Y-71357145D01*
X151569680Y-71500002D01*
X151569680Y-71595240D01*
X151522061Y-71738098D01*
X151426823Y-71833336D01*
X151331585Y-71880955D01*
X151141109Y-71928574D01*
X150998252Y-71928574D01*
X150807776Y-71880955D01*
X150712538Y-71833336D01*
X150617300Y-71738098D01*
X150569680Y-71595240D01*
X150569680Y-71500002D01*
X150617300Y-71357145D01*
X150664919Y-71309526D01*
X150903014Y-70452383D02*
X151569680Y-70452383D01*
X150522061Y-70690479D02*
X151236347Y-70928574D01*
X151236347Y-70309526D01*
%TO.C,C3*%
X152830802Y-57014366D02*
X152878421Y-57061985D01*
X152926040Y-57204842D01*
X152926040Y-57300080D01*
X152878421Y-57442938D01*
X152783183Y-57538176D01*
X152687945Y-57585795D01*
X152497469Y-57633414D01*
X152354612Y-57633414D01*
X152164136Y-57585795D01*
X152068898Y-57538176D01*
X151973660Y-57442938D01*
X151926040Y-57300080D01*
X151926040Y-57204842D01*
X151973660Y-57061985D01*
X152021279Y-57014366D01*
X151926040Y-56681033D02*
X151926040Y-56061985D01*
X152306993Y-56395319D01*
X152306993Y-56252461D01*
X152354612Y-56157223D01*
X152402231Y-56109604D01*
X152497469Y-56061985D01*
X152735564Y-56061985D01*
X152830802Y-56109604D01*
X152878421Y-56157223D01*
X152926040Y-56252461D01*
X152926040Y-56538176D01*
X152878421Y-56633414D01*
X152830802Y-56681033D01*
%TD*%
M02*
